<?xml version="1.0" encoding="UTF-8" standalone="no"?>
<svg
   xmlns:dc="http://purl.org/dc/elements/1.1/"
   xmlns:cc="http://creativecommons.org/ns#"
   xmlns:rdf="http://www.w3.org/1999/02/22-rdf-syntax-ns#"
   xmlns:svg="http://www.w3.org/2000/svg"
   xmlns="http://www.w3.org/2000/svg"
   xmlns:sodipodi="http://sodipodi.sourceforge.net/DTD/sodipodi-0.dtd"
   xmlns:inkscape="http://www.inkscape.org/namespaces/inkscape"
   version="1.0"
   width="37.312603mm"
   height="52.222397mm"
   id="svg4595"
   inkscape:version="0.91 r"
   viewBox="0 0 37.312603 52.222397"
   sodipodi:docname="2.svg">
  <metadata
     id="metadata4614">
    <rdf:RDF>
      <cc:Work
         rdf:about="">
        <dc:format>image/svg+xml</dc:format>
        <dc:type
           rdf:resource="http://purl.org/dc/dcmitype/StillImage" />
        <dc:title />
      </cc:Work>
    </rdf:RDF>
  </metadata>
  <sodipodi:namedview
     pagecolor="#005a00"
     bordercolor="#666666"
     borderopacity="1"
     objecttolerance="10"
     gridtolerance="10"
     guidetolerance="10"
     inkscape:pageopacity="0"
     inkscape:pageshadow="2"
     inkscape:window-width="1920"
     inkscape:window-height="1080"
     id="namedview4612"
     inkscape:document-units="mm"
     showgrid="false"
     inkscape:zoom="45.254834"
     inkscape:cx="104.78295"
     inkscape:cy="35.844848"
     inkscape:window-x="1280"
     inkscape:window-y="0"
     inkscape:window-maximized="0"
     inkscape:current-layer="g6129" />
  <defs
     id="defs4597">
    <pattern
       id="WMFhbasepattern"
       patternUnits="userSpaceOnUse"
       width="6"
       height="6"
       x="0"
       y="0" />
    <pattern
       y="0"
       x="0"
       height="6"
       width="6"
       patternUnits="userSpaceOnUse"
       id="WMFhbasepattern-0" />
  </defs>
  <g
     id="g6129"
     transform="translate(3.3631699,-4.0032875)">
    <path
       style="fill:none;stroke:#000000;stroke-width:0.30041358px;stroke-linecap:round;stroke-linejoin:round;stroke-miterlimit:4;stroke-dasharray:none;stroke-opacity:1"
       d="m 24.531035,11.579548 c 0.417538,-0.976412 2.054132,-0.518237 1.857876,0.552375 -0.2415,1.637576 -2.353772,0.556968 -1.857876,-0.552375 z"
       id="path6114"
       inkscape:connector-curvature="0"
       sodipodi:nodetypes="ccc" />
    <path
       style="fill:none;stroke:#000000;stroke-width:0.30041358px;stroke-linecap:round;stroke-linejoin:round;stroke-miterlimit:4;stroke-dasharray:none;stroke-opacity:1"
       d="m 12.769201,52.068023 c -0.102689,-0.917651 1.113851,-1.353331 1.72454,-0.706013 0.918609,1.572286 -1.530578,2.010135 -1.72454,0.706013 z"
       id="path6116"
       inkscape:connector-curvature="0"
       sodipodi:nodetypes="ccc" />
    <path
       style="fill:none;stroke:#1f1a17;stroke-width:0.30041358px;stroke-linecap:round;stroke-linejoin:round;stroke-miterlimit:4;stroke-dasharray:none;stroke-opacity:1"
       d="m 28.083651,47.416154 -23.4386966,0 c 1.5351527,-2.369999 3.4894042,-4.474702 5.6207696,-6.322211 1.84443,-1.494138 3.689666,-3.002634 5.826084,-4.071205 2.554924,-1.572018 5.4836,-2.352771 8.14613,-3.687771 3.952288,-2.225944 7.233952,-5.732379 8.810116,-10.021531 C 33.88494,21.1084 34.563246,18.712271 33.927361,16.359601 33.270304,12.784942 31.389914,9.3826343 28.532535,7.1012001 25.726197,4.6552499 21.96262,3.4228929 18.266443,3.5125896 15.202314,3.6384336 12.129767,4.415418 9.5264566,6.0763319 7.2720896,7.4402494 5.3043651,9.2774372 3.8333422,11.474046 2.1568366,13.906683 1.2503493,16.824723 0.94368928,19.737875 1.2338242,21.477785 2.3983426,23.156739 4.11424,23.698333 c 2.2303573,0.918535 5.0517416,-0.154429 6.099283,-2.34045 0.633798,-1.210608 0.740832,-2.790036 0.207133,-4.05528 C 10.127655,16.484588 9.5657566,15.817336 8.9362896,15.233262 8.0716276,14.771889 7.1917216,14.143123 6.1698851,14.199193 6.8891966,12.88852 7.8060416,11.709165 9.0231416,10.824814 12.520802,7.9438111 18.004747,8.0476536 21.456709,10.956847 c 2.138361,1.560929 3.402154,4.077581 3.80522,6.657568 0.256374,2.987727 -0.519,6.051931 -2.299303,8.486315 -0.941329,1.28936 -2.162374,2.372958 -3.509217,3.229074 -1.679483,1.154264 -3.754494,1.377939 -5.534761,2.326823 -2.272321,0.827321 -4.2872984,2.245946 -6.2271044,3.672516 -2.0357507,1.692399 -4.0173823,3.519003 -5.4591626,5.755702 -2.76029792,3.734472 -4.2606838,8.281936 -4.8976822,12.846968 -0.071874,0.748048 -0.4471205,1.806735 0.7230791,1.431156 l 30.3656691,0 c 1.091233,-0.316669 1.056149,-1.696607 1.555334,-2.547287 0.992272,-2.547291 2.075934,-5.086747 3.012716,-7.638551 0.11268,-1.213481 -1.515657,-1.988679 -2.477424,-1.320929 -0.855663,0.335364 -1.125233,1.194039 -1.176495,2.038223 -0.186032,0.905894 -0.551568,1.414492 -1.243435,1.518361 l -0.0105,0.0034 4e-6,8e-6 z"
       id="path6118"
       inkscape:connector-curvature="0"
       sodipodi:nodetypes="cccccccccccccccccccccccccccccccccccc" />
  </g>
</svg>
