<?xml version="1.0" encoding="UTF-8" standalone="no"?>
<svg
   xmlns:dc="http://purl.org/dc/elements/1.1/"
   xmlns:cc="http://creativecommons.org/ns#"
   xmlns:rdf="http://www.w3.org/1999/02/22-rdf-syntax-ns#"
   xmlns:svg="http://www.w3.org/2000/svg"
   xmlns="http://www.w3.org/2000/svg"
   xmlns:sodipodi="http://sodipodi.sourceforge.net/DTD/sodipodi-0.dtd"
   xmlns:inkscape="http://www.inkscape.org/namespaces/inkscape"
   version="1.0"
   width="36.347397mm"
   height="52.323997mm"
   id="svg4860"
   inkscape:version="0.91 r"
   viewBox="0 0 36.347397 52.323997"
   sodipodi:docname="3.svg">
  <metadata
     id="metadata4881">
    <rdf:RDF>
      <cc:Work
         rdf:about="">
        <dc:format>image/svg+xml</dc:format>
        <dc:type
           rdf:resource="http://purl.org/dc/dcmitype/StillImage" />
        <dc:title></dc:title>
      </cc:Work>
    </rdf:RDF>
  </metadata>
  <sodipodi:namedview
     pagecolor="#005a00"
     bordercolor="#666666"
     borderopacity="1"
     objecttolerance="10"
     gridtolerance="10"
     guidetolerance="10"
     inkscape:pageopacity="0"
     inkscape:pageshadow="2"
     inkscape:window-width="1920"
     inkscape:window-height="1080"
     id="namedview4879"
     inkscape:document-units="mm"
     showgrid="false"
     inkscape:zoom="8"
     inkscape:cx="51.459036"
     inkscape:cy="43.059166"
     inkscape:window-x="1280"
     inkscape:window-y="0"
     inkscape:window-maximized="0"
     inkscape:current-layer="svg4860" />
  <defs
     id="defs4862">
    <pattern
       id="WMFhbasepattern"
       patternUnits="userSpaceOnUse"
       width="6"
       height="6"
       x="0"
       y="0" />
  </defs>
  <path
     style="fill:none;stroke:#000000;stroke-width:0.30074915px;stroke-linecap:round;stroke-linejoin:round;stroke-miterlimit:4;stroke-dasharray:none;stroke-opacity:1"
     d="m 24.5699,21.069808 c -3.098088,-0.573641 0.486626,-3.157569 1.145529,-4.47508 C 29.111013,11.771529 33.214968,7.3184725 36.17158,2.2651813 36.013684,-1.083173 31.587157,0.52123534 29.409671,0.1503584 21.93935,0.32190713 14.340702,-0.19174377 6.9499198,0.40531344 5.1566727,3.3615791 3.8192925,6.8619469 2.7165498,10.142672 3.6679631,12.624477 6.8667524,10.765773 6.7799373,8.6194618 10.237156,7.6234267 14.223301,8.4809076 17.879049,8.194548 19.80733,8.6325128 25.205531,7.2888315 24.812237,8.9188188 21.742566,13.424089 18.208928,17.685165 15.419944,22.33803 c 0.497729,2.390819 3.9034,1.012438 5.493512,2.384703 7.460405,2.913479 9.084059,13.94856 2.893937,18.992321 -5.844584,5.202454 -16.0736776,2.844719 -19.3942277,-4.102061 3.9611073,1.39372 8.8511727,-3.229828 6.2634427,-7.10946 C 8.1578519,27.86236 0.02469358,30.06878 0.26152097,35.210044 -0.13342316,40.889615 2.9485069,45.82637 7.4169872,48.889427 c 3.5770918,2.452028 8.0427218,3.703339 12.3245698,3.1738 9.116174,-0.27169 17.903359,-8.665312 16.26484,-18.138185 C 35.177956,27.81825 30.304856,22.904964 24.5699,21.069808 Z"
     id="path4867"
     inkscape:connector-curvature="0"
     sodipodi:nodetypes="cccccccccccccccsccc" />
  <path
     style="fill:none;stroke:#000000;stroke-width:0.30074915px;stroke-linecap:round;stroke-linejoin:round;stroke-miterlimit:4;stroke-dasharray:none;stroke-opacity:1"
     d="M 20.075074,4.7129947 C 19.06337,5.6887007 17.964908,3.9600954 18.696106,3.226576 c 1.059628,-0.851973 2.298111,0.4668496 1.378968,1.4864187 z"
     id="path4869"
     inkscape:connector-curvature="0"
     sodipodi:nodetypes="ccc" />
  <path
     style="fill:none;stroke:#000000;stroke-width:0.30074915px;stroke-linecap:round;stroke-linejoin:round;stroke-miterlimit:4;stroke-dasharray:none;stroke-opacity:1"
     d="m 28.721473,44.270789 c -0.15409,1.370594 -2.122634,0.804569 -1.963402,-0.415206 0.104241,-0.869803 1.963402,-0.780278 1.963402,0.415206 z"
     id="path4871"
     inkscape:connector-curvature="0"
     sodipodi:nodetypes="ccc" />
</svg>
