<?xml version="1.0" encoding="UTF-8" standalone="no"?>
<svg
   xmlns:dc="http://purl.org/dc/elements/1.1/"
   xmlns:cc="http://creativecommons.org/ns#"
   xmlns:rdf="http://www.w3.org/1999/02/22-rdf-syntax-ns#"
   xmlns:svg="http://www.w3.org/2000/svg"
   xmlns="http://www.w3.org/2000/svg"
   xmlns:sodipodi="http://sodipodi.sourceforge.net/DTD/sodipodi-0.dtd"
   xmlns:inkscape="http://www.inkscape.org/namespaces/inkscape"
   version="1.0"
   width="36.347397mm"
   height="52.323997mm"
   id="svg4860"
   inkscape:version="0.91 r"
   viewBox="0 0 36.347397 52.323997"
   sodipodi:docname="4.svg">
  <metadata
     id="metadata4881">
    <rdf:RDF>
      <cc:Work
         rdf:about="">
        <dc:format>image/svg+xml</dc:format>
        <dc:type
           rdf:resource="http://purl.org/dc/dcmitype/StillImage" />
        <dc:title />
      </cc:Work>
    </rdf:RDF>
  </metadata>
  <sodipodi:namedview
     pagecolor="#005a00"
     bordercolor="#666666"
     borderopacity="1"
     objecttolerance="10"
     gridtolerance="10"
     guidetolerance="10"
     inkscape:pageopacity="0"
     inkscape:pageshadow="2"
     inkscape:window-width="1280"
     inkscape:window-height="800"
     id="namedview4879"
     inkscape:document-units="mm"
     showgrid="false"
     inkscape:zoom="11.313708"
     inkscape:cx="63.757553"
     inkscape:cy="63.602626"
     inkscape:window-x="0"
     inkscape:window-y="0"
     inkscape:window-maximized="0"
     inkscape:current-layer="g6086" />
  <defs
     id="defs4862">
    <pattern
       id="WMFhbasepattern"
       patternUnits="userSpaceOnUse"
       width="6"
       height="6"
       x="0"
       y="0" />
    <pattern
       y="0"
       x="0"
       height="6"
       width="6"
       patternUnits="userSpaceOnUse"
       id="WMFhbasepattern-4" />
    <pattern
       y="0"
       x="0"
       height="6"
       width="6"
       patternUnits="userSpaceOnUse"
       id="WMFhbasepattern-0" />
  </defs>
  <g
     id="g5143"
     transform="translate(-14.637004,7.8341113)">
    <g
       id="g6086"
       transform="translate(1.2181891,1.7158392)">
      <path
         style="fill:none;stroke:#1f1a17;stroke-width:0.25950667;stroke-linecap:round;stroke-linejoin:round;stroke-miterlimit:4;stroke-dasharray:none;stroke-opacity:1"
         d="m 43.265138,27.062423 c -1.00091,0.509629 -2.072716,0.920781 -3.184156,1.095398 l 0,-9.551809 c -0.229179,-0.506038 -0.628094,-0.823487 -1.165352,-0.967179 -0.625402,-0.162852 -1.245518,0.271329 -1.573004,0.746548 -0.265306,1.543399 -0.559022,2.168751 -2.193668,2.304915 -0.986491,0.439512 -0.575159,1.662392 -0.658641,2.509416 l 0,4.958094 -10.309861,0 c -0.583979,-0.318012 -0.272657,-0.899592 0.196099,-1.147094 1.61196,-1.352838 3.322721,-2.617826 4.620208,-4.297353 1.020298,-1.265466 2.098372,-2.481833 2.933615,-3.884542 1.795559,-2.853167 3.243024,-5.951243 4.13384,-9.2051444 C 36.34331,8.011365 36.911661,6.4529456 36.930095,4.798104 37.036441,3.5233333 37.233134,2.2147497 37.078672,0.95019223 36.624011,0.10286899 35.516421,0.46090422 34.71177,0.38220847 33.688179,0.42210672 32.624203,0.28376241 31.63801,0.48870612 30.941549,0.89675379 31.275046,1.7280959 31.199792,2.391275 c 0.05177,2.2675395 -0.1126,4.5455259 -0.547174,6.7719383 -0.390515,1.1579347 -0.51643,2.3815047 -1.052985,3.4902707 -0.397568,1.433964 -1.168878,2.709886 -1.803766,4.038426 -1.574762,2.528751 -3.423156,4.918302 -5.699171,6.855074 -0.991319,1.048171 -1.999484,2.081296 -2.779688,3.30347 -1.058879,1.616578 -1.813408,3.419559 -2.376252,5.253666 -0.213878,0.462653 0.124667,1.020114 0.421391,1.369827 0.424885,0.395979 1.078385,0.449647 1.651237,0.361117 0.572378,-0.148223 1.131062,-0.348891 1.401233,-0.919603 0.513373,-0.688329 1.337111,-1.050416 2.192417,-0.913612 l 11.883283,0 c -0.03296,1.671892 0.06455,3.374885 -0.04614,5.028247 -0.174728,0.575965 -0.720714,0.636067 -1.246055,0.570438 -0.653742,-0.124187 -1.282924,0.314842 -1.386716,0.972067 -0.414204,0.635778 0.05805,1.397786 0.485235,1.883137 1.13405,0.241568 2.337892,0.04079 3.499678,0.106566 2.078417,-0.03044 4.184943,0.06056 6.245982,-0.04493 0.891498,-0.449007 1.010313,-1.680003 0.491529,-2.440962 -0.40627,-0.495007 -0.960763,-0.540327 -1.571346,-0.475869 -0.691427,0.12019 -0.985054,-0.725432 -0.881503,-1.288893 l 0,-4.309791 c 1.897239,-0.201083 3.689968,-0.956212 5.362215,-1.843157 0.856009,-0.5212 1.68981,-1.093734 2.424659,-1.777757 0.09857,-0.702212 -0.651892,-1.129351 -0.937612,-1.716773 -0.41891,-0.456322 -0.620893,-1.1992 -1.253591,-1.358959 -0.825849,0.480042 -1.531373,1.292178 -2.411518,1.757219 z"
         id="path6071"
         inkscape:connector-curvature="0"
         sodipodi:nodetypes="ccccccccccccccccccccccccccccccccccccccccccccc" />
      <path
         style="fill:none;stroke:#2b2a29;stroke-width:0.39010325px;stroke-linecap:round;stroke-linejoin:round;stroke-miterlimit:4;stroke-dasharray:none;stroke-opacity:1"
         d="m 38.247809,35.121684 c -0.875561,0.936893 -2.340264,-0.573865 -1.952103,-1.662535 1.347393,-2.283991 3.425578,0.693305 1.952103,1.662535 z"
         id="path6075"
         inkscape:connector-curvature="0"
         sodipodi:nodetypes="ccc" />
      <path
         style="fill:none;stroke:#2b2a29;stroke-width:0.39010325px;stroke-linecap:round;stroke-linejoin:round;stroke-miterlimit:4;stroke-dasharray:none;stroke-opacity:1"
         d="M 34.497608,6.6385352 C 34.862614,8.9064095 31.776175,8.4360575 31.832229,6.8794137 32.154006,5.288726 34.108645,5.3305359 34.497608,6.6385352 Z"
         id="path6079"
         inkscape:connector-curvature="0"
         sodipodi:nodetypes="ccc" />
    </g>
  </g>
</svg>
