<?xml version="1.0" encoding="UTF-8" standalone="no"?>
<svg
   xmlns:dc="http://purl.org/dc/elements/1.1/"
   xmlns:cc="http://creativecommons.org/ns#"
   xmlns:rdf="http://www.w3.org/1999/02/22-rdf-syntax-ns#"
   xmlns:svg="http://www.w3.org/2000/svg"
   xmlns="http://www.w3.org/2000/svg"
   xmlns:sodipodi="http://sodipodi.sourceforge.net/DTD/sodipodi-0.dtd"
   xmlns:inkscape="http://www.inkscape.org/namespaces/inkscape"
   version="1.0"
   width="36.347397mm"
   height="52.323997mm"
   id="svg4860"
   inkscape:version="0.91 r"
   viewBox="0 0 36.347397 52.323997"
   sodipodi:docname="5.svg">
  <metadata
     id="metadata4881">
    <rdf:RDF>
      <cc:Work
         rdf:about="">
        <dc:format>image/svg+xml</dc:format>
        <dc:type
           rdf:resource="http://purl.org/dc/dcmitype/StillImage" />
        <dc:title></dc:title>
      </cc:Work>
    </rdf:RDF>
  </metadata>
  <sodipodi:namedview
     pagecolor="#005a00"
     bordercolor="#666666"
     borderopacity="1"
     objecttolerance="10"
     gridtolerance="10"
     guidetolerance="10"
     inkscape:pageopacity="0"
     inkscape:pageshadow="2"
     inkscape:window-width="1920"
     inkscape:window-height="1058"
     id="namedview4879"
     inkscape:document-units="mm"
     showgrid="false"
     inkscape:zoom="2"
     inkscape:cx="-31.176964"
     inkscape:cy="179.83481"
     inkscape:window-x="1280"
     inkscape:window-y="0"
     inkscape:window-maximized="1"
     inkscape:current-layer="g5225" />
  <defs
     id="defs4862">
    <pattern
       id="WMFhbasepattern"
       patternUnits="userSpaceOnUse"
       width="6"
       height="6"
       x="0"
       y="0" />
    <pattern
       y="0"
       x="0"
       height="6"
       width="6"
       patternUnits="userSpaceOnUse"
       id="WMFhbasepattern-4" />
    <pattern
       y="0"
       x="0"
       height="6"
       width="6"
       patternUnits="userSpaceOnUse"
       id="WMFhbasepattern-5" />
  </defs>
  <g
     id="g5143"
     transform="translate(-14.637004,7.8341113)">
    <g
       id="g5225"
       transform="translate(61.50767,-10.657477)">
      <path
         style="fill:none;stroke:#000000;stroke-width:0.30030689px;stroke-linecap:round;stroke-linejoin:round;stroke-miterlimit:4;stroke-dasharray:none;stroke-opacity:1"
         d="m -15.52308,26.350819 c -1.85218,-2.298334 -4.211978,-4.202261 -6.909299,-5.410081 -1.784202,-0.772019 -3.711271,-1.16066 -5.634215,-1.352726 -1.55418,-0.05437 -3.097652,0.007 -4.613119,0.382674 -1.79623,0.328909 -3.53612,1.016983 -5.085639,1.983675 l 0,-11.077674 19.790862,0 c 1.230701,0.12893 1.191258,1.613315 1.96289,2.267602 0.606331,0.697885 1.733474,0.789308 2.520668,0.4363 0.953882,-0.932695 -0.05624,-2.138214 -0.383706,-3.127255 -1.014129,-2.3035405 -1.926883,-4.6748517 -3.0041,-6.9362165 -0.850199,-1.1000061 -2.36726,-0.5348476 -3.549436,-0.6729041 l -20.973507,0 c -0.865021,0.121383 -1.469597,0.8848286 -1.26652,1.7571287 l 0,26.7433669 c 1.080347,1.486282 3.428536,1.561002 4.677386,0.272675 0.606733,-0.891118 1.059401,-1.94477 1.781521,-2.789639 1.831042,-2.50732 4.994547,-4.05378 8.111264,-3.606402 2.75361,0.474785 5.110579,2.364009 6.493626,4.759978 1.153748,1.941916 1.896703,4.130464 2.033384,6.387613 0.350573,3.441224 -0.449877,7.083685 -2.538378,9.87285 -0.897584,1.294917 -2.129141,2.316133 -3.47723,3.112938 -2.559102,1.294257 -5.801108,1.132712 -8.133025,-0.577064 -0.43428,-0.422927 -1.552617,-0.886544 -1.361103,-1.477855 0.833737,-1.193204 1.244108,-2.691715 0.866852,-4.120388 -0.555465,-2.563561 -3.429744,-4.372357 -5.990279,-3.676931 -2.172274,0.512909 -4.006391,2.744163 -3.564057,5.031601 0.55189,1.988864 1.223347,4.080228 2.888954,5.427874 2.095073,2.037345 4.699171,3.549582 7.544275,4.246065 1.988412,0.541448 4.113874,0.707464 6.155067,0.448285 2.473598,-0.246226 4.86602,-1.169297 6.989601,-2.443291 2.042565,-1.375696 3.972252,-3.03256 5.242218,-5.167056 1.729157,-2.45451 2.61828,-5.439326 2.936041,-8.408817 0.177725,-2.276714 -0.107805,-4.592272 -0.760661,-6.772292 -0.711982,-2.090041 -1.699653,-3.937805 -2.750335,-5.514034 z"
         id="path5208"
         inkscape:connector-curvature="0"
         sodipodi:nodetypes="ccccccccccccccccccccccccccccccccccc" />
      <path
         style="fill:none;stroke:#000000;stroke-width:0.30030689px;stroke-linecap:round;stroke-linejoin:round;stroke-miterlimit:4;stroke-dasharray:none;stroke-opacity:1"
         d="m -29.898633,7.2406768 c -0.613833,-0.6427117 0.0918,-1.9107447 0.876798,-1.6547075 1.703956,0.7788576 0.01207,2.6329705 -0.876798,1.6547075 z"
         id="path5210"
         inkscape:connector-curvature="0"
         sodipodi:nodetypes="ccc" />
      <path
         style="fill:none;stroke:#000000;stroke-width:0.30030689px;stroke-linecap:round;stroke-linejoin:round;stroke-miterlimit:4;stroke-dasharray:none;stroke-opacity:1"
         d="m -19.191095,47.629151 c -0.8821,-0.22216 -0.819993,-1.811888 0.116593,-1.910301 2.094231,-0.0088 1.056435,2.253341 -0.116593,1.910301 z"
         id="path5212"
         inkscape:connector-curvature="0"
         sodipodi:nodetypes="ccc" />
    </g>
  </g>
</svg>
