<?xml version="1.0" encoding="UTF-8" standalone="no"?>
<svg
   xmlns:dc="http://purl.org/dc/elements/1.1/"
   xmlns:cc="http://creativecommons.org/ns#"
   xmlns:rdf="http://www.w3.org/1999/02/22-rdf-syntax-ns#"
   xmlns:svg="http://www.w3.org/2000/svg"
   xmlns="http://www.w3.org/2000/svg"
   xmlns:sodipodi="http://sodipodi.sourceforge.net/DTD/sodipodi-0.dtd"
   xmlns:inkscape="http://www.inkscape.org/namespaces/inkscape"
   version="1.0"
   width="19.2024mm"
   height="31.292799mm"
   id="svg6165"
   inkscape:version="0.91 r"
   viewBox="0 0 19.2024 31.292799"
   sodipodi:docname="5.svg">
  <metadata
     id="metadata6186">
    <rdf:RDF>
      <cc:Work
         rdf:about="">
        <dc:format>image/svg+xml</dc:format>
        <dc:type
           rdf:resource="http://purl.org/dc/dcmitype/StillImage" />
        <dc:title></dc:title>
      </cc:Work>
    </rdf:RDF>
  </metadata>
  <sodipodi:namedview
     pagecolor="#006a38"
     bordercolor="#666666"
     borderopacity="1"
     objecttolerance="10"
     gridtolerance="10"
     guidetolerance="10"
     inkscape:pageopacity="0"
     inkscape:pageshadow="2"
     inkscape:window-width="1280"
     inkscape:window-height="800"
     id="namedview6184"
     inkscape:document-units="mm"
     showgrid="false"
     inkscape:zoom="4.2568544"
     inkscape:cx="7.6687124"
     inkscape:cy="53.311235"
     inkscape:window-x="0"
     inkscape:window-y="0"
     inkscape:window-maximized="0"
     inkscape:current-layer="svg6165" />
  <defs
     id="defs6167">
    <pattern
       id="WMFhbasepattern"
       patternUnits="userSpaceOnUse"
       width="6"
       height="6"
       x="0"
       y="0" />
  </defs>
  <path
     style="fill:none;stroke:#1f1a17;stroke-width:0.29915181px;stroke-linecap:round;stroke-linejoin:round;stroke-miterlimit:4;stroke-dasharray:none;stroke-opacity:1"
     d="m 3.0267204,17.748165 0.1700954,-0.168063 0.252222,-0.08599 0.1720709,-0.252081 0.168148,-0.170039 0.2541693,-0.424039 0.2522502,-0.42212 0.2541694,-0.424067 0.2541693,-0.336126 0.3402189,-0.340022 0.3382715,-0.338102 0.3382434,-0.254028 0.3382715,-0.254057 0.3382434,-0.254056 0.4242928,-0.168063 0.3382434,-0.170011 0.4242929,-0.08596 0.4223455,-0.0821 0.4242647,-0.08596 0.3363242,0 0.4242647,0.08596 0.4223455,0.0821 0.4242927,0.08596 0.340191,0.08599 0.422345,0.252081 0.338244,0.170039 0.422345,0.252081 0.340219,0.254056 0.338244,0.340022 0.254197,0.338074 0.340191,0.340049 0.25225,0.336127 0.254169,0.424067 0.25417,0.422091 0.168148,0.508113 0.170123,0.424039 0.170096,0.506166 0.168148,0.508084 0.08407,0.508085 0.08605,0.508113 0,0.508085 0.08407,0.508084 -0.08407,0.592131 0,0.508113 -0.08605,0.506137 -0.08407,0.508085 -0.08407,0.508113 -0.170096,0.424038 -0.168148,0.506166 -0.254197,0.422092 -0.170096,0.424067 -0.254169,0.422119 -0.254198,0.424068 -0.336296,0.338074 -0.256144,0.338074 -0.338244,0.340021 -0.338271,0.254056 -0.424265,0.252109 -0.336324,0.254029 -0.340191,0.168063 -0.422345,0.08599 -0.4242933,0.168092 -0.3382434,0.08608 -0.4223455,0 -0.4262402,0 -0.4223174,0 L 7.7681667,28.324387 7.4299233,28.156295 7.0056304,28.070302 6.6673589,27.818221 6.2430942,27.64821 5.9048227,27.396101 5.5685267,27.142045 5.2283078,26.802024 l 0.168148,-0.252081 0.1720709,-0.254057 0.168148,-0.340049 0.084074,-0.338074 0.084074,-0.338074 0,-0.252081 0,-0.34005 0,-0.338074 L 5.8207487,24.009463 5.6506533,23.673336 5.5685267,23.417332 5.3143573,23.081206 5.1442338,22.827149 4.8900644,22.655191 4.6358669,22.403082 4.3816976,22.233072 4.043426,22.149052 l -0.3401907,-0.08599 -0.2541975,-0.08207 -0.336296,0 -0.3402104,0 -0.3382575,0 -0.3382546,0.08207 -0.2541835,0.170011 -0.3402104,0.08599 -0.2522276,0.254056 -0.25418064,0.168063 -0.25418063,0.254029 -0.16815082,0.254056 -0.17010662,0.338074 -0.17010549,0.254057 -0.0840754,0.338074 0,0.338074 0.0840754,0.51006 0.0860315,0.506137 0.16815082,0.508085 0.1701038,0.508113 0.25418345,0.422091 0.25418063,0.508113 0.4223314,0.422092 0.4242873,0.422148 0.4223314,0.423897 0.5083725,0.422205 0.5063914,0.340078 0.5083669,0.338102 0.5103142,0.254 0.5904935,0.254 0.5103143,0.254 0.5904935,0.168204 0.5924127,0.169898 0.5924409,0.08608 0.5944164,0.08213 0.6745394,0 0.5943882,0 0.5924409,0 0.5924413,-0.08213 0.594388,-0.169898 0.592441,-0.08608 0.590493,-0.168204 0.592441,-0.254 0.508367,-0.254 0.592413,-0.254 0.508367,-0.338102 0.508366,-0.340078 0.424293,-0.422205 0.50642,-0.423897 0.422317,-0.422148 0.424293,-0.422092 0.340219,-0.508113 0.336296,-0.508084 0.340219,-0.590184 0.252222,-0.510032 0.254169,-0.590183 0.254198,-0.594077 0.170095,-0.592131 0.170095,-0.59213 0.170124,-0.592131 0.0821,-0.594078 0,-0.6742 0,-0.594078 0,-0.676148 -0.0821,-0.59213 -0.08605,-0.592131 -0.08407,-0.59213 -0.170095,-0.678096 -0.252222,-0.590183 -0.254197,-0.508084 -0.25417,-0.592131 -0.254197,-0.508113 -0.338244,-0.59213 -0.340219,-0.508085 -0.422317,-0.424067 -0.424293,-0.508085 -0.422345,-0.422119 -0.508339,-0.338074 -0.424293,-0.424068 -0.506419,-0.338074 -0.594389,-0.338074 -0.506419,-0.254056 -0.592413,-0.254056 -0.508367,-0.170011 -0.592441,-0.168063 -0.594388,-0.168064 -0.590493,-0.08596 -0.6784627,-0.08599 -0.5924409,0 -0.5924408,0 -0.5924409,0.08599 -0.5924409,0.08596 -0.5924409,0.0821 -0.5924409,0.17001 -0.5943882,0.170011 -0.5924409,0.254056 -0.5083387,0.252081 -0.5064195,0.340022 0,-6.6013192 11.6825603,0 0.170096,0 0.08407,0.085993 0.170123,0.084017 0.08213,0.084046 0.08602,0.085993 0.25417,0.4220916 0,0.1700107 0.170123,0.1680633 0.08407,0.1680633 0.170095,0.1719862 0.168148,0.08207 0.168148,0.085993 0.172071,0.084018 0.252222,0 0.170124,0 0.170095,0 0.25417,-0.084018 0.08213,-0.085993 0.08602,-0.1680634 0.08605,-0.1680633 0,-0.085993 0,-0.1680633 0,-0.1700107 -2.201615,-5.0770395 -0.08602,-0.16806333 -0.08602,-0.17001631 -0.168148,-0.0859844 -0.168176,0 -0.170096,-0.082077 -13.8841618,0 -0.1681508,0.082077 -0.1701066,0 -0.1701038,0.0859844 -0.0840768,0.17001631 -0.084074,0.0840317 -0.0860326,0.17001631 0,0.16806334 0,16.24537128 0.17010663,0.170011 0.25418067,0.168063 0.1701066,0.171986 0.2541805,0.08207 0.2522277,0.08596 0.2541806,0 0.3402132,0 0.2522249,0 0.254189,-0.08596 z"
     id="path6178"
     inkscape:connector-curvature="0" />
  <path
     style="fill:none;stroke:#1f1a17;stroke-width:0.29915181px;stroke-linecap:round;stroke-linejoin:round;stroke-miterlimit:4;stroke-dasharray:none;stroke-opacity:1"
     d="m 15.217648,24.095428 0.170095,-0.08596 0.168148,0 0.170096,0 0.25225,0.08596 0.172043,0.08405 0.08213,0.08402 0.172071,0.170039 0.08407,0.170011 0.08407,0.17001 0,0.254057 0,0.168063 -0.08407,0.168063 -0.08407,0.170011 -0.172071,0.168063 -0.08213,0.171958 -0.172043,0.08207 -0.25225,0 -0.170096,0.08599 -0.168148,-0.08599 -0.170095,0 -0.168148,-0.08207 -0.170124,-0.171958 -0.170095,-0.168063 -0.08407,-0.170011 0,-0.168063 -0.08407,-0.168063 0.08407,-0.254057 0,-0.17001 0.08407,-0.170011 0.170095,-0.170039 0.170124,-0.08402 0.168148,-0.08405 z"
     id="path6180"
     inkscape:connector-curvature="0" />
  <path
     style="fill:none;stroke:#1f1a17;stroke-width:0.29915181px;stroke-linecap:round;stroke-linejoin:round;stroke-miterlimit:4;stroke-dasharray:none;stroke-opacity:1"
     d="m 9.4614153,3.197098 -0.1701235,0.08207 -0.252222,0.085993 -0.1720427,0 -0.168148,0 L 8.5307029,3.2791682 8.3606076,3.197098 8.1905122,3.1111049 8.0223642,2.9430416 7.9382902,2.7730281 l 0,-0.1700163 -0.086049,-0.1700164 0.086049,-0.2540479 0,-0.1680634 0.084074,-0.1680605 0.168148,-0.1700163 0.1700954,-0.085988 0.1700953,-0.084032 0.1681762,-0.084029 0.168148,0 0.1720427,0 0.252222,0.084029 0.1701235,0.084032 0.084074,0.085988 0.168148,0.1700163 0.086021,0.1680605 0.086049,0.1680634 0,0.2540479 0,0.1700164 -0.086049,0.1700163 -0.086021,0.1700135 -0.168148,0.1680633 -0.084074,0.085993 z"
     id="path6182"
     inkscape:connector-curvature="0" />
</svg>
