<?xml version="1.0" encoding="UTF-8" standalone="no"?>
<svg
   xmlns:dc="http://purl.org/dc/elements/1.1/"
   xmlns:cc="http://creativecommons.org/ns#"
   xmlns:rdf="http://www.w3.org/1999/02/22-rdf-syntax-ns#"
   xmlns:svg="http://www.w3.org/2000/svg"
   xmlns="http://www.w3.org/2000/svg"
   xmlns:sodipodi="http://sodipodi.sourceforge.net/DTD/sodipodi-0.dtd"
   xmlns:inkscape="http://www.inkscape.org/namespaces/inkscape"
   version="1.0"
   width="21.285198mm"
   height="31.343599mm"
   id="svg7437"
   inkscape:version="0.91 r"
   viewBox="0 0 21.285198 31.343599"
   sodipodi:docname="6.svg">
  <metadata
     id="metadata7470">
    <rdf:RDF>
      <cc:Work
         rdf:about="">
        <dc:format>image/svg+xml</dc:format>
        <dc:type
           rdf:resource="http://purl.org/dc/dcmitype/StillImage" />
        <dc:title></dc:title>
      </cc:Work>
    </rdf:RDF>
  </metadata>
  <sodipodi:namedview
     pagecolor="#001d40"
     bordercolor="#666666"
     borderopacity="1"
     objecttolerance="10"
     gridtolerance="10"
     guidetolerance="10"
     inkscape:pageopacity="0"
     inkscape:pageshadow="2"
     inkscape:window-width="1280"
     inkscape:window-height="800"
     id="namedview7468"
     inkscape:document-units="mm"
     showgrid="false"
     inkscape:zoom="8.4999101"
     inkscape:cx="35.989229"
     inkscape:cy="77.44942"
     inkscape:window-x="0"
     inkscape:window-y="0"
     inkscape:window-maximized="0"
     inkscape:current-layer="svg7437" />
  <defs
     id="defs7439">
    <pattern
       id="WMFhbasepattern"
       patternUnits="userSpaceOnUse"
       width="6"
       height="6"
       x="0"
       y="0" />
  </defs>
  <path
     style="fill:none;stroke:#1f1a17;stroke-width:0.15000001;stroke-linecap:round;stroke-linejoin:round;stroke-miterlimit:4;stroke-dasharray:none;stroke-opacity:1"
     d="M 11.136828,11.898968 C 9.9916048,11.836367 8.9026777,12.288061 7.8469436,12.66886 6.9937426,13.048198 6.2139072,13.598501 5.4840956,14.170902 5.0867114,14.779045 5.1093873,13.77678 4.948226,13.479266 4.740863,12.757263 4.8011121,11.996944 4.7130828,11.258082 4.6371138,9.5362562 5.2782353,7.8622213 6.1497351,6.404581 7.1916146,4.9638227 8.6329689,3.7478127 10.38493,3.3040827 11.148695,2.9548993 11.994662,3.048753 12.802113,2.9399923 c 0.464541,-0.011798 0.920421,0.1034595 1.378255,0.168346 -0.801996,0.4984616 -1.302383,1.4141402 -1.286538,2.3556343 -0.07049,1.0883361 0.623989,2.3792839 1.517902,2.7576469 0.881925,0.4296848 1.901225,0.4667095 2.688647,0.054941 C 18.308232,7.6375332 19.002066,5.9094584 18.576403,4.7995268 17.825386,3.0744424 15.820972,1.5822978 14.299548,1.0130987 13.550355,0.67849377 12.743435,0.43609239 11.937567,0.27658419 10.722986,0.22091275 9.2804786,0.04492693 8.2760265,0.51316029 7.2099909,0.79468826 6.2627784,1.3775886 5.440885,2.1030244 3.9001667,3.4031578 2.858991,5.0019909 2.0708947,6.687788 1.4484671,8.0030317 1.0525139,9.3564615 0.71384808,10.68524 c -0.18697969,1.030419 -0.3416052,2.064734 -0.44247061,3.109387 -0.12052946,1.640863 -0.10123812,3.369987 0.13181976,4.865144 0.21653765,1.601965 0.55017033,3.206995 1.09752927,4.60062 0.6429422,1.727555 1.4795957,3.175263 2.5274779,4.518278 1.5160305,1.529016 3.068489,2.962392 5.1229529,3.194942 2.1838247,0.358508 4.2297577,0.23618 6.1453347,-0.530078 2.60828,-1.126214 4.750827,-3.579125 5.431399,-6.218574 0.642441,-3.883429 0.132612,-6.902631 -2.358197,-9.547506 -1.197133,-1.150683 -2.664094,-2.075329 -4.27348,-2.525986 -1.06886,-0.133408 -1.971487,-0.446762 -2.959386,-0.252499 z"
     id="path7454"
     inkscape:connector-curvature="0"
     sodipodi:nodetypes="ccccccccccccccccccccccccccccc" />
  <path
     style="fill:none;stroke:#1f1a17;stroke-width:0.15000001;stroke-linecap:round;stroke-linejoin:round;stroke-miterlimit:4;stroke-dasharray:none;stroke-opacity:1"
     d="M 9.3728744,15.605862 C 17.923726,14.061376 16.936248,27.053724 11.726525,28.063471 5.1620461,27.250777 4.315078,18.291186 9.3728744,15.605862 Z"
     id="path7458"
     inkscape:connector-curvature="0"
     sodipodi:nodetypes="ccc" />
  <path
     style="fill:none;stroke:#2b2a29;stroke-width:0.29946136px;stroke-linecap:round;stroke-linejoin:round;stroke-miterlimit:4;stroke-dasharray:none;stroke-opacity:1"
     d="m 18.28674,26.706663 c -0.652201,0.658287 -1.895602,0.03153 -1.74984,-0.88473 0.762484,-2.128191 2.737975,-0.01403 1.74984,0.88473 z"
     id="path7462"
     inkscape:connector-curvature="0"
     sodipodi:nodetypes="ccc" />
  <path
     style="fill:none;stroke:#2b2a29;stroke-width:0.29946136px;stroke-linecap:round;stroke-linejoin:round;stroke-miterlimit:4;stroke-dasharray:none;stroke-opacity:1"
     d="m 5.0732254,6.7607971 c -0.6497202,0.6596028 -1.8959976,0.031371 -1.747824,-0.884738 0.7626958,-2.1289711 2.7392667,-0.0093 1.747824,0.884738 z"
     id="path7466"
     inkscape:connector-curvature="0"
     sodipodi:nodetypes="ccc" />
</svg>
