<?xml version="1.0" encoding="UTF-8" standalone="no"?>
<svg
   xmlns:dc="http://purl.org/dc/elements/1.1/"
   xmlns:cc="http://creativecommons.org/ns#"
   xmlns:rdf="http://www.w3.org/1999/02/22-rdf-syntax-ns#"
   xmlns:svg="http://www.w3.org/2000/svg"
   xmlns="http://www.w3.org/2000/svg"
   xmlns:sodipodi="http://sodipodi.sourceforge.net/DTD/sodipodi-0.dtd"
   xmlns:inkscape="http://www.inkscape.org/namespaces/inkscape"
   version="1.0"
   width="36.347397mm"
   height="52.323997mm"
   id="svg4860"
   inkscape:version="0.91 r"
   viewBox="0 0 36.347397 52.323997"
   sodipodi:docname="6.svg">
  <metadata
     id="metadata4881">
    <rdf:RDF>
      <cc:Work
         rdf:about="">
        <dc:format>image/svg+xml</dc:format>
        <dc:type
           rdf:resource="http://purl.org/dc/dcmitype/StillImage" />
        <dc:title></dc:title>
      </cc:Work>
    </rdf:RDF>
  </metadata>
  <sodipodi:namedview
     pagecolor="#005a00"
     bordercolor="#666666"
     borderopacity="1"
     objecttolerance="10"
     gridtolerance="10"
     guidetolerance="10"
     inkscape:pageopacity="0"
     inkscape:pageshadow="2"
     inkscape:window-width="1920"
     inkscape:window-height="1058"
     id="namedview4879"
     inkscape:document-units="mm"
     showgrid="false"
     inkscape:zoom="2.8284271"
     inkscape:cx="42.898137"
     inkscape:cy="131.94615"
     inkscape:window-x="1280"
     inkscape:window-y="0"
     inkscape:window-maximized="1"
     inkscape:current-layer="g5313" />
  <defs
     id="defs4862">
    <pattern
       id="WMFhbasepattern"
       patternUnits="userSpaceOnUse"
       width="6"
       height="6"
       x="0"
       y="0" />
    <pattern
       y="0"
       x="0"
       height="6"
       width="6"
       patternUnits="userSpaceOnUse"
       id="WMFhbasepattern-4" />
    <pattern
       y="0"
       x="0"
       height="6"
       width="6"
       patternUnits="userSpaceOnUse"
       id="WMFhbasepattern-5" />
    <pattern
       y="0"
       x="0"
       height="6"
       width="6"
       patternUnits="userSpaceOnUse"
       id="WMFhbasepattern-2" />
  </defs>
  <g
     id="g5143"
     transform="translate(-14.637004,7.8341113)">
    <g
       id="g5225"
       transform="translate(61.50767,-10.657477)">
      <g
         id="g5313"
         transform="translate(-41.723,6.3750927)">
        <path
           style="fill:none;stroke:#000000;stroke-width:0.30054495px;stroke-linecap:round;stroke-linejoin:round;stroke-miterlimit:4;stroke-dasharray:none;stroke-opacity:1"
           d="M 24.708555,18.972728 C 22.262184,17.114416 19.152758,16.314413 16.120438,16.119908 14.257111,15.985032 12.388385,16.392472 10.600891,16.86303 8.3899228,17.637396 6.1879999,18.673496 4.5654526,20.409523 3.786431,18.647639 3.7305907,16.713595 3.643098,14.826973 3.7456404,12.885979 3.9730069,10.913718 4.9064587,9.1702078 5.8378364,6.8210366 7.6209481,4.901704 9.7103683,3.5201563 11.742723,2.0893328 14.193854,1.3611324 16.667246,1.2646956 17.73927,1.132108 18.812095,1.399708 19.883459,1.4599074 17.6461,2.8441507 16.892581,6.1116896 18.385794,8.2995968 c 0.977562,1.5398822 2.83876,2.5176842 4.672788,2.2971402 2.182168,-0.119268 4.222841,-1.8962953 4.506295,-4.1022858 0.324889,-1.4013265 -0.101932,-2.9086294 -1.159492,-3.895675 -2.558431,-3.1123786 -6.30095,-5.2235812 -10.286297,-5.8150128 -1.787989,-0.3017648 -3.629252,-0.243918 -5.415243,0.062725 -1.736702,0.4937223 -3.4725629,1.0871137 -4.8731626,2.26972512 -1.801688,1.1728699 -3.2567492,2.79860898 -4.532054,4.51435538 -1.66335056,2.5153757 -3.0558032,5.232448 -3.8528485,8.1533541 -0.8990378,2.840832 -1.3823621,5.822262 -1.5144592,8.794832 -0.088436,1.875096 -0.041614,3.752524 0.1029813,5.625629 0.5260057,4.578886 1.6945521,9.160019 4.07199398,13.14592 0.84752246,1.636273 1.97764482,3.093632 3.27187772,4.399038 1.5638263,1.636952 3.4547036,2.995744 5.5638015,3.810867 1.6625468,0.628575 3.4271038,0.793087 5.1853918,0.854169 3.251223,0.340809 6.579836,-0.457295 9.436852,-1.99966 2.176364,-1.256458 4.054883,-3.025121 5.508239,-5.06981 1.622948,-2.399995 2.556924,-5.219848 2.694335,-8.113142 -0.461,-5.891126 -2.869323,-11.47357 -7.058238,-14.259038 z"
           id="path5292"
           inkscape:connector-curvature="0"
           sodipodi:nodetypes="cccccccccccccccccccccccccccc" />
        <path
           style="fill:none;stroke:#000000;stroke-width:0.30054495px;stroke-linecap:round;stroke-linejoin:round;stroke-miterlimit:4;stroke-dasharray:none;stroke-opacity:1"
           d="m 22.846425,35.639869 c -0.626118,2.866327 -2.360621,5.654146 -5.071067,6.959411 -2.316081,1.304415 -5.335737,1.043285 -7.457088,-0.529824 C 7.9105905,40.490351 6.53276,37.728273 6.0028383,34.963947 5.6901014,33.568181 5.7474387,32.106974 5.916122,30.698802 c 0.4532451,-2.863767 1.8388304,-5.639303 4.188252,-7.402844 2.201003,-1.658838 5.323041,-1.928911 7.761135,-0.619412 2.405347,1.217303 4.052388,3.654831 4.811046,6.197045 0.608092,2.188233 0.705291,4.555441 0.16987,6.766278 z"
           id="path5294"
           inkscape:connector-curvature="0"
           sodipodi:nodetypes="ccccccccc" />
        <path
           style="fill:none;stroke:#000000;stroke-width:0.30054495px;stroke-linecap:round;stroke-linejoin:round;stroke-miterlimit:4;stroke-dasharray:none;stroke-opacity:1"
           d="m 26.992015,39.953354 c 0.26927,0.944427 -1.086118,1.802507 -1.696294,0.924867 -0.413943,-1.50268 0.871769,-2.539797 1.696294,-0.924867 z"
           id="path5296"
           inkscape:connector-curvature="0"
           sodipodi:nodetypes="ccc" />
        <path
           style="fill:none;stroke:#000000;stroke-width:0.30054495px;stroke-linecap:round;stroke-linejoin:round;stroke-miterlimit:4;stroke-dasharray:none;stroke-opacity:1"
           d="M 2.7492925,6.7489713 C 2.0022756,6.3982929 2.1539469,5.0290285 3.0398717,4.9278531 5.2019579,4.9295462 3.8955438,7.4226567 2.7492925,6.7489713 Z"
           id="path5298"
           inkscape:connector-curvature="0"
           sodipodi:nodetypes="ccc" />
        <path
           style="fill:none;stroke:#1f1a17;stroke-width:0.30054495px;stroke-linecap:round;stroke-linejoin:round;stroke-miterlimit:4;stroke-dasharray:none;stroke-opacity:1"
           d="m 22.846425,35.639869 c -0.626118,2.866327 -2.360621,5.654146 -5.071067,6.959411 -2.316081,1.304415 -5.335737,1.043285 -7.457088,-0.529824 C 7.9105905,40.490351 6.53276,37.728273 6.0028383,34.963947 5.6901014,33.568181 5.7474387,32.106974 5.916122,30.698802 c 0.4532451,-2.863767 1.8388304,-5.639303 4.188252,-7.402844 2.201003,-1.658838 5.323041,-1.928911 7.761135,-0.619412 2.405347,1.217303 4.052388,3.654831 4.811046,6.197045 0.608092,2.188233 0.705291,4.555441 0.16987,6.766278 z"
           id="path5302"
           inkscape:connector-curvature="0"
           sodipodi:nodetypes="ccccccccc" />
      </g>
    </g>
  </g>
</svg>
