<?xml version="1.0" encoding="UTF-8" standalone="no"?>
<svg
   xmlns:dc="http://purl.org/dc/elements/1.1/"
   xmlns:cc="http://creativecommons.org/ns#"
   xmlns:rdf="http://www.w3.org/1999/02/22-rdf-syntax-ns#"
   xmlns:svg="http://www.w3.org/2000/svg"
   xmlns="http://www.w3.org/2000/svg"
   xmlns:sodipodi="http://sodipodi.sourceforge.net/DTD/sodipodi-0.dtd"
   xmlns:inkscape="http://www.inkscape.org/namespaces/inkscape"
   version="1.0"
   width="36.347397mm"
   height="52.323997mm"
   id="svg4860"
   inkscape:version="0.91 r"
   viewBox="0 0 36.347397 52.323997"
   sodipodi:docname="7.svg">
  <metadata
     id="metadata4881">
    <rdf:RDF>
      <cc:Work
         rdf:about="">
        <dc:format>image/svg+xml</dc:format>
        <dc:type
           rdf:resource="http://purl.org/dc/dcmitype/StillImage" />
        <dc:title></dc:title>
      </cc:Work>
    </rdf:RDF>
  </metadata>
  <sodipodi:namedview
     pagecolor="#005a00"
     bordercolor="#666666"
     borderopacity="1"
     objecttolerance="10"
     gridtolerance="10"
     guidetolerance="10"
     inkscape:pageopacity="0"
     inkscape:pageshadow="2"
     inkscape:window-width="1920"
     inkscape:window-height="1058"
     id="namedview4879"
     inkscape:document-units="mm"
     showgrid="false"
     inkscape:zoom="2.8284271"
     inkscape:cx="36.989271"
     inkscape:cy="88.883862"
     inkscape:window-x="1280"
     inkscape:window-y="0"
     inkscape:window-maximized="1"
     inkscape:current-layer="g5422" />
  <defs
     id="defs4862">
    <pattern
       id="WMFhbasepattern"
       patternUnits="userSpaceOnUse"
       width="6"
       height="6"
       x="0"
       y="0" />
    <pattern
       y="0"
       x="0"
       height="6"
       width="6"
       patternUnits="userSpaceOnUse"
       id="WMFhbasepattern-4" />
    <pattern
       y="0"
       x="0"
       height="6"
       width="6"
       patternUnits="userSpaceOnUse"
       id="WMFhbasepattern-5" />
    <pattern
       y="0"
       x="0"
       height="6"
       width="6"
       patternUnits="userSpaceOnUse"
       id="WMFhbasepattern-2" />
    <pattern
       y="0"
       x="0"
       height="6"
       width="6"
       patternUnits="userSpaceOnUse"
       id="WMFhbasepattern-1" />
  </defs>
  <g
     id="g5143"
     transform="translate(-14.637004,7.8341113)">
    <g
       id="g5225"
       transform="translate(61.50767,-10.657477)">
      <g
         id="g5313"
         transform="translate(-35.835943,6.2753121)">
        <g
           id="g5422"
           transform="translate(28.233988,-5.4517347)">
          <path
             style="fill:none;stroke:#000000;stroke-width:0.30014992px;stroke-linecap:round;stroke-linejoin:round;stroke-miterlimit:4;stroke-dasharray:none;stroke-opacity:1"
             d="M -6.277891,15.260925 C -3.4307136,11.889221 -0.66301049,8.4275224 1.581434,4.6179038 2.0979807,3.4420466 0.63911201,2.6084429 -0.38322006,2.84407 l -32.01436594,0 c -0.88619,0.1376107 -1.2539,0.948241 -1.508393,1.717866 -1.12856,2.6657484 -2.276899,5.3263702 -3.391892,7.995837 0.03522,0.893055 0.882427,1.50142 1.771537,1.437979 0.894615,-0.0025 1.670201,-0.64996 1.90498,-1.494855 0.344474,-0.937216 1.357459,-1.072164 2.222741,-0.953961 l 21.401307,0 c -2.795288,2.647694 -5.141379,5.717 -7.356705,8.851069 -2.005914,2.896151 -3.654976,6.014778 -5.095251,9.22628 -1.336712,2.764523 -2.17783,5.735421 -3.070571,8.660734 -0.901863,3.377917 -1.380947,6.855484 -1.754142,10.323512 0.01642,0.894098 -0.04545,2.215484 -1.195666,2.305193 -0.874687,-0.0721 -1.878848,-0.06589 -2.322823,0.844409 -0.612934,1.034017 -0.142649,2.629112 1.06043,2.957689 l 12.296245,0 c 1.31047,-0.570715 1.711742,-2.450215 0.577553,-3.395447 -0.747497,-0.925381 -2.355344,0.173864 -2.899353,-1.039381 -0.296572,-1.013338 0.158788,-2.103109 0.236507,-3.137862 0.972573,-6.56477 3.060702,-12.922537 5.719084,-18.98661 1.966674,-4.400666 4.4246758,-8.561293 7.2355426,-12.473748 0.09619,-0.140613 0.1923581,-0.281268 0.2885644,-0.421849 z"
             id="path5405"
             inkscape:connector-curvature="0"
             sodipodi:nodetypes="cccccccccccccccccccccccc" />
          <path
             style="fill:none;stroke:#000000;stroke-width:0.30014992px;stroke-linecap:round;stroke-linejoin:round;stroke-miterlimit:4;stroke-dasharray:none;stroke-opacity:1"
             d="m -18.789712,7.2362741 c -0.42103,-0.577695 -0.160641,-1.4795265 0.593768,-1.6042921 2.44799,0.096688 0.472292,2.7808609 -0.593768,1.6042921 z"
             id="path5407"
             inkscape:connector-curvature="0"
             sodipodi:nodetypes="ccc" />
          <path
             style="fill:none;stroke:#000000;stroke-width:0.30014992px;stroke-linecap:round;stroke-linejoin:round;stroke-miterlimit:4;stroke-dasharray:none;stroke-opacity:1"
             d="m -24.283756,47.786697 c -0.263154,-0.699332 0.24012,-1.547932 1.060402,-1.434822 2.122771,0.626335 -0.195259,2.741639 -1.060402,1.434822 z"
             id="path5409"
             inkscape:connector-curvature="0"
             sodipodi:nodetypes="ccc" />
        </g>
      </g>
    </g>
  </g>
</svg>
