<?xml version="1.0" encoding="UTF-8" standalone="no"?>
<svg
   xmlns:dc="http://purl.org/dc/elements/1.1/"
   xmlns:cc="http://creativecommons.org/ns#"
   xmlns:rdf="http://www.w3.org/1999/02/22-rdf-syntax-ns#"
   xmlns:svg="http://www.w3.org/2000/svg"
   xmlns="http://www.w3.org/2000/svg"
   xmlns:sodipodi="http://sodipodi.sourceforge.net/DTD/sodipodi-0.dtd"
   xmlns:inkscape="http://www.inkscape.org/namespaces/inkscape"
   version="1.0"
   width="36.347397mm"
   height="52.323997mm"
   id="svg4860"
   inkscape:version="0.91 r"
   viewBox="0 0 36.347397 52.323997"
   sodipodi:docname="8.svg">
  <metadata
     id="metadata4881">
    <rdf:RDF>
      <cc:Work
         rdf:about="">
        <dc:format>image/svg+xml</dc:format>
        <dc:type
           rdf:resource="http://purl.org/dc/dcmitype/StillImage" />
        <dc:title></dc:title>
      </cc:Work>
    </rdf:RDF>
  </metadata>
  <sodipodi:namedview
     pagecolor="#005a00"
     bordercolor="#666666"
     borderopacity="1"
     objecttolerance="10"
     gridtolerance="10"
     guidetolerance="10"
     inkscape:pageopacity="0"
     inkscape:pageshadow="2"
     inkscape:window-width="1920"
     inkscape:window-height="1058"
     id="namedview4879"
     inkscape:document-units="mm"
     showgrid="false"
     inkscape:zoom="2.8284271"
     inkscape:cx="80.350143"
     inkscape:cy="81.679218"
     inkscape:window-x="1280"
     inkscape:window-y="0"
     inkscape:window-maximized="1"
     inkscape:current-layer="g5520" />
  <defs
     id="defs4862">
    <pattern
       id="WMFhbasepattern"
       patternUnits="userSpaceOnUse"
       width="6"
       height="6"
       x="0"
       y="0" />
    <pattern
       y="0"
       x="0"
       height="6"
       width="6"
       patternUnits="userSpaceOnUse"
       id="WMFhbasepattern-4" />
    <pattern
       y="0"
       x="0"
       height="6"
       width="6"
       patternUnits="userSpaceOnUse"
       id="WMFhbasepattern-5" />
    <pattern
       y="0"
       x="0"
       height="6"
       width="6"
       patternUnits="userSpaceOnUse"
       id="WMFhbasepattern-2" />
    <pattern
       y="0"
       x="0"
       height="6"
       width="6"
       patternUnits="userSpaceOnUse"
       id="WMFhbasepattern-1" />
    <pattern
       y="0"
       x="0"
       height="6"
       width="6"
       patternUnits="userSpaceOnUse"
       id="WMFhbasepattern-3" />
  </defs>
  <g
     id="g5143"
     transform="translate(-14.637004,7.8341113)">
    <g
       id="g5225"
       transform="translate(61.50767,-10.657477)">
      <g
         id="g5313"
         transform="translate(-35.835943,6.2753121)">
        <g
           id="g5422"
           transform="translate(28.233988,-5.4517347)">
          <g
             id="g5520"
             transform="translate(-37.538937,13.83144)">
            <path
               style="fill:none;stroke:#000000;stroke-width:0.30054471px;stroke-linecap:round;stroke-linejoin:round;stroke-miterlimit:4;stroke-dasharray:none;stroke-opacity:1"
               d="m 19.472766,18.394182 c 1.556272,0.685064 2.935078,1.652004 4.19646,2.781201 1.534897,1.51352 2.805015,3.324999 3.588301,5.340308 -0.16172,1.521469 -0.28703,3.101704 -1.184455,4.400601 -1.052403,2.152784 -3.049026,3.736934 -5.229363,4.657423 -1.90969,0.762667 -4.036022,0.964257 -6.055548,0.675897 C 12.75993,35.874425 10.788804,35.055285 9.2615643,33.636084 7.822462,32.33022 6.7301704,30.607558 6.2684057,28.71646 5.9949864,27.240467 5.8372135,25.698802 6.328717,24.239737 c 0.8506737,-3.525029 3.831709,-6.390356 7.344147,-7.200617 1.464989,0.01291 2.89457,0.364629 4.306513,0.725716 0.505117,0.192891 1.001588,0.404799 1.493389,0.629346 z"
               id="path5495"
               inkscape:connector-curvature="0"
               sodipodi:nodetypes="cccccccccccc" />
            <path
               style="fill:none;stroke:#000000;stroke-width:0.30054471px;stroke-linecap:round;stroke-linejoin:round;stroke-miterlimit:4;stroke-dasharray:none;stroke-opacity:1"
               d="m 9.9925255,14.756535 c 1.3887685,0.340928 0.013371,0.568573 -0.6384433,0.862223 -2.6760514,0.98445 -5.0845793,2.702268 -6.8788265,4.920665 -1.54492628,1.820538 -2.52971279,4.088378 -2.66713997,6.481396 -0.11253367,1.5043 0.18234756,3.03187 0.64755024,4.458366 0.91983893,2.274647 2.39223553,4.339775 4.39529743,5.779254 1.8992124,1.680395 4.3619002,2.547401 6.7253436,3.362368 2.044673,0.470836 4.133947,0.820833 6.24212,0.700545 1.9836,0.0048 3.972727,-0.377672 5.867558,-0.938971 2.371349,-0.832715 4.713112,-1.898375 6.59827,-3.592285 1.999913,-1.735202 3.530489,-4.082533 4.165969,-6.666456 0.497863,-2.317151 0.212573,-4.818801 -0.786473,-6.964156 -0.791205,-1.768328 -2.044166,-3.250649 -3.471822,-4.539131 -1.175417,-1.087908 -2.618742,-1.846228 -4.014479,-2.605807 -0.787822,-0.329767 -1.60419,-0.58465 -2.389253,-0.921659 1.422102,-0.615101 2.650924,-1.644547 3.804048,-2.654691 1.377678,-1.32681 2.442188,-2.9367251 3.101096,-4.7359311 0.546464,-1.35955 0.81311,-2.859977 0.882754,-4.325327 0.124429,-2.56257505 -0.666264,-5.1364941 -1.997606,-7.3009206 -1.023261,-1.6114185 -2.316503,-3.0616383 -3.96019,-4.0644534 -3.816706,-2.7808969 -9.034896,-3.3361169 -13.43843,-1.7359299 -2.3652855,0.8646338 -4.5491848,2.3286452 -6.1572235,4.2734956 -1.8421762,2.171098 -2.9583601,4.91980825 -3.0788966,7.7653193 -0.2271122,3.214087 0.8918155,6.484063 2.9413687,8.9691841 1.084971,1.467389 2.591904,2.498355 4.1074079,3.472902 z"
               id="path5497"
               inkscape:connector-curvature="0"
               sodipodi:nodetypes="ccccccccccccccccccccccccc" />
            <path
               style="fill:none;stroke:#000000;stroke-width:0.30054471px;stroke-linecap:round;stroke-linejoin:round;stroke-miterlimit:4;stroke-dasharray:none;stroke-opacity:1"
               d="m 10.077475,2.4881089 c -0.5723644,-0.815682 -0.1471685,-1.80415805 -0.0061,-2.69512205 0.629752,-1.95274865 2.175904,-3.48537015 3.961814,-4.42868165 2.211456,-0.9904325 4.737418,-1.3391827 7.08419,-0.6304234 2.037101,0.4353506 3.83872,1.7549916 5.039242,3.4372429 0.704985,1.30865915 1.286816,2.76282415 1.015971,4.2706462 -0.165362,1.901222 -1.270042,3.661847 -2.802064,4.779961 -0.993301,0.868614 -2.266688,1.333452 -3.501473,1.692859 -2.929467,0.164373 -5.940843,-0.705126 -8.140806,-2.692464 -1.087185,-1.055721 -2.116169,-2.304527 -2.650759,-3.734018 z"
               id="path5499"
               inkscape:connector-curvature="0"
               sodipodi:nodetypes="ccccccccccc" />
            <path
               style="fill:none;stroke:#000000;stroke-width:0.30054471px;stroke-linecap:round;stroke-linejoin:round;stroke-miterlimit:4;stroke-dasharray:none;stroke-opacity:1"
               d="m 27.43067,35.907201 c -1.059619,0.08134 -1.347838,-1.640382 -0.308372,-1.898019 1.248489,-0.538644 1.730915,2.044539 0.308372,1.898019 z"
               id="path5501"
               inkscape:connector-curvature="0"
               sodipodi:nodetypes="ccc" />
            <path
               style="fill:none;stroke:#000000;stroke-width:0.30054471px;stroke-linecap:round;stroke-linejoin:round;stroke-miterlimit:4;stroke-dasharray:none;stroke-opacity:1"
               d="m 8.7217635,-3.0109909 c -0.1536121,0.9703926 -1.7216792,1.0312411 -1.9184723,0.057073 0.2919582,-1.5408238 2.0298869,-1.8784149 1.9184723,-0.057073 z"
               id="path5503"
               inkscape:connector-curvature="0"
               sodipodi:nodetypes="ccc" />
          </g>
        </g>
      </g>
    </g>
  </g>
</svg>
