<?xml version="1.0" encoding="UTF-8" standalone="no"?>
<svg
   xmlns:dc="http://purl.org/dc/elements/1.1/"
   xmlns:cc="http://creativecommons.org/ns#"
   xmlns:rdf="http://www.w3.org/1999/02/22-rdf-syntax-ns#"
   xmlns:svg="http://www.w3.org/2000/svg"
   xmlns="http://www.w3.org/2000/svg"
   xmlns:sodipodi="http://sodipodi.sourceforge.net/DTD/sodipodi-0.dtd"
   xmlns:inkscape="http://www.inkscape.org/namespaces/inkscape"
   version="1.0"
   width="36.347397mm"
   height="52.323997mm"
   id="svg4860"
   inkscape:version="0.91 r"
   viewBox="0 0 36.347397 52.323997"
   sodipodi:docname="9.svg">
  <metadata
     id="metadata4881">
    <rdf:RDF>
      <cc:Work
         rdf:about="">
        <dc:format>image/svg+xml</dc:format>
        <dc:type
           rdf:resource="http://purl.org/dc/dcmitype/StillImage" />
        <dc:title></dc:title>
      </cc:Work>
    </rdf:RDF>
  </metadata>
  <sodipodi:namedview
     pagecolor="#005a00"
     bordercolor="#666666"
     borderopacity="1"
     objecttolerance="10"
     gridtolerance="10"
     guidetolerance="10"
     inkscape:pageopacity="0"
     inkscape:pageshadow="2"
     inkscape:window-width="1920"
     inkscape:window-height="1058"
     id="namedview4879"
     inkscape:document-units="mm"
     showgrid="false"
     inkscape:zoom="4"
     inkscape:cx="41.365738"
     inkscape:cy="96.335026"
     inkscape:window-x="1280"
     inkscape:window-y="0"
     inkscape:window-maximized="1"
     inkscape:current-layer="g5620" />
  <defs
     id="defs4862">
    <pattern
       id="WMFhbasepattern"
       patternUnits="userSpaceOnUse"
       width="6"
       height="6"
       x="0"
       y="0" />
    <pattern
       y="0"
       x="0"
       height="6"
       width="6"
       patternUnits="userSpaceOnUse"
       id="WMFhbasepattern-4" />
    <pattern
       y="0"
       x="0"
       height="6"
       width="6"
       patternUnits="userSpaceOnUse"
       id="WMFhbasepattern-5" />
    <pattern
       y="0"
       x="0"
       height="6"
       width="6"
       patternUnits="userSpaceOnUse"
       id="WMFhbasepattern-2" />
    <pattern
       y="0"
       x="0"
       height="6"
       width="6"
       patternUnits="userSpaceOnUse"
       id="WMFhbasepattern-1" />
    <pattern
       y="0"
       x="0"
       height="6"
       width="6"
       patternUnits="userSpaceOnUse"
       id="WMFhbasepattern-3" />
    <pattern
       y="0"
       x="0"
       height="6"
       width="6"
       patternUnits="userSpaceOnUse"
       id="WMFhbasepattern-37" />
  </defs>
  <g
     id="g5143"
     transform="translate(-14.637004,7.8341113)">
    <g
       id="g5225"
       transform="translate(61.50767,-10.657477)">
      <g
         id="g5313"
         transform="translate(-35.835943,6.2753121)">
        <g
           id="g5422"
           transform="translate(28.233988,-5.4517347)">
          <g
             id="g5520"
             transform="translate(-37.538937,13.83144)">
            <g
               id="g5620"
               transform="translate(13.062263,6.8739472)">
              <path
                 style="fill:none;stroke:#000000;stroke-width:0.2995736px;stroke-linecap:round;stroke-linejoin:round;stroke-miterlimit:4;stroke-dasharray:none;stroke-opacity:1"
                 d="m -2.4205835,3.6778331 c -0.7216352,-1.7339537 -1.259325,-3.56743947 -1.2256685,-5.4583207 0.013716,-1.6854164 0.2344942,-3.4464868 0.9159293,-5.0069498 0.908921,-2.183294 2.45164342,-4.1797636 4.6460892,-5.1843666 1.898477,-0.949676 4.2274835,-0.941855 6.158506,-0.08527 2.6862285,1.321205 4.4910765,3.9427462 5.2805035,6.7755312 0.361115,1.6412536 0.548872,3.3412108 0.265115,5.01922477 C 13.518737,0.98444589 13.148833,2.200058 12.644988,3.3414316 11.596592,5.5412796 9.859554,7.5458126 7.5055489,8.3436545 4.7046391,9.5356692 1.3027644,8.4081883 -0.63252369,6.174404 -1.2957037,5.3958958 -1.9221252,4.5722718 -2.4205835,3.6778331 Z"
                 id="path5599"
                 inkscape:connector-curvature="0"
                 sodipodi:nodetypes="ccccccccccc" />
              <path
                 style="fill:none;stroke:#000000;stroke-width:0.2995736px;stroke-linecap:round;stroke-linejoin:round;stroke-miterlimit:4;stroke-dasharray:none;stroke-opacity:1"
                 d="m 11.968714,12.471228 c 1.050912,-0.685758 2.145624,-1.309786 3.047831,-2.196818 0.657555,1.959729 0.96343,4.025194 0.846557,6.092278 -0.144272,4.519532 -2.747799,8.860192 -6.6732355,11.112433 -2.7922281,1.794333 -6.2711088,2.09303 -9.49389697,1.657611 1.65771817,-1.143329 2.58021077,-3.262451 2.07480517,-5.239216 -0.3726458,-1.947291 -2.01791636,-3.508013 -3.964815,-3.831019 -1.7179099,-0.282308 -3.589357,0.292475 -4.7267203,1.641873 -0.7834543,0.997667 -1.3414649,2.234098 -1.1689319,3.536247 -0.029208,1.833196 1.5806269,3.072419 2.7059467,4.318564 1.9914153,1.953463 4.58667744,3.147819 7.2365385,3.914467 2.8230575,0.597948 5.8434018,0.80044 8.5843523,-0.2679 1.896372,-0.652425 3.613433,-1.812541 5.097614,-3.149221 1.170665,-1.195186 2.335055,-2.4057 3.158479,-3.875568 2.224892,-3.202872 3.473082,-6.953816 4.251354,-10.745516 0.422596,-1.887747 0.563104,-3.831922 0.704179,-5.7572627 0.04034,-2.080014 0.0048,-4.1577158 -0.299374,-6.217498 -0.41292,-3.59575587 -1.440339,-7.131212 -2.954055,-10.4174757 -1.795935,-3.5025496 -4.22424,-6.8347496 -7.684784,-8.8406906 -1.745131,-0.983369 -3.6630248,-1.720748 -5.6906063,-1.776109 -2.9350178,-0.42739 -5.9905889,-0.299186 -8.7670103,0.82167 -2.3522293,0.960476 -4.5729895,2.303352 -6.2835043,4.208678 -1.4585185,1.553514 -2.5356231,3.4366061 -3.2918561,5.4153687 -0.674676,2.0749372 -1.152994,4.255773 -0.91571,6.44408913 0.08986,2.40642007 0.867044,4.74973627 1.943971,6.89276727 1.1309056,1.7741433 2.388376,3.5023315 4.1214902,4.7330999 1.3638277,1.194071 3.0616976,1.951014 4.7120806,2.643773 1.89201744,0.616789 3.8515192,1.060776 5.8549112,0.915356 2.6492231,-0.04408 5.2555692,-0.752591 7.57439,-2.033981 z"
                 id="path5601"
                 inkscape:connector-curvature="0"
                 sodipodi:nodetypes="ccccccccccccccccccccccccccccc" />
              <path
                 style="fill:none;stroke:#000000;stroke-width:0.2995736px;stroke-linecap:round;stroke-linejoin:round;stroke-miterlimit:4;stroke-dasharray:none;stroke-opacity:1"
                 d="m 16.286432,23.724839 c 1.058103,-0.07631 1.337665,1.642047 0.302745,1.901116 -1.51364,0.01466 -1.944818,-1.849235 -0.302745,-1.901116 z"
                 id="path5603"
                 inkscape:connector-curvature="0"
                 sodipodi:nodetypes="ccc" />
              <path
                 style="fill:none;stroke:#000000;stroke-width:0.2995736px;stroke-linecap:round;stroke-linejoin:round;stroke-miterlimit:4;stroke-dasharray:none;stroke-opacity:1"
                 d="m -7.2463299,-8.9296266 c -0.8642521,-0.7583069 0.5644839,-2.1099704 1.3578557,-1.3538204 1.2771838,1.1967132 -0.7722544,2.244324 -1.3578557,1.3538204 z"
                 id="path5605"
                 inkscape:connector-curvature="0"
                 sodipodi:nodetypes="ccc" />
              <path
                 style="fill:none;stroke:#1f1a17;stroke-width:0.2995736px;stroke-linecap:round;stroke-linejoin:round;stroke-miterlimit:4;stroke-dasharray:none;stroke-opacity:1"
                 d="m -2.4205835,3.6778331 c -0.7216352,-1.7339537 -1.259325,-3.56743947 -1.2256685,-5.4583207 0.013716,-1.6854164 0.2344942,-3.4464868 0.9159293,-5.0069498 0.908921,-2.183294 2.45164342,-4.1797636 4.6460892,-5.1843666 1.898477,-0.949676 4.2274835,-0.941855 6.158506,-0.08527 2.6862285,1.321205 4.4910765,3.9427462 5.2805035,6.7755312 0.361115,1.6412536 0.548872,3.3412108 0.265115,5.01922477 C 13.518737,0.98444589 13.148833,2.200058 12.644988,3.3414316 11.596592,5.5412796 9.859554,7.5458126 7.5055489,8.3436545 4.7046391,9.5356692 1.3027644,8.4081883 -0.63252369,6.174404 -1.2957037,5.3958958 -1.9221252,4.5722718 -2.4205835,3.6778331 Z"
                 id="path5607"
                 inkscape:connector-curvature="0"
                 sodipodi:nodetypes="ccccccccccc" />
            </g>
          </g>
        </g>
      </g>
    </g>
  </g>
</svg>
