<?xml version="1.0" encoding="UTF-8" standalone="no"?>
<!-- Created with Inkscape (http://www.inkscape.org/) -->

<svg
   xmlns:dc="http://purl.org/dc/elements/1.1/"
   xmlns:cc="http://creativecommons.org/ns#"
   xmlns:rdf="http://www.w3.org/1999/02/22-rdf-syntax-ns#"
   xmlns:svg="http://www.w3.org/2000/svg"
   xmlns="http://www.w3.org/2000/svg"
   xmlns:sodipodi="http://sodipodi.sourceforge.net/DTD/sodipodi-0.dtd"
   xmlns:inkscape="http://www.inkscape.org/namespaces/inkscape"
   width="210mm"
   height="297mm"
   viewBox="0 0 744.09448819 1052.3622047"
   id="svg2"
   version="1.1"
   inkscape:version="0.91 r"
   sodipodi:docname="Ð.svg">
  <defs
     id="defs4">
    <pattern
       y="0"
       x="0"
       height="6"
       width="6"
       patternUnits="userSpaceOnUse"
       id="WMFhbasepattern" />
  </defs>
  <sodipodi:namedview
     id="base"
     pagecolor="#004d00"
     bordercolor="#666666"
     borderopacity="1.0"
     inkscape:pageopacity="0"
     inkscape:pageshadow="2"
     inkscape:zoom="0.49497475"
     inkscape:cx="331.89992"
     inkscape:cy="693.87354"
     inkscape:document-units="px"
     inkscape:current-layer="g3448"
     showgrid="false"
     inkscape:window-width="1920"
     inkscape:window-height="1080"
     inkscape:window-x="1280"
     inkscape:window-y="0"
     inkscape:window-maximized="1" />
  <metadata
     id="metadata7">
    <rdf:RDF>
      <cc:Work
         rdf:about="">
        <dc:format>image/svg+xml</dc:format>
        <dc:type
           rdf:resource="http://purl.org/dc/dcmitype/StillImage" />
        <dc:title></dc:title>
      </cc:Work>
    </rdf:RDF>
  </metadata>
  <g
     inkscape:label="Layer 1"
     inkscape:groupmode="layer"
     id="layer1">
    <g
       id="g3448"
       transform="matrix(16.554095,0,0,16.554095,42.598354,31.585911)">
      <path
         style="fill:none;stroke:#1f1a17;stroke-width:0.351309px;stroke-linecap:round;stroke-linejoin:round;stroke-miterlimit:4;stroke-dasharray:none;stroke-opacity:1"
         d="M 42.299237,53.646085 C 40.939384,53.712513 39.992311,52.52671 39.738201,51.297881 34.056348,36.513806 28.430969,21.704438 22.713893,6.9361391 21.798683,5.1146243 18.797744,5.337233 18.182633,7.2874381 12.358204,22.451427 6.5828057,37.637091 0.72778127,52.787554 c -0.8223137,1.346717 -2.60541487,0.712006 -3.88716617,0.85541 -1.8736843,0 -2.2737845,2.965297 -0.575754,3.60397 1.8474786,0.269817 3.76207357,0.03545 5.6345088,0.11403 1.6280188,-0.0782 3.2984778,0.155393 4.9014858,-0.11403 1.69978,-0.636061 1.301142,-3.601983 -0.57248,-3.60397 -1.2329664,0.252626 0.05265,-1.283505 0.05828,-1.910559 1.004645,-2.756644 1.862746,-5.582559 2.957134,-8.296855 0.8022753,-0.862852 2.1442553,-0.265752 3.1745743,-0.44228 4.913151,0.02194 9.833508,-0.04368 14.742203,0.03245 1.142509,0.42901 1.037235,1.962064 1.558378,2.893587 l 2.758214,7.723617 c -1.344756,-0.326771 -2.603834,1.000547 -2.225061,2.3224 0.198556,1.150852 1.447226,1.595055 2.483805,1.3956 3.988795,-0.03974 7.992005,0.07911 11.971923,-0.05872 1.804741,-0.478481 1.570434,-3.551847 -0.32851,-3.65618 -0.359881,-0.0068 -0.720182,0.0011 -1.080074,6.1e-5 z"
         id="path3429"
         inkscape:connector-curvature="0"
         sodipodi:nodetypes="cccccccccccccccccccccc" />
      <path
         style="fill:none;stroke:#1f1a17;stroke-width:0.351309px;stroke-linecap:round;stroke-linejoin:round;stroke-miterlimit:4;stroke-dasharray:none;stroke-opacity:1"
         d="m 18.546964,19.706605 c 2.512798,6.385397 5.026137,12.770581 7.540018,19.155551 l -15.076904,0 C 13.524435,32.477783 16.036729,26.0926 18.546964,19.706605 Z"
         id="path3433"
         inkscape:connector-curvature="0"
         sodipodi:nodetypes="cccc" />
      <path
         style="fill:none;stroke:#1f1a17;stroke-width:0.351309px;stroke-linecap:round;stroke-linejoin:round;stroke-miterlimit:4;stroke-dasharray:none;stroke-opacity:1"
         d="m 19.539146,13.545807 c -0.245852,-1.173071 1.645036,-1.606101 1.94198,-0.448874 0.238511,1.335733 -1.813857,1.592211 -1.94198,0.448874 z"
         id="path3437"
         inkscape:connector-curvature="0"
         sodipodi:nodetypes="ccc" />
      <path
         style="fill:none;stroke:#1f1a17;stroke-width:0.351309px;stroke-linecap:round;stroke-linejoin:round;stroke-miterlimit:4;stroke-dasharray:none;stroke-opacity:1"
         d="m 34.300446,50.07145 c -0.243178,-1.171742 1.646992,-1.606234 1.94198,-0.44901 0.157751,1.24713 -1.761894,1.571991 -1.94198,0.44901 z"
         id="path3441"
         inkscape:connector-curvature="0"
         sodipodi:nodetypes="ccc" />
    </g>
  </g>
</svg>
