<?xml version="1.0" encoding="UTF-8" standalone="no"?>
<!-- Created with Inkscape (http://www.inkscape.org/) -->

<svg
   xmlns:dc="http://purl.org/dc/elements/1.1/"
   xmlns:cc="http://creativecommons.org/ns#"
   xmlns:rdf="http://www.w3.org/1999/02/22-rdf-syntax-ns#"
   xmlns:svg="http://www.w3.org/2000/svg"
   xmlns="http://www.w3.org/2000/svg"
   xmlns:sodipodi="http://sodipodi.sourceforge.net/DTD/sodipodi-0.dtd"
   xmlns:inkscape="http://www.inkscape.org/namespaces/inkscape"
   width="210mm"
   height="297mm"
   viewBox="0 0 744.09448819 1052.3622047"
   id="svg2"
   version="1.1"
   inkscape:version="0.91 r"
   sodipodi:docname="Б.svg">
  <defs
     id="defs4">
    <pattern
       y="0"
       x="0"
       height="6"
       width="6"
       patternUnits="userSpaceOnUse"
       id="WMFhbasepattern" />
    <pattern
       y="0"
       x="0"
       height="6"
       width="6"
       patternUnits="userSpaceOnUse"
       id="WMFhbasepattern-4" />
  </defs>
  <sodipodi:namedview
     id="base"
     pagecolor="#004d00"
     bordercolor="#666666"
     borderopacity="1.0"
     inkscape:pageopacity="0"
     inkscape:pageshadow="2"
     inkscape:zoom="0.7"
     inkscape:cx="-33.263849"
     inkscape:cy="483.54619"
     inkscape:document-units="px"
     inkscape:current-layer="g3548"
     showgrid="false"
     inkscape:window-width="1920"
     inkscape:window-height="1080"
     inkscape:window-x="1280"
     inkscape:window-y="0"
     inkscape:window-maximized="1" />
  <metadata
     id="metadata7">
    <rdf:RDF>
      <cc:Work
         rdf:about="">
        <dc:format>image/svg+xml</dc:format>
        <dc:type
           rdf:resource="http://purl.org/dc/dcmitype/StillImage" />
        <dc:title></dc:title>
      </cc:Work>
    </rdf:RDF>
  </metadata>
  <g
     inkscape:label="Layer 1"
     inkscape:groupmode="layer"
     id="layer1">
    <g
       id="g3448"
       transform="matrix(16.554095,0,0,16.554095,42.598354,31.585911)">
      <g
         id="g3548"
         transform="matrix(0.21404414,0,0,0.21404413,6.7023228,20.087852)">
        <path
           style="fill:none;stroke:#1f1a17;stroke-width:1.6979785px;stroke-linecap:round;stroke-linejoin:round;stroke-miterlimit:4;stroke-dasharray:none;stroke-opacity:1"
           d="m -38.886298,176.659 c 41.7045804,-0.12625 83.421895,0.25307 125.118519,-0.19066 31.300089,-1.61343 59.994799,-25.29121 66.955749,-55.94097 C 160.43144,92.307242 148.34711,60.66132 124.39779,44.166798 109.78072,33.412756 91.272335,29.397535 73.362938,30.367953 l -66.325191,-0.12674 0,-83.384529 c 31.178904,0.157921 62.381317,-0.31618 93.545583,0.237626 14.30776,1.535756 26.97279,11.564473 32.34089,24.815496 3.44804,5.604594 14.88761,6.417196 16.0479,-1.31738 -0.22815,-6.840648 -4.8335,-12.643531 -6.9745,-19.014759 -3.66504,-7.742494 -6.44848,-16.021941 -10.62967,-23.451551 -4.06719,-2.955118 -9.70612,-0.689857 -14.39243,-1.399713 -52.350098,0.07354 -104.717722,-0.146982 -157.056875,0.1101 -9.137074,1.756937 -8.614317,17.522101 0.786231,18.321861 7.011954,-1.406541 11.881847,6.004959 11.036823,12.335749 -0.06296,63.948441 0.125892,127.905178 -0.09437,191.848437 -0.318966,5.74074 -5.508487,10.58062 -11.366956,9.38908 -9.971178,1.34491 -9.386608,17.64221 0.833329,17.92737 z"
           id="path3529"
           inkscape:connector-curvature="0"
           sodipodi:nodetypes="ccccccccccccccccccc" />
        <path
           style="fill:none;stroke:#1f1a17;stroke-width:1.6979785px;stroke-linecap:round;stroke-linejoin:round;stroke-miterlimit:4;stroke-dasharray:none;stroke-opacity:1"
           d="m 7.037747,51.425443 c 19.982954,0.223454 40.001177,-0.452021 59.962135,0.346324 24.592417,2.230635 46.256278,23.405768 47.475308,48.346873 2.07145,24.17559 -15.589277,47.54062 -38.882179,53.46103 -13.681677,3.57672 -27.981246,1.40681 -41.943229,2.00506 l -26.5806672,0 C 7.0586723,120.86497 7.0481225,86.145179 7.037747,51.425443 Z"
           id="path3533"
           inkscape:connector-curvature="0"
           sodipodi:nodetypes="ccccccc" />
        <path
           style="fill:none;stroke:#1f1a17;stroke-width:1.6979785px;stroke-linecap:round;stroke-linejoin:round;stroke-miterlimit:4;stroke-dasharray:none;stroke-opacity:1"
           d="m -18.227594,-34.664161 c -2.101181,-4.81679 5.152249,-8.963959 8.2540696,-4.733826 3.4282846,6.008962 -6.3670276,9.932553 -8.2540696,4.733826 z"
           id="path3537"
           inkscape:connector-curvature="0"
           sodipodi:nodetypes="ccc" />
        <path
           style="fill:none;stroke:#1f1a17;stroke-width:1.6979785px;stroke-linecap:round;stroke-linejoin:round;stroke-miterlimit:4;stroke-dasharray:none;stroke-opacity:1"
           d="m 113.31854,143.38086 c -2.10192,-4.81605 5.15174,-8.96396 8.2539,-4.73394 3.42786,6.00924 -6.36741,9.93315 -8.2539,4.73394 z"
           id="path3541"
           inkscape:connector-curvature="0"
           sodipodi:nodetypes="ccc" />
      </g>
    </g>
  </g>
</svg>
