<?xml version="1.0" encoding="UTF-8" standalone="no"?>
<!-- Created with Inkscape (http://www.inkscape.org/) -->

<svg
   xmlns:dc="http://purl.org/dc/elements/1.1/"
   xmlns:cc="http://creativecommons.org/ns#"
   xmlns:rdf="http://www.w3.org/1999/02/22-rdf-syntax-ns#"
   xmlns:svg="http://www.w3.org/2000/svg"
   xmlns="http://www.w3.org/2000/svg"
   xmlns:sodipodi="http://sodipodi.sourceforge.net/DTD/sodipodi-0.dtd"
   xmlns:inkscape="http://www.inkscape.org/namespaces/inkscape"
   width="210mm"
   height="297mm"
   viewBox="0 0 744.09448819 1052.3622047"
   id="svg2"
   version="1.1"
   inkscape:version="0.91 r"
   sodipodi:docname="В.svg">
  <defs
     id="defs4">
    <pattern
       y="0"
       x="0"
       height="6"
       width="6"
       patternUnits="userSpaceOnUse"
       id="WMFhbasepattern" />
    <pattern
       y="0"
       x="0"
       height="6"
       width="6"
       patternUnits="userSpaceOnUse"
       id="WMFhbasepattern-4" />
    <pattern
       y="0"
       x="0"
       height="6"
       width="6"
       patternUnits="userSpaceOnUse"
       id="WMFhbasepattern-0" />
  </defs>
  <sodipodi:namedview
     id="base"
     pagecolor="#004d00"
     bordercolor="#666666"
     borderopacity="1.0"
     inkscape:pageopacity="0"
     inkscape:pageshadow="2"
     inkscape:zoom="0.7"
     inkscape:cx="264.51587"
     inkscape:cy="552.75055"
     inkscape:document-units="px"
     inkscape:current-layer="g3633"
     showgrid="false"
     inkscape:window-width="1920"
     inkscape:window-height="1080"
     inkscape:window-x="1280"
     inkscape:window-y="0"
     inkscape:window-maximized="1" />
  <metadata
     id="metadata7">
    <rdf:RDF>
      <cc:Work
         rdf:about="">
        <dc:format>image/svg+xml</dc:format>
        <dc:type
           rdf:resource="http://purl.org/dc/dcmitype/StillImage" />
        <dc:title></dc:title>
      </cc:Work>
    </rdf:RDF>
  </metadata>
  <g
     inkscape:label="Layer 1"
     inkscape:groupmode="layer"
     id="layer1">
    <g
       id="g3448"
       transform="matrix(16.554095,0,0,16.554095,42.598354,31.585911)">
      <g
         id="g3548"
         transform="matrix(0.21404414,0,0,0.21404413,6.7023228,20.087852)">
        <g
           id="g3633"
           transform="matrix(5.6402548,0,0,5.6402548,-67.391846,-96.267969)">
          <path
             style="fill:none;stroke:#1f1a17;stroke-width:0.35143581px;stroke-linecap:round;stroke-linejoin:round;stroke-miterlimit:4;stroke-dasharray:none;stroke-opacity:1"
             d="M 24.620022,0.1756506 C 16.919806,0.20177183 9.2116485,0.12347278 1.5163791,0.2146845 c -1.85875285,0.45943673 -1.63930003,3.717717 0.32866,3.7764797 1.4847341,-0.2656194 2.395251,1.382238 2.1997139,2.6779108 -0.013006,13.183085 0.026007,26.367882 -0.0195,39.549897 -0.066145,1.188003 -1.1407013,2.188554 -2.3526799,1.941743 -1.84043332,0.202004 -2.00859091,3.178854 -0.244053,3.64968 3.8400187,0.137527 7.7032283,0.0192 11.5521069,0.05872 4.987067,-0.04015 9.979401,0.08129 14.96315,-0.0625 C 33.929562,51.31279 38.992392,46.476798 40.369721,40.726656 42.03262,34.529145 39.552668,27.350807 34.096804,23.843546 33.558299,23.375536 32.087195,23.121638 33.274544,22.493499 36.82183,19.321736 38.597112,14.147894 37.202006,9.5244936 35.844557,4.4454672 31.070659,0.58337341 25.835962,0.23304425 25.432573,0.19252456 25.024784,0.1991436 24.620022,0.1756506 Z"
             id="path3610"
             inkscape:connector-curvature="0"
             sodipodi:nodetypes="ccccccccccccccc" />
          <path
             style="fill:none;stroke:#1f1a17;stroke-width:0.35143581px;stroke-linecap:round;stroke-linejoin:round;stroke-miterlimit:4;stroke-dasharray:none;stroke-opacity:1"
             d="m 11.350075,25.967013 c 4.110341,0.04742 8.228713,-0.09553 12.334079,0.07253 5.02724,0.515036 9.040604,5.154733 9.188239,10.144455 0.343089,5.004717 -3.201131,10.039725 -8.170581,11.077072 -2.69388,0.488036 -5.455538,0.147485 -8.178681,0.249071 l -5.166537,0 c -0.0022,-7.181039 -0.0043,-14.362113 -0.0065,-21.543131 z"
             id="path3614"
             inkscape:connector-curvature="0"
             sodipodi:nodetypes="cccccccc" />
          <path
             style="fill:none;stroke:#1f1a17;stroke-width:0.35143581px;stroke-linecap:round;stroke-linejoin:round;stroke-miterlimit:4;stroke-dasharray:none;stroke-opacity:1"
             d="m 32.572959,7.3057691 c 1.021937,-0.444177 1.869702,1.1246458 0.94037,1.736966 -1.248944,0.6210494 -1.901115,-1.159519 -0.94037,-1.736966 z"
             id="path3618"
             inkscape:connector-curvature="0"
             sodipodi:nodetypes="ccc" />
          <path
             style="fill:none;stroke:#1f1a17;stroke-width:0.35143581px;stroke-linecap:round;stroke-linejoin:round;stroke-miterlimit:4;stroke-dasharray:none;stroke-opacity:1"
             d="m 7.9561267,43.590633 c 1.0770712,-0.06465 1.3783833,1.623969 0.344904,1.9355 -1.3326889,0.29424 -1.8683759,-1.619946 -0.344904,-1.9355 z"
             id="path3622"
             inkscape:connector-curvature="0"
             sodipodi:nodetypes="ccc" />
          <path
             style="fill:none;stroke:#1f1a17;stroke-width:0.35143581px;stroke-linecap:round;stroke-linejoin:round;stroke-miterlimit:4;stroke-dasharray:none;stroke-opacity:1"
             d="m 22.462603,21.605014 -11.112528,-0.01953 0,-17.2462609 c 3.978694,0.043612 7.967197,-0.08779 11.939746,0.066704 3.581182,0.5949619 5.717697,4.2948893 5.944453,7.6846679 0.330603,3.672018 -1.381434,7.947138 -5.069815,9.244442 -0.550747,0.174299 -1.123427,0.272669 -1.701856,0.269977 z"
             id="path3626"
             inkscape:connector-curvature="0"
             sodipodi:nodetypes="ccccccc" />
        </g>
      </g>
    </g>
  </g>
</svg>
