<?xml version="1.0" encoding="UTF-8" standalone="no"?>
<!-- Created with Inkscape (http://www.inkscape.org/) -->

<svg
   xmlns:dc="http://purl.org/dc/elements/1.1/"
   xmlns:cc="http://creativecommons.org/ns#"
   xmlns:rdf="http://www.w3.org/1999/02/22-rdf-syntax-ns#"
   xmlns:svg="http://www.w3.org/2000/svg"
   xmlns="http://www.w3.org/2000/svg"
   xmlns:sodipodi="http://sodipodi.sourceforge.net/DTD/sodipodi-0.dtd"
   xmlns:inkscape="http://www.inkscape.org/namespaces/inkscape"
   width="210mm"
   height="297mm"
   viewBox="0 0 744.09448819 1052.3622047"
   id="svg2"
   version="1.1"
   inkscape:version="0.91 r"
   sodipodi:docname="Г.svg">
  <defs
     id="defs4">
    <pattern
       y="0"
       x="0"
       height="6"
       width="6"
       patternUnits="userSpaceOnUse"
       id="WMFhbasepattern" />
    <pattern
       y="0"
       x="0"
       height="6"
       width="6"
       patternUnits="userSpaceOnUse"
       id="WMFhbasepattern-4" />
    <pattern
       y="0"
       x="0"
       height="6"
       width="6"
       patternUnits="userSpaceOnUse"
       id="WMFhbasepattern-0" />
    <pattern
       y="0"
       x="0"
       height="6"
       width="6"
       patternUnits="userSpaceOnUse"
       id="WMFhbasepattern-2" />
  </defs>
  <sodipodi:namedview
     id="base"
     pagecolor="#004d00"
     bordercolor="#666666"
     borderopacity="1.0"
     inkscape:pageopacity="0"
     inkscape:pageshadow="2"
     inkscape:zoom="1.4"
     inkscape:cx="252.3062"
     inkscape:cy="347.84432"
     inkscape:document-units="px"
     inkscape:current-layer="g3707"
     showgrid="false"
     inkscape:window-width="1920"
     inkscape:window-height="1080"
     inkscape:window-x="1280"
     inkscape:window-y="0"
     inkscape:window-maximized="1" />
  <metadata
     id="metadata7">
    <rdf:RDF>
      <cc:Work
         rdf:about="">
        <dc:format>image/svg+xml</dc:format>
        <dc:type
           rdf:resource="http://purl.org/dc/dcmitype/StillImage" />
        <dc:title></dc:title>
      </cc:Work>
    </rdf:RDF>
  </metadata>
  <g
     inkscape:label="Layer 1"
     inkscape:groupmode="layer"
     id="layer1">
    <g
       id="g3448"
       transform="matrix(16.554095,0,0,16.554095,42.598354,31.585911)">
      <g
         id="g3548"
         transform="matrix(0.21404414,0,0,0.21404413,6.7023228,20.087852)">
        <g
           id="g3633"
           transform="matrix(5.6402548,0,0,5.6402548,-67.391846,-96.267969)">
          <g
             id="g3707"
             transform="matrix(0.17729696,0,0,0.17729697,23.916017,21.730345)">
            <path
               style="fill:none;stroke:#1f1a17;stroke-width:1.60102236px;stroke-linecap:round;stroke-linejoin:round;stroke-miterlimit:4;stroke-dasharray:none;stroke-opacity:1"
               d="m -42.087064,90.037601 0,-189.205836 c 29.402835,0.109171 58.819663,-0.217885 88.213836,0.162647 13.773524,1.215162 26.135567,10.70894 31.329085,23.443703 3.291086,5.264308 14.110624,6.070336 15.234876,-1.235783 -0.196177,-6.416962 -4.557413,-11.838608 -6.570897,-17.808248 -3.482195,-7.339244 -6.171109,-15.161084 -10.131095,-22.211094 -3.820912,-2.76866 -9.100256,-0.66076 -13.498469,-1.31898 -49.770309,0.0694 -99.557163,-0.1387 -149.317156,0.1038 -8.669493,1.62582 -8.167282,16.53828 0.741208,17.26361 6.611093,-1.33167 11.292539,5.60794 10.480758,11.612262 -0.0594,60.259194 0.118743,120.52614 -0.08897,180.780495 -0.299396,5.434125 -5.254523,9.965213 -10.777213,8.845973 -8.255668,0.85989 -9.275242,14.0411 -1.49726,16.50872 10.34559,0.90743 20.881074,0.12342 31.298344,0.38576 8.971232,-0.26472 18.060967,0.52525 26.961088,-0.38576 7.766098,-2.47709 6.74851,-15.63627 -1.497328,-16.50864 -6.4671,1.13607 -11.038089,-4.260128 -10.880807,-10.432629 z"
               id="path3696"
               inkscape:connector-curvature="0"
               sodipodi:nodetypes="cccccccccccccccccc" />
            <path
               style="fill:none;stroke:#1f1a17;stroke-width:1.60102236px;stroke-linecap:round;stroke-linejoin:round;stroke-miterlimit:4;stroke-dasharray:none;stroke-opacity:1"
               d="m -59.965204,77.056912 c 5.067543,-0.293985 6.29651,7.692179 1.3639,8.906347 -5.872813,1.267595 -8.432388,-8.75254 -1.3639,-8.906347 z"
               id="path3698"
               inkscape:connector-curvature="0"
               sodipodi:nodetypes="ccc" />
            <path
               style="fill:none;stroke:#1f1a17;stroke-width:1.60102236px;stroke-linecap:round;stroke-linejoin:round;stroke-miterlimit:4;stroke-dasharray:none;stroke-opacity:1"
               d="m -64.264152,-84.27542 c -1.978324,-4.569379 4.903163,-8.433758 7.842032,-4.460433 3.244356,5.691151 -6.041774,9.334169 -7.842032,4.460433 z"
               id="path3700"
               inkscape:connector-curvature="0"
               sodipodi:nodetypes="ccc" />
          </g>
        </g>
      </g>
    </g>
  </g>
</svg>
