<?xml version="1.0" encoding="UTF-8" standalone="no"?>
<!-- Created with Inkscape (http://www.inkscape.org/) -->

<svg
   xmlns:dc="http://purl.org/dc/elements/1.1/"
   xmlns:cc="http://creativecommons.org/ns#"
   xmlns:rdf="http://www.w3.org/1999/02/22-rdf-syntax-ns#"
   xmlns:svg="http://www.w3.org/2000/svg"
   xmlns="http://www.w3.org/2000/svg"
   xmlns:sodipodi="http://sodipodi.sourceforge.net/DTD/sodipodi-0.dtd"
   xmlns:inkscape="http://www.inkscape.org/namespaces/inkscape"
   width="210mm"
   height="297mm"
   viewBox="0 0 744.09448819 1052.3622047"
   id="svg2"
   version="1.1"
   inkscape:version="0.91 r"
   sodipodi:docname="Д.svg">
  <defs
     id="defs4">
    <pattern
       y="0"
       x="0"
       height="6"
       width="6"
       patternUnits="userSpaceOnUse"
       id="WMFhbasepattern" />
    <pattern
       y="0"
       x="0"
       height="6"
       width="6"
       patternUnits="userSpaceOnUse"
       id="WMFhbasepattern-4" />
    <pattern
       y="0"
       x="0"
       height="6"
       width="6"
       patternUnits="userSpaceOnUse"
       id="WMFhbasepattern-0" />
    <pattern
       y="0"
       x="0"
       height="6"
       width="6"
       patternUnits="userSpaceOnUse"
       id="WMFhbasepattern-2" />
    <pattern
       y="0"
       x="0"
       height="6"
       width="6"
       patternUnits="userSpaceOnUse"
       id="WMFhbasepattern-3" />
  </defs>
  <sodipodi:namedview
     id="base"
     pagecolor="#004d00"
     bordercolor="#666666"
     borderopacity="1.0"
     inkscape:pageopacity="0"
     inkscape:pageshadow="2"
     inkscape:zoom="0.7"
     inkscape:cx="753.02283"
     inkscape:cy="467.65283"
     inkscape:document-units="px"
     inkscape:current-layer="g3782"
     showgrid="false"
     inkscape:window-width="1920"
     inkscape:window-height="1080"
     inkscape:window-x="1280"
     inkscape:window-y="0"
     inkscape:window-maximized="1" />
  <metadata
     id="metadata7">
    <rdf:RDF>
      <cc:Work
         rdf:about="">
        <dc:format>image/svg+xml</dc:format>
        <dc:type
           rdf:resource="http://purl.org/dc/dcmitype/StillImage" />
        <dc:title></dc:title>
      </cc:Work>
    </rdf:RDF>
  </metadata>
  <g
     inkscape:label="Layer 1"
     inkscape:groupmode="layer"
     id="layer1">
    <g
       id="g3448"
       transform="matrix(16.554095,0,0,16.554095,42.598354,31.585911)">
      <g
         id="g3548"
         transform="matrix(0.21404414,0,0,0.21404413,6.7023228,20.087852)">
        <g
           id="g3633"
           transform="matrix(5.6402548,0,0,5.6402548,-67.391846,-96.267969)">
          <g
             id="g3707"
             transform="matrix(0.17729696,0,0,0.17729697,23.916017,21.730345)">
            <g
               id="g3782"
               transform="matrix(4.9749254,0,0,4.9749254,-105.16049,-118.8314)">
              <path
                 style="fill:none;stroke:#1f1a17;stroke-width:0.35134688px;stroke-linecap:round;stroke-linejoin:round;stroke-miterlimit:4;stroke-dasharray:none;stroke-opacity:1"
                 d="m 36.328491,44.090167 c 0.0057,-12.546778 -0.01057,-25.101344 0.0068,-37.6432519 0.06655,-1.2056324 1.096384,-2.1374142 2.276977,-2.212961 1.738517,-0.599879 1.633539,-3.37691117 -0.09964,-3.91485957 C 36.923315,-0.0016159 35.250403,0.26126554 33.627906,0.17573611 25.241278,0.19251736 16.848182,0.14217509 8.4655946,0.20090459 6.6413852,0.40885681 6.0311478,3.1070022 7.6059926,4.0549407 8.4364681,4.4251333 9.5491791,4.4931294 9.9500061,5.475476 10.559934,6.8065703 10.103986,8.3171249 10.347826,9.7216621 10.669967,16.992751 11.052788,24.416191 9.2941853,31.546148 7.8037107,37.663217 3.9411291,42.780453 0.17571526,47.683138 l 0,4.211038 40.06018374,0 c -0.131537,-1.157183 0.29832,-2.448852 -0.28645,-3.508023 -0.976241,-1.206897 -3.071825,-1.253375 -3.482713,-2.977346 -0.129957,-0.426125 -0.158173,-0.875717 -0.138245,-1.31864 z"
                 id="path3763"
                 inkscape:connector-curvature="0"
                 sodipodi:nodetypes="cccccccccccccccc" />
              <path
                 style="fill:none;stroke:#1f1a17;stroke-width:0.35134688px;stroke-linecap:round;stroke-linejoin:round;stroke-miterlimit:4;stroke-dasharray:none;stroke-opacity:1"
                 d="m 32.239373,9.2554496 c 1.045188,-0.062211 1.334168,1.5727034 0.335,1.8777914 -1.288097,0.315992 -1.841402,-1.5756458 -0.335,-1.8777914 z"
                 id="path3767"
                 inkscape:connector-curvature="0"
                 sodipodi:nodetypes="ccc" />
              <path
                 style="fill:none;stroke:#1f1a17;stroke-width:0.35134688px;stroke-linecap:round;stroke-linejoin:round;stroke-miterlimit:4;stroke-dasharray:none;stroke-opacity:1"
                 d="m 4.1641042,47.976084 c 1.07991,-0.06401 1.3753584,1.629413 0.341602,1.93945 -1.3760044,0.397027 -1.9622966,-1.520029 -0.341602,-1.93945 z"
                 id="path3771"
                 inkscape:connector-curvature="0"
                 sodipodi:nodetypes="ccc" />
              <path
                 style="fill:none;stroke:#1f1a17;stroke-width:0.35134688px;stroke-linecap:round;stroke-linejoin:round;stroke-miterlimit:4;stroke-dasharray:none;stroke-opacity:1"
                 d="m 14.93551,4.9629342 12.921742,0 c -0.01516,13.5530128 0.03031,27.1092768 -0.02271,40.6602598 -0.144988,1.222726 -1.488462,1.729081 -2.573711,1.52937 -5.337453,-0.03206 -10.682279,0.06356 -16.0152104,-0.04674 -0.9576972,1.41e-4 -1.3505481,-1.027527 -0.9980393,-1.816174 1.0352984,-2.059164 2.3482427,-4.014057 3.3045977,-6.133004 2.700205,-5.375534 3.436894,-11.453802 3.549142,-17.39605 0.141506,-5.599214 -0.0357,-11.200018 -0.165811,-16.7976578 z"
                 id="path3775"
                 inkscape:connector-curvature="0"
                 sodipodi:nodetypes="cccccccccc" />
            </g>
          </g>
        </g>
      </g>
    </g>
  </g>
</svg>
