<?xml version="1.0" encoding="UTF-8" standalone="no"?>
<!-- Created with Inkscape (http://www.inkscape.org/) -->

<svg
   xmlns:dc="http://purl.org/dc/elements/1.1/"
   xmlns:cc="http://creativecommons.org/ns#"
   xmlns:rdf="http://www.w3.org/1999/02/22-rdf-syntax-ns#"
   xmlns:svg="http://www.w3.org/2000/svg"
   xmlns="http://www.w3.org/2000/svg"
   xmlns:sodipodi="http://sodipodi.sourceforge.net/DTD/sodipodi-0.dtd"
   xmlns:inkscape="http://www.inkscape.org/namespaces/inkscape"
   width="210mm"
   height="297mm"
   viewBox="0 0 744.09448819 1052.3622047"
   id="svg2"
   version="1.1"
   inkscape:version="0.91 r"
   sodipodi:docname="Е.svg">
  <defs
     id="defs4">
    <pattern
       y="0"
       x="0"
       height="6"
       width="6"
       patternUnits="userSpaceOnUse"
       id="WMFhbasepattern" />
    <pattern
       y="0"
       x="0"
       height="6"
       width="6"
       patternUnits="userSpaceOnUse"
       id="WMFhbasepattern-4" />
    <pattern
       y="0"
       x="0"
       height="6"
       width="6"
       patternUnits="userSpaceOnUse"
       id="WMFhbasepattern-0" />
    <pattern
       y="0"
       x="0"
       height="6"
       width="6"
       patternUnits="userSpaceOnUse"
       id="WMFhbasepattern-2" />
    <pattern
       y="0"
       x="0"
       height="6"
       width="6"
       patternUnits="userSpaceOnUse"
       id="WMFhbasepattern-3" />
    <pattern
       y="0"
       x="0"
       height="6"
       width="6"
       patternUnits="userSpaceOnUse"
       id="WMFhbasepattern-45" />
  </defs>
  <sodipodi:namedview
     id="base"
     pagecolor="#004d00"
     bordercolor="#666666"
     borderopacity="1.0"
     inkscape:pageopacity="0"
     inkscape:pageshadow="2"
     inkscape:zoom="0.49497475"
     inkscape:cx="940.53675"
     inkscape:cy="712.83499"
     inkscape:document-units="px"
     inkscape:current-layer="g3853"
     showgrid="false"
     inkscape:window-width="1920"
     inkscape:window-height="1080"
     inkscape:window-x="1280"
     inkscape:window-y="0"
     inkscape:window-maximized="1" />
  <metadata
     id="metadata7">
    <rdf:RDF>
      <cc:Work
         rdf:about="">
        <dc:format>image/svg+xml</dc:format>
        <dc:type
           rdf:resource="http://purl.org/dc/dcmitype/StillImage" />
        <dc:title></dc:title>
      </cc:Work>
    </rdf:RDF>
  </metadata>
  <g
     inkscape:label="Layer 1"
     inkscape:groupmode="layer"
     id="layer1">
    <g
       id="g3448"
       transform="matrix(16.554095,0,0,16.554095,42.598354,31.585911)">
      <g
         id="g3548"
         transform="matrix(0.21404414,0,0,0.21404413,6.7023228,20.087852)">
        <g
           id="g3633"
           transform="matrix(5.6402548,0,0,5.6402548,-67.391846,-96.267969)">
          <g
             id="g3707"
             transform="matrix(0.17729696,0,0,0.17729697,23.916017,21.730345)">
            <g
               id="g3782"
               transform="matrix(4.9749254,0,0,4.9749254,-105.16049,-118.8314)">
              <g
                 id="g3853"
                 transform="matrix(0.92508091,0,0,0.92508086,0.67481595,5.975956)">
                <path
                   style="fill:none;stroke:#1f1a17;stroke-width:0.35131836px;stroke-linecap:round;stroke-linejoin:round;stroke-miterlimit:4;stroke-dasharray:none;stroke-opacity:1"
                   d="m 23.066643,26.022298 c 1.449071,-0.06405 2.556875,1.372701 2.283487,2.764853 -0.02593,1.604669 2.181177,2.513737 3.252988,1.288063 0.987791,-1.107828 0.399517,-2.718646 0.55937,-4.054332 -0.04198,-2.676905 0.08351,-5.368123 -0.06181,-8.036287 -0.288378,-1.579138 -2.620599,-2.008818 -3.428528,-0.60828 -0.645782,0.984938 0.05185,2.44773 -1.07335,3.207253 -1.227461,0.968598 -2.89885,0.39973 -4.330651,0.553 l -8.840548,0 0,-16.7973864 c 6.068891,0.032842 12.142597,-0.065467 18.208523,0.048724 2.973975,0.314262 5.617721,2.3817225 6.744863,5.1329595 0.71883,1.1573859 3.095662,1.3309669 3.339676,-0.2717647 C 39.678752,7.8380512 38.720907,6.6436886 38.276908,5.3315993 37.51585,3.7255 36.923431,2.0173346 36.06207,0.4716539 35.224658,-0.1513456 34.053509,0.32435298 33.084292,0.17565 22.592301,0.19087119 12.096683,0.14523481 1.6069532,0.19842 c -1.90213704,0.35733606 -1.79208243,3.6297257 0.162647,3.7894933 1.4512771,-0.2923518 2.4788219,1.2324135 2.2998331,2.5499835 -0.01304,13.2267482 0.026063,26.4556952 -0.01952,39.6810722 -0.065672,1.192474 -1.152715,2.187464 -2.3648891,1.941725 -1.81170702,0.189107 -2.03528436,3.081869 -0.328548,3.62375 2.2789352,0.199244 4.5995819,0.02706 6.8942583,0.08468 9.6699845,-0.01757 19.3451525,0.0351 29.0119075,-0.02626 1.026804,-0.375549 0.98952,-1.750427 1.500864,-2.572746 0.851304,-2.197902 1.857759,-4.347373 2.621968,-6.57165 0.401216,-1.219045 -0.936486,-2.246663 -2.057223,-1.807527 -1.587303,0.389979 -1.611446,2.307251 -2.624872,3.324401 -1.688655,2.22741 -4.532315,3.41959 -7.305542,3.161644 l -17.970219,0 0,-21.354627 c 3.879648,-4.1e-5 7.759511,8.1e-5 11.639025,-6.1e-5 z"
                   id="path3842"
                   inkscape:connector-curvature="0"
                   sodipodi:nodetypes="cccccccccccccccccccccccccccccccc" />
                <path
                   style="fill:none;stroke:#1f1a17;stroke-width:0.35131836px;stroke-linecap:round;stroke-linejoin:round;stroke-miterlimit:4;stroke-dasharray:none;stroke-opacity:1"
                   d="M 8.6300733,7.8424742 C 8.687102,8.923225 6.9938792,9.2195799 6.6783203,8.1872652 6.2104465,7.0092781 8.3011981,6.3500146 8.6300733,7.8424742 Z"
                   id="path3844"
                   inkscape:connector-curvature="0"
                   sodipodi:nodetypes="ccc" />
                <path
                   style="fill:none;stroke:#1f1a17;stroke-width:0.35131836px;stroke-linecap:round;stroke-linejoin:round;stroke-miterlimit:4;stroke-dasharray:none;stroke-opacity:1"
                   d="m 8.5975331,44.781045 c 0.061603,1.081194 -1.6325175,1.375548 -1.951768,0.34488 -0.3533712,-1.286062 1.6778274,-1.90618 1.951768,-0.34488 z"
                   id="path3846"
                   inkscape:connector-curvature="0"
                   sodipodi:nodetypes="ccc" />
              </g>
            </g>
          </g>
        </g>
      </g>
    </g>
  </g>
</svg>
