<?xml version="1.0" encoding="UTF-8" standalone="no"?>
<!-- Created with Inkscape (http://www.inkscape.org/) -->

<svg
   xmlns:dc="http://purl.org/dc/elements/1.1/"
   xmlns:cc="http://creativecommons.org/ns#"
   xmlns:rdf="http://www.w3.org/1999/02/22-rdf-syntax-ns#"
   xmlns:svg="http://www.w3.org/2000/svg"
   xmlns="http://www.w3.org/2000/svg"
   xmlns:sodipodi="http://sodipodi.sourceforge.net/DTD/sodipodi-0.dtd"
   xmlns:inkscape="http://www.inkscape.org/namespaces/inkscape"
   width="210mm"
   height="297mm"
   viewBox="0 0 744.09448819 1052.3622047"
   id="svg2"
   version="1.1"
   inkscape:version="0.91 r"
   sodipodi:docname="Ж.svg">
  <defs
     id="defs4">
    <pattern
       y="0"
       x="0"
       height="6"
       width="6"
       patternUnits="userSpaceOnUse"
       id="WMFhbasepattern" />
    <pattern
       y="0"
       x="0"
       height="6"
       width="6"
       patternUnits="userSpaceOnUse"
       id="WMFhbasepattern-4" />
    <pattern
       y="0"
       x="0"
       height="6"
       width="6"
       patternUnits="userSpaceOnUse"
       id="WMFhbasepattern-0" />
    <pattern
       y="0"
       x="0"
       height="6"
       width="6"
       patternUnits="userSpaceOnUse"
       id="WMFhbasepattern-2" />
    <pattern
       y="0"
       x="0"
       height="6"
       width="6"
       patternUnits="userSpaceOnUse"
       id="WMFhbasepattern-3" />
    <pattern
       y="0"
       x="0"
       height="6"
       width="6"
       patternUnits="userSpaceOnUse"
       id="WMFhbasepattern-45" />
    <pattern
       y="0"
       x="0"
       height="6"
       width="6"
       patternUnits="userSpaceOnUse"
       id="WMFhbasepattern-1" />
  </defs>
  <sodipodi:namedview
     id="base"
     pagecolor="#004d00"
     bordercolor="#666666"
     borderopacity="1.0"
     inkscape:pageopacity="0"
     inkscape:pageshadow="2"
     inkscape:zoom="1.979899"
     inkscape:cx="483.20193"
     inkscape:cy="274.31416"
     inkscape:document-units="px"
     inkscape:current-layer="g3967"
     showgrid="false"
     inkscape:window-width="1920"
     inkscape:window-height="1080"
     inkscape:window-x="1280"
     inkscape:window-y="0"
     inkscape:window-maximized="1" />
  <metadata
     id="metadata7">
    <rdf:RDF>
      <cc:Work
         rdf:about="">
        <dc:format>image/svg+xml</dc:format>
        <dc:type
           rdf:resource="http://purl.org/dc/dcmitype/StillImage" />
        <dc:title></dc:title>
      </cc:Work>
    </rdf:RDF>
  </metadata>
  <g
     inkscape:label="Layer 1"
     inkscape:groupmode="layer"
     id="layer1">
    <g
       id="g3448"
       transform="matrix(16.554095,0,0,16.554095,42.598354,31.585911)">
      <g
         id="g3548"
         transform="matrix(0.21404414,0,0,0.21404413,6.7023228,20.087852)">
        <g
           id="g3633"
           transform="matrix(5.6402548,0,0,5.6402548,-67.391846,-96.267969)">
          <g
             id="g3707"
             transform="matrix(0.17729696,0,0,0.17729697,23.916017,21.730345)">
            <g
               id="g3782"
               transform="matrix(4.9749254,0,0,4.9749254,-105.16049,-118.8314)">
              <g
                 id="g3853"
                 transform="matrix(0.92508091,0,0,0.92508086,0.67481595,5.975956)">
                <g
                   id="g3967"
                   transform="matrix(0.76693907,0,0,0.76693914,-1.4924577,13.785771)">
                  <path
                     style="fill:none;stroke:#1f1a17;stroke-width:0.35066605px;stroke-linecap:round;stroke-linejoin:round;stroke-miterlimit:4;stroke-dasharray:none;stroke-opacity:1"
                     d="m 32.300616,27.497899 c 2.224843,-2.817827 3.409425,2.698638 4.467189,4.17439 2.118039,4.329927 4.5159,8.556037 6.375886,12.992464 0.0988,2.32889 -4.34129,6.324098 -0.169607,7.200264 4.167482,-0.01586 8.335611,0.05308 12.502542,-0.04224 2.87396,-1.183002 1.338942,-4.751168 -1.239349,-5.134766 -2.115557,-2.280943 -2.903683,-5.47216 -4.457533,-8.143314 -3.32969,-6.777406 -6.680867,-13.544454 -9.950605,-20.351106 0.574969,-2.262407 3.25124,-3.456525 4.696093,-5.277985 1.80493,-1.727626 3.609617,-3.4555071 5.415915,-5.1817031 2.715098,2.2257295 7.463665,-0.2404794 6.909448,-3.807349 C 56.553017,0.55391996 51.795637,-1.1618841 49.589772,1.5203146 44.145952,6.6008241 38.69888,11.688802 33.163086,16.673293 31.138756,15.481761 32.896639,11.359469 32.286743,9.1124319 31.990939,6.7021533 32.219164,3.3942591 35.382531,3.6411406 37.781167,1.3403216 34.312309,-0.62711429 32.0642,0.18091 28.740319,0.2257155 25.37399,0.02532526 22.076866,0.31707579 19.732185,1.8095846 21.930833,4.4403036 24.03301,4.202494 c 1.976091,3.078988 0.444328,7.346459 0.902774,10.90031 C 24.874834,18.875429 21.585715,14.030148 20.25697,13.20761 15.70405,8.998778 11.177156,4.7613753 6.5732096,0.60812398 3.479771,-1.0783273 -0.72445101,2.3015102 0.59109297,5.6892595 1.5431393,9.0466444 5.5181921,8.5737086 7.7303621,8.1382752 10.915772,11.212325 14.163462,14.22203 17.300722,17.345794 c -0.005,2.642145 -2.210252,4.953581 -3.092054,7.467233 -3.432166,6.999516 -6.8369522,14.012614 -10.3227252,20.985699 -1.726293,1.446714 -5.6011168,3.212155 -2.6753703,5.728415 2.1695914,0.803832 4.697417,0.107977 7.0135948,0.340274 2.3618787,-0.15759 4.9569497,0.319844 7.1712147,-0.239757 2.057929,-2.161465 -0.895819,-4.253812 -1.292365,-6.293077 0.340358,-3.031167 2.578031,-5.463882 3.655674,-8.266866 1.697171,-3.388041 3.389895,-6.778751 5.156273,-10.13145 1.16438,2.567 2.148924,15.797649 1.880553,19.920911 -0.708949,1.930454 -4.533103,0.863646 -3.627621,3.776156 1.387063,2.355831 4.819397,0.759613 7.113596,1.243167 2.3725,-0.149848 4.892864,0.30828 7.170237,-0.305795 1.926886,-1.745121 -0.287842,-3.8616 -2.233032,-3.728385 -1.819528,-6.57897 -0.918021,-13.899256 -0.918081,-20.34442 z"
                     id="path3952"
                     inkscape:connector-curvature="0"
                     sodipodi:nodetypes="cccccccccccccccccccccccccccccccccccccc" />
                  <path
                     style="fill:none;stroke:#1f1a17;stroke-width:0.35066605px;stroke-linecap:round;stroke-linejoin:round;stroke-miterlimit:4;stroke-dasharray:none;stroke-opacity:1"
                     d="m 27.584472,7.6766684 c -0.348557,-1.0926746 1.370204,-1.7588698 1.85717,-0.726182 0.335792,1.2786329 -1.568563,1.8057277 -1.85717,0.726182 z"
                     id="path3956"
                     inkscape:connector-curvature="0"
                     sodipodi:nodetypes="ccc" />
                  <path
                     style="fill:none;stroke:#1f1a17;stroke-width:0.35066605px;stroke-linecap:round;stroke-linejoin:round;stroke-miterlimit:4;stroke-dasharray:none;stroke-opacity:1"
                     d="m 28.672369,45.319628 c -1.188065,0.192449 -1.534394,-1.726028 -0.35419,-1.96037 1.181638,-0.153103 1.5336,1.833476 0.35419,1.96037 z"
                     id="path3960"
                     inkscape:connector-curvature="0"
                     sodipodi:nodetypes="ccc" />
                </g>
              </g>
            </g>
          </g>
        </g>
      </g>
    </g>
  </g>
</svg>
