<?xml version="1.0" encoding="UTF-8" standalone="no"?>
<!-- Created with Inkscape (http://www.inkscape.org/) -->

<svg
   xmlns:dc="http://purl.org/dc/elements/1.1/"
   xmlns:cc="http://creativecommons.org/ns#"
   xmlns:rdf="http://www.w3.org/1999/02/22-rdf-syntax-ns#"
   xmlns:svg="http://www.w3.org/2000/svg"
   xmlns="http://www.w3.org/2000/svg"
   xmlns:sodipodi="http://sodipodi.sourceforge.net/DTD/sodipodi-0.dtd"
   xmlns:inkscape="http://www.inkscape.org/namespaces/inkscape"
   width="210mm"
   height="297mm"
   viewBox="0 0 744.09448819 1052.3622047"
   id="svg2"
   version="1.1"
   inkscape:version="0.91 r"
   sodipodi:docname="З.svg">
  <defs
     id="defs4">
    <pattern
       y="0"
       x="0"
       height="6"
       width="6"
       patternUnits="userSpaceOnUse"
       id="WMFhbasepattern" />
    <pattern
       y="0"
       x="0"
       height="6"
       width="6"
       patternUnits="userSpaceOnUse"
       id="WMFhbasepattern-4" />
    <pattern
       y="0"
       x="0"
       height="6"
       width="6"
       patternUnits="userSpaceOnUse"
       id="WMFhbasepattern-0" />
    <pattern
       y="0"
       x="0"
       height="6"
       width="6"
       patternUnits="userSpaceOnUse"
       id="WMFhbasepattern-2" />
    <pattern
       y="0"
       x="0"
       height="6"
       width="6"
       patternUnits="userSpaceOnUse"
       id="WMFhbasepattern-3" />
    <pattern
       y="0"
       x="0"
       height="6"
       width="6"
       patternUnits="userSpaceOnUse"
       id="WMFhbasepattern-45" />
    <pattern
       y="0"
       x="0"
       height="6"
       width="6"
       patternUnits="userSpaceOnUse"
       id="WMFhbasepattern-1" />
    <pattern
       y="0"
       x="0"
       height="6"
       width="6"
       patternUnits="userSpaceOnUse"
       id="WMFhbasepattern-16" />
  </defs>
  <sodipodi:namedview
     id="base"
     pagecolor="#004d00"
     bordercolor="#666666"
     borderopacity="1.0"
     inkscape:pageopacity="0"
     inkscape:pageshadow="2"
     inkscape:zoom="0.98994949"
     inkscape:cx="592.38116"
     inkscape:cy="606.29789"
     inkscape:document-units="px"
     inkscape:current-layer="g4036"
     showgrid="false"
     inkscape:window-width="1920"
     inkscape:window-height="1080"
     inkscape:window-x="1280"
     inkscape:window-y="0"
     inkscape:window-maximized="1" />
  <metadata
     id="metadata7">
    <rdf:RDF>
      <cc:Work
         rdf:about="">
        <dc:format>image/svg+xml</dc:format>
        <dc:type
           rdf:resource="http://purl.org/dc/dcmitype/StillImage" />
        <dc:title></dc:title>
      </cc:Work>
    </rdf:RDF>
  </metadata>
  <g
     inkscape:label="Layer 1"
     inkscape:groupmode="layer"
     id="layer1">
    <g
       id="g3448"
       transform="matrix(16.554095,0,0,16.554095,42.598354,31.585911)">
      <g
         id="g3548"
         transform="matrix(0.21404414,0,0,0.21404413,6.7023228,20.087852)">
        <g
           id="g3633"
           transform="matrix(5.6402548,0,0,5.6402548,-67.391846,-96.267969)">
          <g
             id="g3707"
             transform="matrix(0.17729696,0,0,0.17729697,23.916017,21.730345)">
            <g
               id="g3782"
               transform="matrix(4.9749254,0,0,4.9749254,-105.16049,-118.8314)">
              <g
                 id="g3853"
                 transform="matrix(0.92508091,0,0,0.92508086,0.67481595,5.975956)">
                <g
                   id="g3967"
                   transform="matrix(0.76693907,0,0,0.76693914,-1.4924577,13.785771)">
                  <g
                     id="g4036"
                     transform="matrix(1.1931987,0,0,1.1931986,4.7433921,-27.027898)">
                    <path
                       style="fill:none;stroke:#1f1a17;stroke-width:0.35111755px;stroke-linecap:round;stroke-linejoin:round;stroke-miterlimit:4;stroke-dasharray:none;stroke-opacity:1"
                       d="M 38.021542,16.171474 C 39.181834,12.534352 38.425478,8.3667343 35.954779,5.4376588 32.496148,1.1953332 26.630564,-0.40889325 21.342477,0.34266421 15.152834,1.1770338 9.6986819,4.7802948 5.4195698,9.18464 5.0892083,8.3244076 5.1382442,6.9348916 3.9468213,6.8307656 2.8908294,6.6895291 1.3352812,6.826398 0.9395657,7.997952 L 2.2334981,18.242478 C 3.2860446,19.362612 4.9797773,18.589865 5.8182737,17.628431 8.2145221,12.407594 12.367329,7.5729416 18.064649,5.9672677 c 2.550411,-0.6655833 5.411142,-1.0929103 7.852663,0.1719978 3.191864,1.3270776 5.359133,4.7805395 4.91945,8.2476375 -0.483636,4.443739 -3.63593,7.974347 -6.853481,10.809948 -0.871386,0.836685 0.276034,1.892933 1.047438,2.239536 3.244113,1.966221 6.913252,4.0721 8.312428,7.816316 0.897218,2.448001 0.448179,5.290044 -1.216366,7.306238 -2.945927,3.679947 -7.930319,4.936702 -12.458767,4.948758 C 13.313353,47.50635 6.712441,44.913459 2.8414416,39.719956 2.0134453,38.725733 0.17874794,39.25295 0.17555888,40.60106 c 0.13046257,0.941572 1.21698952,1.374899 1.76379132,2.088075 5.2378645,4.937393 11.9973438,8.501588 19.2486998,9.066071 6.009666,0.480448 12.508798,-1.134907 16.8072,-5.557278 2.662621,-2.697292 3.994164,-6.832664 2.751066,-10.498233 -1.277486,-4.127543 -4.688839,-7.175136 -8.238973,-9.417787 -0.423549,-0.440702 -2.127593,-0.788599 -0.970275,-1.343875 2.863607,-2.296085 5.336064,-5.232359 6.484474,-8.766559 z"
                       id="path4025"
                       inkscape:connector-curvature="0"
                       sodipodi:nodetypes="ccccccccccccccccccccccccc" />
                    <path
                       style="fill:none;stroke:#1f1a17;stroke-width:0.35111755px;stroke-linecap:round;stroke-linejoin:round;stroke-miterlimit:4;stroke-dasharray:none;stroke-opacity:1"
                       d="m 36.555114,44.076632 c -0.965831,0.419641 -1.795341,-1.037388 -0.94599,-1.65494 1.203372,-0.688062 1.982811,1.272742 0.94599,1.65494 z"
                       id="path4027"
                       inkscape:connector-curvature="0"
                       sodipodi:nodetypes="ccc" />
                    <path
                       style="fill:none;stroke:#1f1a17;stroke-width:0.35111755px;stroke-linecap:round;stroke-linejoin:round;stroke-miterlimit:4;stroke-dasharray:none;stroke-opacity:1"
                       d="m 31.356883,6.125268 c 0.842684,-0.6355987 1.995542,0.5778548 1.31654,1.385004 C 31.66427,8.4518306 30.44753,6.7482784 31.356883,6.125268 Z"
                       id="path4029"
                       inkscape:connector-curvature="0"
                       sodipodi:nodetypes="ccc" />
                  </g>
                </g>
              </g>
            </g>
          </g>
        </g>
      </g>
    </g>
  </g>
</svg>
