<?xml version="1.0" encoding="UTF-8" standalone="no"?>
<!-- Created with Inkscape (http://www.inkscape.org/) -->

<svg
   xmlns:dc="http://purl.org/dc/elements/1.1/"
   xmlns:cc="http://creativecommons.org/ns#"
   xmlns:rdf="http://www.w3.org/1999/02/22-rdf-syntax-ns#"
   xmlns:svg="http://www.w3.org/2000/svg"
   xmlns="http://www.w3.org/2000/svg"
   xmlns:sodipodi="http://sodipodi.sourceforge.net/DTD/sodipodi-0.dtd"
   xmlns:inkscape="http://www.inkscape.org/namespaces/inkscape"
   width="210mm"
   height="297mm"
   viewBox="0 0 744.09448819 1052.3622047"
   id="svg2"
   version="1.1"
   inkscape:version="0.91 r"
   sodipodi:docname="И.svg">
  <defs
     id="defs4">
    <pattern
       y="0"
       x="0"
       height="6"
       width="6"
       patternUnits="userSpaceOnUse"
       id="WMFhbasepattern" />
    <pattern
       y="0"
       x="0"
       height="6"
       width="6"
       patternUnits="userSpaceOnUse"
       id="WMFhbasepattern-4" />
    <pattern
       y="0"
       x="0"
       height="6"
       width="6"
       patternUnits="userSpaceOnUse"
       id="WMFhbasepattern-0" />
    <pattern
       y="0"
       x="0"
       height="6"
       width="6"
       patternUnits="userSpaceOnUse"
       id="WMFhbasepattern-2" />
    <pattern
       y="0"
       x="0"
       height="6"
       width="6"
       patternUnits="userSpaceOnUse"
       id="WMFhbasepattern-3" />
    <pattern
       y="0"
       x="0"
       height="6"
       width="6"
       patternUnits="userSpaceOnUse"
       id="WMFhbasepattern-45" />
    <pattern
       y="0"
       x="0"
       height="6"
       width="6"
       patternUnits="userSpaceOnUse"
       id="WMFhbasepattern-1" />
    <pattern
       y="0"
       x="0"
       height="6"
       width="6"
       patternUnits="userSpaceOnUse"
       id="WMFhbasepattern-16" />
    <pattern
       y="0"
       x="0"
       height="6"
       width="6"
       patternUnits="userSpaceOnUse"
       id="WMFhbasepattern-07" />
  </defs>
  <sodipodi:namedview
     id="base"
     pagecolor="#004d00"
     bordercolor="#666666"
     borderopacity="1.0"
     inkscape:pageopacity="0"
     inkscape:pageshadow="2"
     inkscape:zoom="0.98994949"
     inkscape:cx="664.40799"
     inkscape:cy="454.15518"
     inkscape:document-units="px"
     inkscape:current-layer="g4101"
     showgrid="false"
     inkscape:window-width="1920"
     inkscape:window-height="1080"
     inkscape:window-x="1280"
     inkscape:window-y="0"
     inkscape:window-maximized="1" />
  <metadata
     id="metadata7">
    <rdf:RDF>
      <cc:Work
         rdf:about="">
        <dc:format>image/svg+xml</dc:format>
        <dc:type
           rdf:resource="http://purl.org/dc/dcmitype/StillImage" />
        <dc:title></dc:title>
      </cc:Work>
    </rdf:RDF>
  </metadata>
  <g
     inkscape:label="Layer 1"
     inkscape:groupmode="layer"
     id="layer1">
    <g
       id="g3448"
       transform="matrix(16.554095,0,0,16.554095,42.598354,31.585911)">
      <g
         id="g3548"
         transform="matrix(0.21404414,0,0,0.21404413,6.7023228,20.087852)">
        <g
           id="g3633"
           transform="matrix(5.6402548,0,0,5.6402548,-67.391846,-96.267969)">
          <g
             id="g3707"
             transform="matrix(0.17729696,0,0,0.17729697,23.916017,21.730345)">
            <g
               id="g3782"
               transform="matrix(4.9749254,0,0,4.9749254,-105.16049,-118.8314)">
              <g
                 id="g3853"
                 transform="matrix(0.92508091,0,0,0.92508086,0.67481595,5.975956)">
                <g
                   id="g3967"
                   transform="matrix(0.76693907,0,0,0.76693914,-1.4924577,13.785771)">
                  <g
                     id="g4036"
                     transform="matrix(1.1931987,0,0,1.1931986,4.7433921,-27.027898)">
                    <g
                       id="g4101"
                       transform="matrix(1.0169747,0,0,1.0169747,1.4661863,10.292749)">
                      <path
                         style="fill:none;stroke:#1f1a17;stroke-width:0.35122049px;stroke-linecap:round;stroke-linejoin:round;stroke-miterlimit:4;stroke-dasharray:none;stroke-opacity:1"
                         d="m 11.411402,34.688496 c 0.01308,-9.619753 -0.02615,-19.241218 0.0196,-28.8599031 0.06669,-1.1923777 1.151215,-2.1886002 2.364219,-1.9428852 1.808397,-0.1934272 2.030066,-3.07903055 0.32845,-3.625373 C 11.932226,0.06156109 9.6995102,0.23306559 7.492467,0.17572 5.4495915,0.23547887 3.380066,0.05812395 1.3529088,0.2603347 -0.34825125,0.80655442 -0.12685142,3.692461 1.6813658,3.8857077 2.8939329,3.641175 3.9820052,4.6374182 4.0456017,5.8318385 c 0.038996,13.4293965 0.019498,26.8622115 0.00976,40.2923025 -0.01931,1.179657 -1.0523592,2.306226 -2.2894419,2.053781 -1.82620491,0.09566 -2.15855372,2.976691 -0.49106,3.60258 1.6412848,0.265541 3.3477882,0.03798 5.0136253,0.11374 2.582671,-0.04082 5.1799949,0.08049 7.7538759,-0.05842 1.73343,-0.461011 1.624413,-3.353132 -0.16259,-3.6384 -1.006743,0.145072 -2.071932,-0.371814 -2.328459,-1.415674 -0.217266,-0.911313 -0.184809,-1.929952 -0.07147,-2.831656 L 27.856995,17.381644 c -0.01308,9.619761 0.02615,19.241249 -0.0196,28.859931 -0.06617,1.192843 -1.151363,2.188033 -2.364219,1.942867 -1.808592,0.192883 -2.030607,3.079911 -0.32845,3.62514 2.19132,0.198947 4.424185,0.02726 6.631204,0.08467 2.041706,-0.05989 4.110726,0.117794 6.13634,-0.08467 1.704699,-0.541926 1.484058,-3.431484 -0.32513,-3.62515 -1.211358,0.24362 -2.300152,-0.748487 -2.364457,-1.942877 -0.03889,-13.430602 -0.01971,-26.864546 -0.0096,-40.2958017 0.01897,-1.1800157 1.05196,-2.3065269 2.289387,-2.0535156 1.827187,-0.096163 2.159267,-2.98126427 0.48769,-3.602604 C 36.350414,0.02357377 34.644554,0.2517016 32.97994,0.17573 30.397261,0.2166527 27.799915,0.09503396 25.226036,0.2343097 c -1.733767,0.46128383 -1.624985,3.3534286 0.16259,3.638397 1.007561,-0.1457377 2.069938,0.3728593 2.328459,1.4156664 0.216001,0.9115714 0.185518,1.929936 0.07143,2.8316848 C 22.329498,16.976189 16.870316,25.83244 11.411402,34.688496 Z"
                         id="path4090"
                         inkscape:connector-curvature="0"
                         sodipodi:nodetypes="ccccccccccccccccccccccccccccccccc" />
                      <path
                         style="fill:none;stroke:#1f1a17;stroke-width:0.35122049px;stroke-linecap:round;stroke-linejoin:round;stroke-miterlimit:4;stroke-dasharray:none;stroke-opacity:1"
                         d="m 7.8829467,45.20325 c -1.0461773,0.392173 -1.8276522,-1.214661 -0.861793,-1.78334 1.2731593,-0.529284 1.9426794,1.441276 0.861793,1.78334 z"
                         id="path4092"
                         inkscape:connector-curvature="0"
                         sodipodi:nodetypes="ccc" />
                      <path
                         style="fill:none;stroke:#1f1a17;stroke-width:0.35122049px;stroke-linecap:round;stroke-linejoin:round;stroke-miterlimit:4;stroke-dasharray:none;stroke-opacity:1"
                         d="m 30.679813,7.224718 c -0.058,-1.0822515 1.632457,-1.3769913 1.95132,-0.34496 0.347804,1.2309897 -1.641244,1.8783478 -1.95132,0.34496 z"
                         id="path4094"
                         inkscape:connector-curvature="0"
                         sodipodi:nodetypes="ccc" />
                    </g>
                  </g>
                </g>
              </g>
            </g>
          </g>
        </g>
      </g>
    </g>
  </g>
</svg>
