<?xml version="1.0" encoding="UTF-8" standalone="no"?>
<!-- Created with Inkscape (http://www.inkscape.org/) -->

<svg
   xmlns:dc="http://purl.org/dc/elements/1.1/"
   xmlns:cc="http://creativecommons.org/ns#"
   xmlns:rdf="http://www.w3.org/1999/02/22-rdf-syntax-ns#"
   xmlns:svg="http://www.w3.org/2000/svg"
   xmlns="http://www.w3.org/2000/svg"
   xmlns:sodipodi="http://sodipodi.sourceforge.net/DTD/sodipodi-0.dtd"
   xmlns:inkscape="http://www.inkscape.org/namespaces/inkscape"
   width="210mm"
   height="297mm"
   viewBox="0 0 744.09448819 1052.3622047"
   id="svg2"
   version="1.1"
   inkscape:version="0.91 r"
   sodipodi:docname="ะบ.svg">
  <defs
     id="defs4">
    <pattern
       y="0"
       x="0"
       height="6"
       width="6"
       patternUnits="userSpaceOnUse"
       id="WMFhbasepattern" />
  </defs>
  <sodipodi:namedview
     id="base"
     pagecolor="#17795d"
     bordercolor="#666666"
     borderopacity="1.0"
     inkscape:pageopacity="0"
     inkscape:pageshadow="2"
     inkscape:zoom="0.7"
     inkscape:cx="77.291166"
     inkscape:cy="583.99167"
     inkscape:document-units="px"
     inkscape:current-layer="g4198"
     showgrid="false"
     inkscape:window-width="1920"
     inkscape:window-height="1080"
     inkscape:window-x="1280"
     inkscape:window-y="0"
     inkscape:window-maximized="1" />
  <metadata
     id="metadata7">
    <rdf:RDF>
      <cc:Work
         rdf:about="">
        <dc:format>image/svg+xml</dc:format>
        <dc:type
           rdf:resource="http://purl.org/dc/dcmitype/StillImage" />
        <dc:title></dc:title>
      </cc:Work>
    </rdf:RDF>
  </metadata>
  <g
     inkscape:label="Layer 1"
     inkscape:groupmode="layer"
     id="layer1">
    <g
       id="g4198"
       transform="matrix(27.313216,0,0,27.313217,19.376042,186.97067)">
      <path
         style="fill:none;stroke:#1f1a17;stroke-width:0.35207221px;stroke-linecap:round;stroke-linejoin:round;stroke-miterlimit:4;stroke-dasharray:none;stroke-opacity:1"
         d="M 8.2463076,0.1758792 C 5.8247865,0.1917109 3.3985295,0.1443429 0.9799344,0.1993302 c -1.05652181,0.22140922 -1.05766364,1.956796 0,2.1769907 0.5418154,-0.032652 1.1650016,0.1086898 1.3769925,0.682006 -0.023349,8.2453621 0.1664063,17.3631131 0.140827,24.6543691 -0.037472,0.714358 -0.692901,1.309706 -1.4180657,1.16095 -1.08373224,0.11379 -1.2189927,1.843059 -0.1975522,2.16718 1.3761446,0.119752 2.7777491,0.01617 4.1634904,0.05085 1.164456,-0.03515 2.3452084,0.06959 3.4999502,-0.05085 1.0221439,-0.322527 0.8878612,-2.052055 -0.195608,-2.16717 -0.7829267,0.164273 -1.4508135,-0.540788 -1.4297858,-1.29972 l 0,-8.26437 9.8873732,9.56008 c -0.625981,-0.0279 -1.483571,-0.0997 -1.750586,0.62912 -0.376403,0.751847 0.285481,1.76677 1.149074,1.59291 2.720606,-0.01444 5.444954,0.02881 8.163237,-0.0215 1.05647,-0.224566 1.057061,-1.955063 0,-2.17902 -0.53668,-0.11771 -1.222925,0.210548 -1.565837,-0.357233 L 8.1074542,14.326334 C 11.81511,10.418239 15.482557,6.4658555 19.21533,2.5854241 c 0.807915,-0.4747299 1.847471,0.09193 2.664015,-0.345894 0.872683,-0.5339266 0.47617,-2.1478953 -0.596895,-2.0636467 -1.933238,0.0237813 -3.875066,-0.0473543 -5.803018,0.0351765 -1.056911,0.2823548 -0.956309,2.0639004 0.1467,2.1828512 C 12.995983,5.6610554 9.8036378,8.8628828 6.9201766,12.008639 6.9412131,9.147077 6.8782026,6.2799308 6.9514686,3.4218311 7.0436691,2.7535579 7.6791205,2.2647791 8.3499624,2.3939101 9.5952898,2.2288381 9.5203929,0.21209897 8.2463076,0.1758792 Z"
         id="path4183"
         inkscape:connector-curvature="0"
         sodipodi:nodetypes="cccccccccccccccccccccccccccc" />
      <path
         style="fill:none;stroke:#1f1a17;stroke-width:0.35207221px;stroke-linecap:round;stroke-linejoin:round;stroke-miterlimit:4;stroke-dasharray:none;stroke-opacity:1"
         d="M 6.0380316,5.4131633 C 5.9518215,6.5257725 4.5423677,6.6553521 4.1395496,5.8468587 3.6732982,4.3841414 6.0264251,3.9686926 6.0380316,5.4131633 Z"
         id="path4187"
         inkscape:connector-curvature="0"
         sodipodi:nodetypes="ccc" />
      <path
         style="fill:none;stroke:#1f1a17;stroke-width:0.35207221px;stroke-linecap:round;stroke-linejoin:round;stroke-miterlimit:4;stroke-dasharray:none;stroke-opacity:1"
         d="m 17.143956,25.324647 c 1.82469,0.3183 0.785951,2.355253 -0.511432,1.855832 -0.823018,-0.645343 -0.416752,-1.865162 0.511432,-1.855832 z"
         id="path4191"
         inkscape:connector-curvature="0"
         sodipodi:nodetypes="ccc" />
    </g>
  </g>
</svg>
