<?xml version="1.0" encoding="UTF-8" standalone="no"?>
<!-- Created with Inkscape (http://www.inkscape.org/) -->

<svg
   xmlns:dc="http://purl.org/dc/elements/1.1/"
   xmlns:cc="http://creativecommons.org/ns#"
   xmlns:rdf="http://www.w3.org/1999/02/22-rdf-syntax-ns#"
   xmlns:svg="http://www.w3.org/2000/svg"
   xmlns="http://www.w3.org/2000/svg"
   xmlns:sodipodi="http://sodipodi.sourceforge.net/DTD/sodipodi-0.dtd"
   xmlns:inkscape="http://www.inkscape.org/namespaces/inkscape"
   width="210mm"
   height="297mm"
   viewBox="0 0 744.09448819 1052.3622047"
   id="svg2"
   version="1.1"
   inkscape:version="0.91 r"
   sodipodi:docname="Л.svg">
  <defs
     id="defs4">
    <pattern
       y="0"
       x="0"
       height="6"
       width="6"
       patternUnits="userSpaceOnUse"
       id="WMFhbasepattern" />
    <pattern
       y="0"
       x="0"
       height="6"
       width="6"
       patternUnits="userSpaceOnUse"
       id="WMFhbasepattern-9" />
  </defs>
  <sodipodi:namedview
     id="base"
     pagecolor="#005300"
     bordercolor="#666666"
     borderopacity="1.0"
     inkscape:pageopacity="0"
     inkscape:pageshadow="2"
     inkscape:zoom="0.7"
     inkscape:cx="998.376"
     inkscape:cy="713.25091"
     inkscape:document-units="px"
     inkscape:current-layer="g3425"
     showgrid="false"
     inkscape:window-width="1920"
     inkscape:window-height="1058"
     inkscape:window-x="1280"
     inkscape:window-y="0"
     inkscape:window-maximized="1" />
  <metadata
     id="metadata7">
    <rdf:RDF>
      <cc:Work
         rdf:about="">
        <dc:format>image/svg+xml</dc:format>
        <dc:type
           rdf:resource="http://purl.org/dc/dcmitype/StillImage" />
        <dc:title></dc:title>
      </cc:Work>
    </rdf:RDF>
  </metadata>
  <g
     inkscape:label="Layer 1"
     inkscape:groupmode="layer"
     id="layer1">
    <g
       id="g3373"
       transform="matrix(16.987307,0,0,16.987307,24.147126,73.136211)">
      <g
         id="g3425"
         transform="matrix(0.90501482,0,0,0.90501482,0.44148443,4.3077734)">
        <path
           style="fill:none;stroke:#1f1a17;stroke-width:0.35135958px;stroke-linecap:round;stroke-linejoin:round;stroke-miterlimit:4;stroke-dasharray:none;stroke-opacity:1"
           d="m 33.372778,5.6533344 c -0.01537,13.5216596 0.02199,27.0450616 -0.0263,40.5656346 -0.06639,1.185304 -1.137692,2.189071 -2.348959,1.941744 -1.838142,0.204246 -2.005139,3.176023 -0.24384,3.6497 4.025557,0.137589 8.074326,0.01915 12.108747,0.05872 1.872349,-0.0038 2.269374,-2.965567 0.57264,-3.60429 -0.79912,-0.196867 -1.837283,0.0261 -2.313101,-0.86194 -0.843249,-1.404831 -0.300943,-3.13881 -0.45553,-4.688186 0.01302,-12.263519 -0.02602,-24.529232 0.0195,-36.7913806 0.06153,-1.1841499 1.134157,-2.1871569 2.342441,-1.9419127 1.954654,-0.2732922 1.899244,-3.63281626 -0.08128,-3.8025196 -10.150881,0.007628 -20.305659,-0.0314963 -30.454383,0.019517 -1.927765,0.36923504 -1.756689,3.7328288 0.24726,3.7927436 1.490176,-0.2653023 2.3961,1.3940982 2.19601,2.6918621 -0.0219,10.5979152 0.03407,21.1982252 -0.03487,31.7946382 -0.153635,2.64504 -0.838215,5.876346 -3.524013,7.058792 -1.01361,0.728396 -0.610986,-0.838862 -1.041743,-1.363626 -1.1327827,-2.955108 -5.1207936,-4.202466 -7.7280925,-2.398303 -2.72484757,1.624637 -3.24561457,5.766368 -1.0424114,8.032054 1.8042946,1.88577 4.6824337,2.20952 7.1566425,1.982129 5.2914654,-0.561143 9.5421334,-5.299523 10.0272564,-10.516343 0.185847,-4.447473 0.03212,-8.907931 0.08378,-13.360447 l 0.0042,-22.2585676 c 4.845338,-1.27e-5 9.690694,2.53e-5 14.53602,-1.9e-5 z"
           id="path3410"
           inkscape:connector-curvature="0"
           sodipodi:nodetypes="cccccccccccccccccccccccsc" />
        <path
           style="fill:none;stroke:#1f1a17;stroke-width:0.35135958px;stroke-linecap:round;stroke-linejoin:round;stroke-miterlimit:4;stroke-dasharray:none;stroke-opacity:1"
           d="m 6.1976002,45.418612 c -0.9987565,0.42852 -1.8519922,-1.06679 -0.979255,-1.71083 1.2297174,-0.795197 2.0384374,1.174795 0.979255,1.71083 z"
           id="path3414"
           inkscape:connector-curvature="0"
           sodipodi:nodetypes="ccc" />
        <path
           style="fill:none;stroke:#1f1a17;stroke-width:0.35135958px;stroke-linecap:round;stroke-linejoin:round;stroke-miterlimit:4;stroke-dasharray:none;stroke-opacity:1"
           d="m 36.0045,7.5822387 c -0.0588,-1.0774089 1.62495,-1.3738852 1.93582,-0.341545 0.447414,1.405385 -1.695856,1.9349581 -1.93582,0.341545 z"
           id="path3418"
           inkscape:connector-curvature="0"
           sodipodi:nodetypes="ccc" />
      </g>
    </g>
  </g>
</svg>
