<?xml version="1.0" encoding="UTF-8" standalone="no"?>
<!-- Created with Inkscape (http://www.inkscape.org/) -->

<svg
   xmlns:dc="http://purl.org/dc/elements/1.1/"
   xmlns:cc="http://creativecommons.org/ns#"
   xmlns:rdf="http://www.w3.org/1999/02/22-rdf-syntax-ns#"
   xmlns:svg="http://www.w3.org/2000/svg"
   xmlns="http://www.w3.org/2000/svg"
   xmlns:sodipodi="http://sodipodi.sourceforge.net/DTD/sodipodi-0.dtd"
   xmlns:inkscape="http://www.inkscape.org/namespaces/inkscape"
   width="210mm"
   height="297mm"
   viewBox="0 0 744.09448819 1052.3622047"
   id="svg2"
   version="1.1"
   inkscape:version="0.91 r"
   sodipodi:docname="Ð.svg">
  <defs
     id="defs4">
    <pattern
       y="0"
       x="0"
       height="6"
       width="6"
       patternUnits="userSpaceOnUse"
       id="WMFhbasepattern" />
    <pattern
       y="0"
       x="0"
       height="6"
       width="6"
       patternUnits="userSpaceOnUse"
       id="WMFhbasepattern-9" />
    <pattern
       y="0"
       x="0"
       height="6"
       width="6"
       patternUnits="userSpaceOnUse"
       id="WMFhbasepattern-4" />
    <pattern
       y="0"
       x="0"
       height="6"
       width="6"
       patternUnits="userSpaceOnUse"
       id="WMFhbasepattern-48" />
    <pattern
       y="0"
       x="0"
       height="6"
       width="6"
       patternUnits="userSpaceOnUse"
       id="WMFhbasepattern-6" />
    <pattern
       y="0"
       x="0"
       height="6"
       width="6"
       patternUnits="userSpaceOnUse"
       id="WMFhbasepattern-1" />
    <pattern
       y="0"
       x="0"
       height="6"
       width="6"
       patternUnits="userSpaceOnUse"
       id="WMFhbasepattern-91" />
  </defs>
  <sodipodi:namedview
     id="base"
     pagecolor="#005300"
     bordercolor="#666666"
     borderopacity="1.0"
     inkscape:pageopacity="0"
     inkscape:pageshadow="2"
     inkscape:zoom="0.49497475"
     inkscape:cx="237.93602"
     inkscape:cy="836.14212"
     inkscape:document-units="px"
     inkscape:current-layer="g4572"
     showgrid="false"
     inkscape:window-width="1920"
     inkscape:window-height="1058"
     inkscape:window-x="1280"
     inkscape:window-y="0"
     inkscape:window-maximized="1" />
  <metadata
     id="metadata7">
    <rdf:RDF>
      <cc:Work
         rdf:about="">
        <dc:format>image/svg+xml</dc:format>
        <dc:type
           rdf:resource="http://purl.org/dc/dcmitype/StillImage" />
        <dc:title></dc:title>
      </cc:Work>
    </rdf:RDF>
  </metadata>
  <g
     inkscape:label="Layer 1"
     inkscape:groupmode="layer"
     id="layer1">
    <g
       id="g3373"
       transform="matrix(16.987307,0,0,16.987307,24.147126,73.136211)">
      <g
         id="g3425"
         transform="matrix(0.90501482,0,0,0.90501482,0.44148443,4.3077734)">
        <g
           id="g3499"
           transform="matrix(0.82324267,0,0,0.82324267,-1.4023137,1.8296705)">
          <g
             id="g3554"
             transform="matrix(0.98048093,0,0,0.98048093,1.4938995,14.899366)">
            <g
               id="g4519"
               transform="matrix(1.2057125,0,0,1.2057124,-69.208197,-11.145075)">
              <g
                 id="g4572"
                 transform="matrix(0.95289213,0,0,0.95289222,58.679264,-9.3133128)">
                <path
                   style="fill:none;stroke:#1f1a17;stroke-width:0.35139164px;stroke-linecap:round;stroke-linejoin:round;stroke-miterlimit:4;stroke-dasharray:none;stroke-opacity:1"
                   d="m 12.347504,24.171458 c 0.02391,-6.151492 -0.04783,-12.307877 0.03586,-18.4563169 0.107015,-1.1845912 1.232913,-2.093014 2.419925,-1.8215499 1.565324,0.2725219 2.790606,-1.7308561 1.764294,-2.9697996 C 15.629748,-0.29426176 13.926189,0.32746979 12.623805,0.1756494 8.9414088,0.21545042 5.2460403,0.09652697 1.5716015,0.2342001 c -1.59402099,0.32059179 -1.89144063,2.7369511 -0.422971,3.4349461 1.0687024,0.5708737 2.6463592,-0.2861596 3.3870324,0.97259 0.8511589,1.3959983 0.3076361,3.1276549 0.462004,4.6713374 -0.015192,12.3016474 0.03038,24.6058344 -0.02278,36.9058954 -0.05803,1.224099 -1.204318,2.218759 -2.436156,1.932144 -1.3957812,-0.309926 -2.81290826,1.119407 -2.2490548,2.49822 0.43147194,1.317236 1.976978,1.302861 3.1088485,1.2198 4.0463862,-0.03982 8.1057304,0.07922 12.1441484,-0.05872 1.594171,-0.320679 1.89064,-2.736094 0.42298,-3.43492 -1.000588,-0.532451 -2.474512,0.227547 -3.156039,-0.96946 -0.851829,-1.397088 -0.307493,-3.129793 -0.46211,-4.674599 l 0,-14.858272 19.550945,0 c -0.02371,6.151483 0.04742,12.307558 -0.03556,18.456176 -0.107583,1.186202 -1.235414,2.093071 -2.423205,1.821795 -1.515857,-0.306224 -2.835778,1.512786 -1.959587,2.82334 0.865303,1.392614 2.702695,0.750282 4.044498,0.89467 3.681385,-0.03994 7.375765,0.07938 11.049181,-0.05872 1.593733,-0.321368 1.890997,-2.736379 0.42277,-3.43494 -1.038472,-0.555746 -2.574906,0.261797 -3.285918,-0.97257 -0.853258,-1.394519 -0.306889,-3.12812 -0.46231,-4.671489 0.0132,-12.300587 -0.0264,-24.602945 0.0198,-36.9024244 0.06184,-1.2253058 1.203407,-2.2237387 2.439285,-1.9353984 1.485187,0.3096625 2.833103,-1.4120385 2.037603,-2.745357 C 42.957242,-0.29448985 41.114033,0.29259231 39.791439,0.1756594 36.06349,0.2154678 32.322772,0.09652687 28.602657,0.2342101 c -1.633977,0.32949171 -1.880622,2.8386383 -0.33839,3.4739771 1.020163,0.467826 2.488566,-0.2580216 3.172192,0.933559 0.851515,1.3958668 0.307407,3.1276839 0.46199,4.6713374 l 0,14.8583844 c -6.516978,-7e-6 -13.033983,1.3e-5 -19.550945,-10e-6 z"
                   id="path4557"
                   inkscape:connector-curvature="0"
                   sodipodi:nodetypes="ccccccccccccccccccccccccccccccccccccc" />
                <path
                   style="fill:none;stroke:#1f1a17;stroke-width:0.35139164px;stroke-linecap:round;stroke-linejoin:round;stroke-miterlimit:4;stroke-dasharray:none;stroke-opacity:1"
                   d="m 9.1264176,7.6538102 c 0.063625,1.0814002 -1.6344084,1.3761942 -1.948919,0.34479 -0.383996,-1.1804139 1.6907059,-1.8506634 1.948919,-0.34479 z"
                   id="path4561"
                   inkscape:connector-curvature="0"
                   sodipodi:nodetypes="ccc" />
                <path
                   style="fill:none;stroke:#1f1a17;stroke-width:0.35139164px;stroke-linecap:round;stroke-linejoin:round;stroke-miterlimit:4;stroke-dasharray:none;stroke-opacity:1"
                   d="m 34.628384,44.543698 c -0.06035,-1.07989 1.635636,-1.373515 1.94877,-0.34148 0.535283,1.463349 -1.95989,1.882582 -1.94877,0.34148 z"
                   id="path4565"
                   inkscape:connector-curvature="0"
                   sodipodi:nodetypes="ccc" />
              </g>
            </g>
          </g>
        </g>
      </g>
    </g>
  </g>
</svg>
