<?xml version="1.0" encoding="UTF-8" standalone="no"?>
<!-- Created with Inkscape (http://www.inkscape.org/) -->

<svg
   xmlns:dc="http://purl.org/dc/elements/1.1/"
   xmlns:cc="http://creativecommons.org/ns#"
   xmlns:rdf="http://www.w3.org/1999/02/22-rdf-syntax-ns#"
   xmlns:svg="http://www.w3.org/2000/svg"
   xmlns="http://www.w3.org/2000/svg"
   xmlns:sodipodi="http://sodipodi.sourceforge.net/DTD/sodipodi-0.dtd"
   xmlns:inkscape="http://www.inkscape.org/namespaces/inkscape"
   width="210mm"
   height="297mm"
   viewBox="0 0 744.09448819 1052.3622047"
   id="svg2"
   version="1.1"
   inkscape:version="0.91 r"
   sodipodi:docname="О.svg">
  <defs
     id="defs4">
    <pattern
       y="0"
       x="0"
       height="6"
       width="6"
       patternUnits="userSpaceOnUse"
       id="WMFhbasepattern" />
    <pattern
       y="0"
       x="0"
       height="6"
       width="6"
       patternUnits="userSpaceOnUse"
       id="WMFhbasepattern-9" />
    <pattern
       y="0"
       x="0"
       height="6"
       width="6"
       patternUnits="userSpaceOnUse"
       id="WMFhbasepattern-4" />
    <pattern
       y="0"
       x="0"
       height="6"
       width="6"
       patternUnits="userSpaceOnUse"
       id="WMFhbasepattern-48" />
    <pattern
       y="0"
       x="0"
       height="6"
       width="6"
       patternUnits="userSpaceOnUse"
       id="WMFhbasepattern-6" />
    <pattern
       y="0"
       x="0"
       height="6"
       width="6"
       patternUnits="userSpaceOnUse"
       id="WMFhbasepattern-1" />
    <pattern
       y="0"
       x="0"
       height="6"
       width="6"
       patternUnits="userSpaceOnUse"
       id="WMFhbasepattern-91" />
    <pattern
       y="0"
       x="0"
       height="6"
       width="6"
       patternUnits="userSpaceOnUse"
       id="WMFhbasepattern-2" />
    <pattern
       y="0"
       x="0"
       height="6"
       width="6"
       patternUnits="userSpaceOnUse"
       id="WMFhbasepattern-0" />
  </defs>
  <sodipodi:namedview
     id="base"
     pagecolor="#005300"
     bordercolor="#666666"
     borderopacity="1.0"
     inkscape:pageopacity="0"
     inkscape:pageshadow="2"
     inkscape:zoom="0.9899495"
     inkscape:cx="450.33306"
     inkscape:cy="477.06012"
     inkscape:document-units="px"
     inkscape:current-layer="g4786"
     showgrid="false"
     inkscape:window-width="1920"
     inkscape:window-height="1058"
     inkscape:window-x="1280"
     inkscape:window-y="0"
     inkscape:window-maximized="1" />
  <metadata
     id="metadata7">
    <rdf:RDF>
      <cc:Work
         rdf:about="">
        <dc:format>image/svg+xml</dc:format>
        <dc:type
           rdf:resource="http://purl.org/dc/dcmitype/StillImage" />
        <dc:title></dc:title>
      </cc:Work>
    </rdf:RDF>
  </metadata>
  <g
     inkscape:label="Layer 1"
     inkscape:groupmode="layer"
     id="layer1">
    <g
       id="g3373"
       transform="matrix(16.987307,0,0,16.987307,24.147126,73.136211)">
      <g
         id="g3425"
         transform="matrix(0.90501482,0,0,0.90501482,0.44148443,4.3077734)">
        <g
           id="g3499"
           transform="matrix(0.82324267,0,0,0.82324267,-1.4023137,1.8296705)">
          <g
             id="g3554"
             transform="matrix(0.98048093,0,0,0.98048093,1.4938995,14.899366)">
            <g
               id="g4519"
               transform="matrix(1.2057125,0,0,1.2057124,-69.208197,-11.145075)">
              <g
                 id="g4572"
                 transform="matrix(0.95289213,0,0,0.95289222,58.679264,-9.3133128)">
                <g
                   id="g4681"
                   transform="matrix(1.1089091,0,0,1.1089091,-0.35945327,1.9838621)">
                  <g
                     id="g4786"
                     transform="matrix(0.76532773,0,0,0.76532773,1.1357155,11.699477)">
                    <path
                       style="fill:none;stroke:#1f1a17;stroke-width:0.3527315px;stroke-linecap:round;stroke-linejoin:round;stroke-miterlimit:4;stroke-dasharray:none;stroke-opacity:1"
                       d="m 0.34619918,28.306607 c 0.172947,2.894643 1.00718452,5.733732 2.20644872,8.361073 2.4450421,5.549331 7.017376,10.065856 12.4683891,12.669056 1.808829,0.827939 3.68282,1.491552 5.646302,1.86562 5.011481,1.170097 10.353898,0.623409 15.12502,-1.237508 1.762111,-0.713161 3.482052,-1.528589 5.006984,-2.673412 2.502153,-1.645641 4.596754,-3.885846 6.453127,-6.221536 1.180922,-1.768243 2.224657,-3.620896 3.025934,-5.598112 1.924387,-4.957045 2.384513,-10.51398 1.025272,-15.679846 C 50.49599,16.364317 48.919096,13.138786 46.803872,10.332413 44.175857,7.0295827 40.875094,4.1978232 36.977169,2.5044146 34.743043,1.463999 32.334277,0.81559107 29.910459,0.41213798 25.960955,-0.11173031 21.882244,0.16025201 18.097077,1.438433 14.842812,2.4125788 11.878495,4.193805 9.2652842,6.3386098 5.5168691,9.5469796 2.690351,13.860783 1.3101626,18.606901 0.48180914,21.114021 0.23468172,23.767169 0.20816221,26.391513 Z"
                       id="path4773"
                       inkscape:connector-curvature="0"
                       sodipodi:nodetypes="ccccccccccccccccc" />
                    <path
                       style="fill:none;stroke:#1f1a17;stroke-width:0.3527315px;stroke-linecap:round;stroke-linejoin:round;stroke-miterlimit:4;stroke-dasharray:none;stroke-opacity:1"
                       d="m 4.9088604,25.781169 c 0.3592338,1.251133 -1.763708,1.674817 -1.9400237,0.423051 -0.366364,-1.253066 1.7028379,-1.686642 1.9400237,-0.423051 z"
                       id="path4775"
                       inkscape:connector-curvature="0"
                       sodipodi:nodetypes="ccc" />
                    <path
                       style="fill:none;stroke:#1f1a17;stroke-width:0.3527315px;stroke-linecap:round;stroke-linejoin:round;stroke-miterlimit:4;stroke-dasharray:none;stroke-opacity:1"
                       d="M 8.4622922,32.432978 C 7.2424019,28.05487 7.3255792,23.333161 8.6049252,18.976845 9.5372844,15.329349 11.448681,11.954841 14.014299,9.2133905 15.751943,7.580301 17.662406,6.0575709 19.873807,5.1451651 c 1.803976,-0.8016895 3.730305,-1.222811 5.701944,-1.2920358 2.37046,-0.068863 4.787133,0.3131771 6.943975,1.346522 3.301106,1.3943948 6.067445,3.9306953 8.058394,6.8929297 1.244135,1.916501 2.25713,3.955693 2.944398,6.134319 1.600248,5.393017 1.546023,11.344125 -0.404417,16.638752 -1.096996,3.000796 -2.790511,5.793046 -5.053168,8.059605 -2.108989,2.21677 -4.883981,3.811262 -7.805851,4.667709 -2.317434,0.619807 -4.768034,0.721526 -7.120973,0.256732 C 19.65256,47.154322 16.45892,45.220565 13.984663,42.693268 11.268534,39.832017 9.357482,36.273476 8.4622922,32.432978 Z"
                       id="path4777"
                       inkscape:connector-curvature="0"
                       sodipodi:nodetypes="cccccccccccccc" />
                    <path
                       style="fill:none;stroke:#1f1a17;stroke-width:0.3527315px;stroke-linecap:round;stroke-linejoin:round;stroke-miterlimit:4;stroke-dasharray:none;stroke-opacity:1"
                       d="m 47.514369,26.454806 c -0.602065,-0.986599 0.868536,-1.940206 1.626196,-1.158656 0.572037,1.275184 -0.716034,2.113854 -1.626196,1.158656 z"
                       id="path4779"
                       inkscape:connector-curvature="0"
                       sodipodi:nodetypes="ccc" />
                  </g>
                </g>
              </g>
            </g>
          </g>
        </g>
      </g>
    </g>
  </g>
</svg>
