<?xml version="1.0" encoding="UTF-8" standalone="no"?>
<!-- Created with Inkscape (http://www.inkscape.org/) -->

<svg
   xmlns:dc="http://purl.org/dc/elements/1.1/"
   xmlns:cc="http://creativecommons.org/ns#"
   xmlns:rdf="http://www.w3.org/1999/02/22-rdf-syntax-ns#"
   xmlns:svg="http://www.w3.org/2000/svg"
   xmlns="http://www.w3.org/2000/svg"
   xmlns:sodipodi="http://sodipodi.sourceforge.net/DTD/sodipodi-0.dtd"
   xmlns:inkscape="http://www.inkscape.org/namespaces/inkscape"
   width="210mm"
   height="297mm"
   viewBox="0 0 744.09448819 1052.3622047"
   id="svg2"
   version="1.1"
   inkscape:version="0.91 r"
   sodipodi:docname="П.svg">
  <defs
     id="defs4">
    <pattern
       y="0"
       x="0"
       height="6"
       width="6"
       patternUnits="userSpaceOnUse"
       id="WMFhbasepattern" />
    <pattern
       y="0"
       x="0"
       height="6"
       width="6"
       patternUnits="userSpaceOnUse"
       id="WMFhbasepattern-9" />
    <pattern
       y="0"
       x="0"
       height="6"
       width="6"
       patternUnits="userSpaceOnUse"
       id="WMFhbasepattern-4" />
    <pattern
       y="0"
       x="0"
       height="6"
       width="6"
       patternUnits="userSpaceOnUse"
       id="WMFhbasepattern-48" />
    <pattern
       y="0"
       x="0"
       height="6"
       width="6"
       patternUnits="userSpaceOnUse"
       id="WMFhbasepattern-6" />
    <pattern
       y="0"
       x="0"
       height="6"
       width="6"
       patternUnits="userSpaceOnUse"
       id="WMFhbasepattern-1" />
    <pattern
       y="0"
       x="0"
       height="6"
       width="6"
       patternUnits="userSpaceOnUse"
       id="WMFhbasepattern-91" />
    <pattern
       y="0"
       x="0"
       height="6"
       width="6"
       patternUnits="userSpaceOnUse"
       id="WMFhbasepattern-2" />
    <pattern
       y="0"
       x="0"
       height="6"
       width="6"
       patternUnits="userSpaceOnUse"
       id="WMFhbasepattern-0" />
    <pattern
       y="0"
       x="0"
       height="6"
       width="6"
       patternUnits="userSpaceOnUse"
       id="WMFhbasepattern-14" />
    <pattern
       y="0"
       x="0"
       height="6"
       width="6"
       patternUnits="userSpaceOnUse"
       id="WMFhbasepattern-3" />
  </defs>
  <sodipodi:namedview
     id="base"
     pagecolor="#005300"
     bordercolor="#666666"
     borderopacity="1.0"
     inkscape:pageopacity="0"
     inkscape:pageshadow="2"
     inkscape:zoom="0.9899495"
     inkscape:cx="618.74646"
     inkscape:cy="523.29937"
     inkscape:document-units="px"
     inkscape:current-layer="g4940"
     showgrid="false"
     inkscape:window-width="1920"
     inkscape:window-height="1058"
     inkscape:window-x="1280"
     inkscape:window-y="0"
     inkscape:window-maximized="1" />
  <metadata
     id="metadata7">
    <rdf:RDF>
      <cc:Work
         rdf:about="">
        <dc:format>image/svg+xml</dc:format>
        <dc:type
           rdf:resource="http://purl.org/dc/dcmitype/StillImage" />
        <dc:title></dc:title>
      </cc:Work>
    </rdf:RDF>
  </metadata>
  <g
     inkscape:label="Layer 1"
     inkscape:groupmode="layer"
     id="layer1">
    <g
       id="g3373"
       transform="matrix(16.987307,0,0,16.987307,24.147126,73.136211)">
      <g
         id="g3425"
         transform="matrix(0.90501482,0,0,0.90501482,0.44148443,4.3077734)">
        <g
           id="g3499"
           transform="matrix(0.82324267,0,0,0.82324267,-1.4023137,1.8296705)">
          <g
             id="g3554"
             transform="matrix(0.98048093,0,0,0.98048093,1.4938995,14.899366)">
            <g
               id="g4519"
               transform="matrix(1.2057125,0,0,1.2057124,-69.208197,-11.145075)">
              <g
                 id="g4572"
                 transform="matrix(0.95289213,0,0,0.95289222,58.679264,-9.3133128)">
                <g
                   id="g4681"
                   transform="matrix(1.1089091,0,0,1.1089091,-0.35945327,1.9838621)">
                  <g
                     id="g4786"
                     transform="matrix(0.76532773,0,0,0.76532773,1.1357155,11.699477)">
                    <g
                       id="g4863"
                       transform="matrix(1.2819231,0,0,1.2819231,2.6268539,-23.202566)">
                      <g
                         id="g4940"
                         transform="matrix(1.0411,0,0,1.0411,-0.92062959,4.4778374)">
                        <path
                           style="fill:none;stroke:#1f1a17;stroke-width:0.35116807px;stroke-linecap:round;stroke-linejoin:round;stroke-miterlimit:4;stroke-dasharray:none;stroke-opacity:1"
                           d="m 11.409708,45.848411 0,-40.467675 14.264584,0 c -0.01515,13.604897 0.03029,27.212366 -0.02271,40.815655 -0.06084,1.192966 -1.150416,2.185429 -2.360589,1.940872 -1.808669,0.191447 -2.032191,3.077928 -0.32839,3.62176 4.305544,0.03008 8.704652,0.273829 12.687511,0.02625 1.732366,-0.46176 1.623487,-3.349544 -0.16256,-3.63503 -0.964555,0.127908 -2.005842,-0.314089 -2.292216,-1.3135 -0.435999,-13.758522 -0.199672,-28.85908 -0.15607,-41.0138594 0.06925,-1.1419884 1.090074,-2.1756273 2.279236,-1.9344612 1.826131,-0.095237 2.158618,-2.9786325 0.48767,-3.599069 C 24.35021,0.02191428 11.747443,0.14696456 1.5966012,0.1983198 c -1.7863649,0.28408246 -1.89515141,3.1744204 -0.162578,3.6348446 0.8467918,0.031753 1.8672944,0.068071 2.279345,0.975357 0.9490551,13.7689936 0.3739146,29.1800706 0.331667,41.3878596 -0.065452,1.192757 -1.1520301,2.186328 -2.363894,1.940882 -1.80742887,0.192279 -2.02946612,3.076882 -0.328406,3.62176 4.305718,0.02985 8.7045048,0.27408 12.6875558,0.02625 1.734676,-0.45948 1.624995,-3.351098 -0.16258,-3.63502 -0.964525,0.127373 -2.00441,-0.31514 -2.292289,-1.31349 -0.119749,-0.314927 -0.172812,-0.65249 -0.175714,-0.988352 z"
                           id="path4925"
                           inkscape:connector-curvature="0"
                           sodipodi:nodetypes="cccccccccccccccccccccc" />
                        <path
                           style="fill:none;stroke:#1f1a17;stroke-width:0.35116807px;stroke-linecap:round;stroke-linejoin:round;stroke-miterlimit:4;stroke-dasharray:none;stroke-opacity:1"
                           d="m 28.194254,7.5655311 c -0.06149,-1.0800154 1.634317,-1.3771027 1.94763,-0.344622 0.273755,1.3335745 -1.922302,1.908112 -1.94763,0.344622 z"
                           id="path4929"
                           inkscape:connector-curvature="0"
                           sodipodi:nodetypes="ccc" />
                        <path
                           style="fill:none;stroke:#1f1a17;stroke-width:0.35116807px;stroke-linecap:round;stroke-linejoin:round;stroke-miterlimit:4;stroke-dasharray:none;stroke-opacity:1"
                           d="m 6.9225724,44.333442 c -0.061648,-1.080155 1.6345457,-1.377234 1.947671,-0.34459 0.4400484,1.449543 -1.5136939,1.918941 -1.947671,0.34459 z"
                           id="path4933"
                           inkscape:connector-curvature="0"
                           sodipodi:nodetypes="ccc" />
                      </g>
                    </g>
                  </g>
                </g>
              </g>
            </g>
          </g>
        </g>
      </g>
    </g>
  </g>
</svg>
