<?xml version="1.0" encoding="UTF-8" standalone="no"?>
<!-- Created with Inkscape (http://www.inkscape.org/) -->

<svg
   xmlns:dc="http://purl.org/dc/elements/1.1/"
   xmlns:cc="http://creativecommons.org/ns#"
   xmlns:rdf="http://www.w3.org/1999/02/22-rdf-syntax-ns#"
   xmlns:svg="http://www.w3.org/2000/svg"
   xmlns="http://www.w3.org/2000/svg"
   xmlns:sodipodi="http://sodipodi.sourceforge.net/DTD/sodipodi-0.dtd"
   xmlns:inkscape="http://www.inkscape.org/namespaces/inkscape"
   width="210mm"
   height="297mm"
   viewBox="0 0 744.09448819 1052.3622047"
   id="svg2"
   version="1.1"
   inkscape:version="0.91 r"
   sodipodi:docname="ла.svg">
  <defs
     id="defs4">
    <pattern
       y="0"
       x="0"
       height="6"
       width="6"
       patternUnits="userSpaceOnUse"
       id="WMFhbasepattern" />
    <pattern
       y="0"
       x="0"
       height="6"
       width="6"
       patternUnits="userSpaceOnUse"
       id="WMFhbasepattern-9" />
    <pattern
       y="0"
       x="0"
       height="6"
       width="6"
       patternUnits="userSpaceOnUse"
       id="WMFhbasepattern-4" />
    <pattern
       y="0"
       x="0"
       height="6"
       width="6"
       patternUnits="userSpaceOnUse"
       id="WMFhbasepattern-48" />
    <pattern
       y="0"
       x="0"
       height="6"
       width="6"
       patternUnits="userSpaceOnUse"
       id="WMFhbasepattern-6" />
    <pattern
       y="0"
       x="0"
       height="6"
       width="6"
       patternUnits="userSpaceOnUse"
       id="WMFhbasepattern-1" />
    <pattern
       y="0"
       x="0"
       height="6"
       width="6"
       patternUnits="userSpaceOnUse"
       id="WMFhbasepattern-91" />
    <pattern
       y="0"
       x="0"
       height="6"
       width="6"
       patternUnits="userSpaceOnUse"
       id="WMFhbasepattern-2" />
    <pattern
       y="0"
       x="0"
       height="6"
       width="6"
       patternUnits="userSpaceOnUse"
       id="WMFhbasepattern-0" />
    <pattern
       y="0"
       x="0"
       height="6"
       width="6"
       patternUnits="userSpaceOnUse"
       id="WMFhbasepattern-14" />
  </defs>
  <sodipodi:namedview
     id="base"
     pagecolor="#005300"
     bordercolor="#666666"
     borderopacity="1.0"
     inkscape:pageopacity="0"
     inkscape:pageshadow="2"
     inkscape:zoom="1.979899"
     inkscape:cx="486.90859"
     inkscape:cy="805.73225"
     inkscape:document-units="px"
     inkscape:current-layer="g4863"
     showgrid="false"
     inkscape:window-width="1920"
     inkscape:window-height="1058"
     inkscape:window-x="1280"
     inkscape:window-y="0"
     inkscape:window-maximized="1" />
  <metadata
     id="metadata7">
    <rdf:RDF>
      <cc:Work
         rdf:about="">
        <dc:format>image/svg+xml</dc:format>
        <dc:type
           rdf:resource="http://purl.org/dc/dcmitype/StillImage" />
        <dc:title></dc:title>
      </cc:Work>
    </rdf:RDF>
  </metadata>
  <g
     inkscape:label="Layer 1"
     inkscape:groupmode="layer"
     id="layer1">
    <g
       id="g3373"
       transform="matrix(16.987307,0,0,16.987307,24.147126,73.136211)">
      <g
         id="g3425"
         transform="matrix(0.90501482,0,0,0.90501482,0.44148443,4.3077734)">
        <g
           id="g3499"
           transform="matrix(0.82324267,0,0,0.82324267,-1.4023137,1.8296705)">
          <g
             id="g3554"
             transform="matrix(0.98048093,0,0,0.98048093,1.4938995,14.899366)">
            <g
               id="g4519"
               transform="matrix(1.2057125,0,0,1.2057124,-69.208197,-11.145075)">
              <g
                 id="g4572"
                 transform="matrix(0.95289213,0,0,0.95289222,58.679264,-9.3133128)">
                <g
                   id="g4681"
                   transform="matrix(1.1089091,0,0,1.1089091,-0.35945327,1.9838621)">
                  <g
                     id="g4786"
                     transform="matrix(0.76532773,0,0,0.76532773,1.1357155,11.699477)">
                    <g
                       id="g4863"
                       transform="matrix(1.2819231,0,0,1.2819231,2.6268539,-23.202566)">
                      <path
                         style="fill:none;stroke:#1f1a17;stroke-width:0.35135928px;stroke-linecap:round;stroke-linejoin:round;stroke-miterlimit:4;stroke-dasharray:none;stroke-opacity:1"
                         d="m 11.35411,45.870707 c -0.0022,-6.634565 -0.0043,-13.269129 -0.0065,-19.903694 4.849732,-0.0404 9.704566,0.07619 14.551144,-0.06264 C 31.568003,25.504669 37.154091,21.65814 38.609591,16.004907 39.920382,11.314144 37.808571,6.1202323 33.934913,3.2875847 30.804992,0.83322392 26.725816,-0.04021488 22.813763,0.1756506 15.715522,0.20174645 8.6093429,0.12350688 1.5160485,0.2146845 c -1.85833628,0.45960315 -1.63905506,3.71748 0.328587,3.7764797 1.481498,-0.2653149 2.3929524,1.377178 2.1992498,2.671028 -0.013002,13.1853798 0.026007,26.3724698 -0.01951,39.5567798 -0.06603,1.187967 -1.1403676,2.188305 -2.3521668,1.941743 -1.84012148,0.202221 -2.00815365,3.178689 -0.243999,3.64968 3.6888986,0.137503 7.4009922,0.01922 11.0987525,0.05872 1.006989,0.14316 2.29303,-0.0746 2.591283,-1.21978 0.491034,-1.252576 -0.626655,-2.784062 -2.000838,-2.49822 -1.140054,-0.01599 -1.784873,-1.264398 -1.763297,-2.280408 z"
                         id="path4842"
                         inkscape:connector-curvature="0"
                         sodipodi:nodetypes="cccccccccccccccc" />
                      <path
                         style="fill:none;stroke:#1f1a17;stroke-width:0.35135928px;stroke-linecap:round;stroke-linejoin:round;stroke-miterlimit:4;stroke-dasharray:none;stroke-opacity:1"
                         d="m 7.749427,45.841659 c -1.0431639,0.390589 -1.8091428,-1.211524 -0.855641,-1.78249 1.2692905,-0.523948 1.9376715,1.44695 0.855641,1.78249 z"
                         id="path4844"
                         inkscape:connector-curvature="0"
                         sodipodi:nodetypes="ccc" />
                      <path
                         style="fill:none;stroke:#1f1a17;stroke-width:0.35135928px;stroke-linecap:round;stroke-linejoin:round;stroke-miterlimit:4;stroke-dasharray:none;stroke-opacity:1"
                         d="m 11.347591,21.585484 0,-17.2462609 c 3.934771,0.03036 7.874887,-0.060734 11.806343,0.045518 3.53638,0.4987368 5.732466,4.0742213 6.044405,7.4028949 0.425565,3.657037 -1.136713,7.930503 -4.717057,9.436798 -4.340525,0.710554 -8.569075,0.373088 -13.133691,0.361054 z"
                         id="path4850"
                         inkscape:connector-curvature="0"
                         sodipodi:nodetypes="ccccccc" />
                      <path
                         style="fill:none;stroke:#1f1a17;stroke-width:0.35135928px;stroke-linecap:round;stroke-linejoin:round;stroke-miterlimit:4;stroke-dasharray:none;stroke-opacity:1"
                         d="m 32.259967,7.2374443 c 1.042314,-0.3936376 1.811328,1.2119516 0.85569,1.782547 -1.270655,0.5213167 -1.935481,-1.447459 -0.85569,-1.782547 z"
                         id="path4852"
                         inkscape:connector-curvature="0"
                         sodipodi:nodetypes="ccc" />
                    </g>
                  </g>
                </g>
              </g>
            </g>
          </g>
        </g>
      </g>
    </g>
  </g>
</svg>
