<?xml version="1.0" encoding="UTF-8" standalone="no"?>
<!-- Created with Inkscape (http://www.inkscape.org/) -->

<svg
   xmlns:dc="http://purl.org/dc/elements/1.1/"
   xmlns:cc="http://creativecommons.org/ns#"
   xmlns:rdf="http://www.w3.org/1999/02/22-rdf-syntax-ns#"
   xmlns:svg="http://www.w3.org/2000/svg"
   xmlns="http://www.w3.org/2000/svg"
   xmlns:sodipodi="http://sodipodi.sourceforge.net/DTD/sodipodi-0.dtd"
   xmlns:inkscape="http://www.inkscape.org/namespaces/inkscape"
   sodipodi:docname="т.svg"
   version="1.1"
   inkscape:version="0.91 r"
   viewBox="0 0 100 100"
   id="svg4087">
  <defs
     id="defs4089">
    <pattern
       y="0"
       x="0"
       height="6"
       width="6"
       patternUnits="userSpaceOnUse"
       id="WMFhbasepattern" />
    <pattern
       y="0"
       x="0"
       height="6"
       width="6"
       patternUnits="userSpaceOnUse"
       id="WMFhbasepattern-7" />
  </defs>
  <sodipodi:namedview
     bordercolor="#666666"
     inkscape:pageshadow="2"
     inkscape:window-y="0"
     pagecolor="#005528"
     inkscape:window-height="1058"
     inkscape:window-maximized="1"
     inkscape:zoom="8"
     inkscape:window-x="1280"
     showgrid="false"
     borderopacity="1.0"
     inkscape:current-layer="g4493"
     inkscape:cx="27.543256"
     inkscape:cy="60.017167"
     inkscape:window-width="1920"
     inkscape:pageopacity="1"
     inkscape:document-units="px"
     id="namedview4091" />
  <metadata
     id="metadata4093">
    <rdf:RDF>
      <cc:Work
         rdf:about="">
        <dc:format>image/svg+xml</dc:format>
        <dc:type
           rdf:resource="http://purl.org/dc/dcmitype/StillImage" />
        <dc:title></dc:title>
      </cc:Work>
    </rdf:RDF>
  </metadata>
  <g
     fill-rule="evenodd"
     inkscape:label="Layer 1"
     inkscape:groupmode="layer"
     transform="translate(0,-952.36218)"
     id="g4095">
    <g
       id="g4493"
       transform="matrix(3.543307,0,0,3.543307,-111.61069,930.90231)">
      <path
         style="fill:none;stroke:#1f1a17;stroke-width:0.1861684px;stroke-linecap:round;stroke-linejoin:round;stroke-miterlimit:4;stroke-dasharray:none;stroke-opacity:1"
         d="m 43.624423,9.0636628 c -0.01381,7.3520402 0.0276,14.7071122 -0.02066,22.0572622 -0.05297,0.671455 -0.69387,1.089466 -1.33248,0.986282 -1.021507,0.212447 -0.883211,1.952603 0.179269,1.95023 2.165986,-0.03219 4.346251,0.06289 6.503834,-0.04477 0.998787,-0.31487 0.707976,-2.047667 -0.369193,-1.926124 -0.956663,0.07023 -1.188071,-1.110845 -1.066731,-1.841349 l 0,-21.1815176 c 2.664432,-0.1403783 5.67583,0.713813 7.162372,3.0847776 0.468148,0.736314 1.917244,0.485445 1.697879,-0.515576 -0.568122,-1.68524 -1.3226,-3.3137952 -1.959959,-4.9780708 l -17.64981,0 c -0.637861,1.6641192 -1.391082,3.2931274 -1.959935,4.9780708 -0.214612,0.934012 1.115273,1.259822 1.627245,0.596615 2.082453,-2.126025 4.63306,-3.2677929 7.188169,-3.1658302 z"
         id="path4482"
         inkscape:connector-curvature="0"
         sodipodi:nodetypes="ccccccccccccccc" />
      <path
         style="fill:none;stroke:#1f1a17;stroke-width:0.1861684px;stroke-linecap:round;stroke-linejoin:round;stroke-miterlimit:4;stroke-dasharray:none;stroke-opacity:1"
         d="m 45.528109,10.459622 c 0.523553,-0.0085 0.934166,0.776814 0.163706,1.001623 -0.773537,0.154992 -0.878114,-0.909879 -0.163706,-1.001623 z"
         id="path4484"
         inkscape:connector-curvature="0"
         sodipodi:nodetypes="ccc" />
      <path
         style="fill:none;stroke:#1f1a17;stroke-width:0.1861684px;stroke-linecap:round;stroke-linejoin:round;stroke-miterlimit:4;stroke-dasharray:none;stroke-opacity:1"
         d="m 45.594714,30.058733 c 0.675754,0.02392 0.635162,1.031678 0.09985,1.050212 -0.835591,0.0787 -0.646977,-1.032029 -0.09985,-1.050212 z"
         id="path4486"
         inkscape:connector-curvature="0"
         sodipodi:nodetypes="ccc" />
    </g>
  </g>
</svg>
