<?xml version="1.0" encoding="UTF-8" standalone="no"?>
<!-- Created with Inkscape (http://www.inkscape.org/) -->

<svg
   xmlns:dc="http://purl.org/dc/elements/1.1/"
   xmlns:cc="http://creativecommons.org/ns#"
   xmlns:rdf="http://www.w3.org/1999/02/22-rdf-syntax-ns#"
   xmlns:svg="http://www.w3.org/2000/svg"
   xmlns="http://www.w3.org/2000/svg"
   xmlns:sodipodi="http://sodipodi.sourceforge.net/DTD/sodipodi-0.dtd"
   xmlns:inkscape="http://www.inkscape.org/namespaces/inkscape"
   sodipodi:docname="у.svg"
   version="1.1"
   inkscape:version="0.91 r"
   viewBox="0 0 100 100"
   id="svg4087">
  <defs
     id="defs4089">
    <pattern
       y="0"
       x="0"
       height="6"
       width="6"
       patternUnits="userSpaceOnUse"
       id="WMFhbasepattern" />
    <pattern
       y="0"
       x="0"
       height="6"
       width="6"
       patternUnits="userSpaceOnUse"
       id="WMFhbasepattern-7" />
  </defs>
  <sodipodi:namedview
     bordercolor="#666666"
     inkscape:pageshadow="2"
     inkscape:window-y="0"
     pagecolor="#005528"
     inkscape:window-height="1058"
     inkscape:window-maximized="1"
     inkscape:zoom="5.6568545"
     inkscape:window-x="1280"
     showgrid="false"
     borderopacity="1.0"
     inkscape:current-layer="g9104"
     inkscape:cx="36.739142"
     inkscape:cy="46.720704"
     inkscape:window-width="1920"
     inkscape:pageopacity="1"
     inkscape:document-units="px"
     id="namedview4091" />
  <metadata
     id="metadata4093">
    <rdf:RDF>
      <cc:Work
         rdf:about="">
        <dc:format>image/svg+xml</dc:format>
        <dc:type
           rdf:resource="http://purl.org/dc/dcmitype/StillImage" />
        <dc:title />
      </cc:Work>
    </rdf:RDF>
  </metadata>
  <g
     fill-rule="evenodd"
     inkscape:label="Layer 1"
     inkscape:groupmode="layer"
     transform="translate(0,-952.36218)"
     id="g4095">
    <g
       id="g4493"
       transform="matrix(3.543307,0,0,3.543307,-111.61069,930.90231)">
      <g
         id="g9104"
         transform="matrix(0.28222223,0,0,0.28222223,-39.595867,-98.333175)">
        <path
           style="fill:#cbc9a5;fill-opacity:0;fill-rule:evenodd;stroke:#1f1a17;stroke-width:0.99779999;stroke-linecap:butt;stroke-linejoin:miter;stroke-dasharray:none"
           d="m 271.6977,386.6664 21.5662,62.9132 c -2.68129,3.47955 -7.08142,6.22837 -11.61394,5.13393 -0.68767,-0.29966 -2.65163,-0.22013 -1.75256,-1.28033 2.06864,-4.21897 -0.76605,-9.81468 -5.4161,-10.6059 -4.75129,-1.16781 -9.80519,3.26206 -9.09152,8.13728 0.79032,8.05001 8.7404,13.99022 16.59121,13.824 8.27082,0.0283 15.4081,-5.43779 20.21093,-11.76357 3.88963,-5.23795 7.04493,-11.09441 9.03779,-17.31118 5.12117,-17.01272 10.12949,-34.06721 15.32059,-51.05403 0.42982,-1.18387 1.71855,-1.20612 2.7057,-1.5137 2.40177,-1.37065 1.73974,-6.29742 -1.36551,-6.0546 -4.4844,0.069 -8.99825,-0.13664 -13.46479,0.1002 -2.80026,1.09387 -2.18414,6.51746 1.1033,6.2202 2.34674,0.54376 2.50897,3.64186 1.59339,5.45181 -4.58698,14.37707 -9.04716,28.81023 -13.71269,43.15249 -0.43615,1.08601 -1.91391,0.76169 -2.1345,-0.2937 -4.99758,-14.70912 -10.26014,-29.3454 -15.2127,-44.0694 -0.17201,-1.41875 -0.21749,-3.61431 1.3417,-4.2522 3.21064,0.0175 3.80187,-5.15567 0.8869,-6.1647 -7.4647,0.0335 -14.95851,-0.6022 -21.871,0 -2.87529,0.99945 -2.34937,6.09132 0.8096,6.1597 1.99045,-0.03 3.93057,1.33581 4.468,3.2705 z"
           id="path9092"
           inkscape:connector-curvature="0"
           sodipodi:nodetypes="ccccccccccccccccccccccc" />
        <path
           style="fill:#ffffff;fill-opacity:0;fill-rule:evenodd;stroke:#1f1a17;stroke-width:0.99779999;stroke-linecap:butt;stroke-linejoin:miter;stroke-dasharray:none"
           d="m 276.77986,390.37441 c 0.26767,-4.98718 6.65214,-3.87164 5.43342,0.11329 -1.36015,2.10881 -5.38356,2.67008 -5.43342,-0.11329 z"
           id="path9094"
           inkscape:connector-curvature="0"
           sodipodi:nodetypes="ccc" />
        <path
           style="fill:#ffffff;fill-opacity:0;fill-rule:evenodd;stroke:#1f1a17;stroke-width:0.99779999;stroke-linecap:butt;stroke-linejoin:miter;stroke-dasharray:none"
           d="m 299.61525,442.7041 c 2.99575,0.0639 3.79757,3.71226 1.70261,5.2034 -4.28739,2.3382 -4.90448,-4.71577 -1.70261,-5.2034 z"
           id="path9096"
           inkscape:connector-curvature="0"
           sodipodi:nodetypes="ccc" />
      </g>
    </g>
  </g>
</svg>
