<?xml version="1.0" encoding="UTF-8" standalone="no"?>
<svg
   xmlns:dc="http://purl.org/dc/elements/1.1/"
   xmlns:cc="http://creativecommons.org/ns#"
   xmlns:rdf="http://www.w3.org/1999/02/22-rdf-syntax-ns#"
   xmlns:svg="http://www.w3.org/2000/svg"
   xmlns="http://www.w3.org/2000/svg"
   xmlns:sodipodi="http://sodipodi.sourceforge.net/DTD/sodipodi-0.dtd"
   xmlns:inkscape="http://www.inkscape.org/namespaces/inkscape"
   version="1.0"
   width="23.723598mm"
   height="31.318199mm"
   id="svg2"
   inkscape:version="0.91 r"
   viewBox="0 0 23.723598 31.318199"
   sodipodi:docname="ф.svg">
  <metadata
     id="metadata23">
    <rdf:RDF>
      <cc:Work
         rdf:about="">
        <dc:format>image/svg+xml</dc:format>
        <dc:type
           rdf:resource="http://purl.org/dc/dcmitype/StillImage" />
        <dc:title></dc:title>
      </cc:Work>
    </rdf:RDF>
  </metadata>
  <sodipodi:namedview
     pagecolor="#00450a"
     bordercolor="#666666"
     borderopacity="1"
     objecttolerance="10"
     gridtolerance="10"
     guidetolerance="10"
     inkscape:pageopacity="0"
     inkscape:pageshadow="2"
     inkscape:window-width="1920"
     inkscape:window-height="1058"
     id="namedview21"
     inkscape:document-units="mm"
     showgrid="false"
     inkscape:zoom="12.030437"
     inkscape:cx="39.218643"
     inkscape:cy="59.242363"
     inkscape:window-x="1280"
     inkscape:window-y="0"
     inkscape:window-maximized="1"
     inkscape:current-layer="g4259" />
  <defs
     id="defs4">
    <pattern
       id="WMFhbasepattern"
       patternUnits="userSpaceOnUse"
       width="6"
       height="6"
       x="0"
       y="0" />
    <pattern
       y="0"
       x="0"
       height="6"
       width="6"
       patternUnits="userSpaceOnUse"
       id="WMFhbasepattern-1" />
  </defs>
  <g
     id="g4259"
     transform="translate(-1.45981,0.28266241)">
    <path
       style="fill:none;stroke:#1f1a17;stroke-width:0.35184595px;stroke-linecap:round;stroke-linejoin:round;stroke-miterlimit:4;stroke-dasharray:none;stroke-opacity:1"
       d="m 11.22584,23.17623 c -0.03082,1.584288 0.06197,3.17817 -0.0469,4.756504 -0.113987,0.641163 -0.735689,1.088521 -1.3800443,0.96432 -1.1047315,0.118945 -1.2083107,1.902464 -0.148534,2.1847 2.4422933,0.08083 4.8983083,0.01412 7.3457373,0.03307 1.094101,-0.05428 1.293478,-1.783158 0.29323,-2.15505 -0.480212,-0.116369 -1.103858,0.01677 -1.391751,-0.51445 -0.50928,-1.741204 -0.27561,-3.411548 -0.27561,-5.268934 2.187548,0.04145 4.455203,0.04456 6.490737,-0.874511 2.306485,-0.942575 4.463299,-2.997976 4.553102,-5.62517 0.01977,-1.511676 0.144214,-3.135259 -0.703471,-4.474311 C 24.320424,9.4510275 20.989668,8.173104 17.900091,8.121077 17.140806,8.110841 16.381323,8.119367 15.621959,8.116567 15.652779,6.5322751 15.559989,4.9383886 15.668859,3.3600504 15.781012,2.7196473 16.403682,2.2715228 17.04692,2.3958474 18.153404,2.2787552 18.257657,0.49179374 17.195493,0.2112234 14.753254,0.130039 12.29716,0.19713274 9.8497277,0.1779776 8.7332891,0.2362448 8.5616954,2.0193658 9.6034327,2.3508706 c 0.4934373,0.064741 1.1131643,0.00897 1.3800413,0.54764 0.447347,1.7455304 0.24237,3.3708198 0.24237,5.2180636 C 9.0648871,8.0769505 6.8285841,8.0696251 4.8110132,8.9588587 2.4981438,9.8866895 0.322241,11.91013 0.18482629,14.53383 c -0.0233339,1.563535 -0.16061782,3.253555 0.74333199,4.627283 1.67438282,2.729267 5.00989362,3.979996 8.10004602,4.01233 0.7324672,0.0065 1.4651287,9.64e-4 2.1976357,0.0028 z"
       id="path4236"
       inkscape:connector-curvature="0"
       sodipodi:nodetypes="cccccccccccccccccccccccccc" />
    <path
       style="fill:none;stroke:#1f1a17;stroke-width:0.35184595px;stroke-linecap:round;stroke-linejoin:round;stroke-miterlimit:4;stroke-dasharray:none;stroke-opacity:1"
       d="m 15.621959,10.862508 c 2.93385,0.112326 6.492608,1.280874 6.468484,4.542615 -0.09594,4.068153 -3.406171,5.075611 -6.427159,5.029425 -0.109814,-3.216614 -0.04134,-6.741395 -0.04133,-9.57204 z"
       id="path4240"
       inkscape:connector-curvature="0"
       sodipodi:nodetypes="cccc" />
    <path
       style="fill:none;stroke:#1f1a17;stroke-width:0.35184595px;stroke-linecap:round;stroke-linejoin:round;stroke-miterlimit:4;stroke-dasharray:none;stroke-opacity:1"
       d="m 14.386459,4.8599365 c 0.111944,1.8963009 -2.292487,1.0240948 -1.900627,-0.1486981 0.458938,-0.8980585 1.701103,-0.676956 1.900627,0.1486981 z"
       id="path4244"
       inkscape:connector-curvature="0"
       sodipodi:nodetypes="ccc" />
    <path
       style="fill:none;stroke:#1f1a17;stroke-width:0.35184595px;stroke-linecap:round;stroke-linejoin:round;stroke-miterlimit:4;stroke-dasharray:none;stroke-opacity:1"
       d="m 11.132108,10.853163 c 0.08526,3.05228 0.09373,6.434797 0.09373,9.577103 -3.0969293,-0.1226 -6.6697234,-1.340226 -6.49096,-4.800487 0.1594601,-3.524554 3.559573,-4.816748 6.39723,-4.776616 z"
       id="path4248"
       inkscape:connector-curvature="0"
       sodipodi:nodetypes="cccc" />
    <path
       style="fill:none;stroke:#1f1a17;stroke-width:0.35184595px;stroke-linecap:round;stroke-linejoin:round;stroke-miterlimit:4;stroke-dasharray:none;stroke-opacity:1"
       d="m 13.764763,27.427537 c -0.967624,0.160747 -1.549265,-0.902987 -1.044749,-1.576123 1.47474,-1.307874 2.226338,1.1872 1.044749,1.576123 z"
       id="path4252"
       inkscape:connector-curvature="0"
       sodipodi:nodetypes="ccc" />
  </g>
</svg>
