<?xml version="1.0" encoding="UTF-8" standalone="no"?>
<svg
   xmlns:dc="http://purl.org/dc/elements/1.1/"
   xmlns:cc="http://creativecommons.org/ns#"
   xmlns:rdf="http://www.w3.org/1999/02/22-rdf-syntax-ns#"
   xmlns:svg="http://www.w3.org/2000/svg"
   xmlns="http://www.w3.org/2000/svg"
   xmlns:sodipodi="http://sodipodi.sourceforge.net/DTD/sodipodi-0.dtd"
   xmlns:inkscape="http://www.inkscape.org/namespaces/inkscape"
   version="1.0"
   width="23.723598mm"
   height="31.318199mm"
   id="svg2"
   inkscape:version="0.91 r"
   viewBox="0 0 23.723598 31.318199"
   sodipodi:docname="х.svg">
  <metadata
     id="metadata23">
    <rdf:RDF>
      <cc:Work
         rdf:about="">
        <dc:format>image/svg+xml</dc:format>
        <dc:type
           rdf:resource="http://purl.org/dc/dcmitype/StillImage" />
        <dc:title></dc:title>
      </cc:Work>
    </rdf:RDF>
  </metadata>
  <sodipodi:namedview
     pagecolor="#00450a"
     bordercolor="#666666"
     borderopacity="1"
     objecttolerance="10"
     gridtolerance="10"
     guidetolerance="10"
     inkscape:pageopacity="0"
     inkscape:pageshadow="2"
     inkscape:window-width="1920"
     inkscape:window-height="1058"
     id="namedview21"
     inkscape:document-units="mm"
     showgrid="false"
     inkscape:zoom="48.12175"
     inkscape:cx="30.375225"
     inkscape:cy="6.2718129"
     inkscape:window-x="1280"
     inkscape:window-y="0"
     inkscape:window-maximized="1"
     inkscape:current-layer="g4346" />
  <defs
     id="defs4">
    <pattern
       id="WMFhbasepattern"
       patternUnits="userSpaceOnUse"
       width="6"
       height="6"
       x="0"
       y="0" />
    <pattern
       y="0"
       x="0"
       height="6"
       width="6"
       patternUnits="userSpaceOnUse"
       id="WMFhbasepattern-1" />
    <pattern
       y="0"
       x="0"
       height="6"
       width="6"
       patternUnits="userSpaceOnUse"
       id="WMFhbasepattern-0" />
  </defs>
  <g
     id="g4259"
     transform="translate(-1.45981,0.28266241)">
    <g
       id="g4346"
       transform="translate(3.1079363,0.32846031)">
      <path
         style="fill:none;stroke:#1f1a17;stroke-width:0.35171944px;stroke-linecap:round;stroke-linejoin:round;stroke-miterlimit:4;stroke-dasharray:none;stroke-opacity:1"
         d="m 6.4227843,28.893064 5.5532587,-9.350699 5.109718,9.350699 c -0.758835,-0.181407 -1.498812,0.513386 -1.350222,1.28095 0.05849,0.718478 0.815634,1.082778 1.467867,0.94267 2.382422,-0.016 4.770011,0.03177 7.149266,-0.02345 1.071038,-0.231131 1.035739,-2.012248 -0.0508,-2.18867 -0.735581,0.03309 -1.68712,0.0081 -2.032163,-0.78409 -2.418129,-4.521482 -4.914458,-9.006952 -7.362673,-13.51458 2.355857,-3.958966 4.705167,-7.9329358 7.063704,-11.8834311 0.731653,-0.7065373 1.87674,-0.012641 2.696528,-0.483083 0.868546,-0.5346307 0.475263,-2.14685977 -0.596379,-2.0633583 -1.92668,0.0240046 -3.86209,-0.0476735 -5.78343,0.0352048 -1.054548,0.28341097 -0.953702,2.0625479 0.14654,2.1846252 0.808282,-0.1790775 0.140385,0.4651205 -0.02631,0.8345938 L 13.347764,11.75043 8.2380457,2.3997616 C 8.9974282,2.5817534 9.7361704,1.8861288 9.588274,1.1187176 9.5290301,0.40050355 8.7724879,0.03703092 8.1203923,0.1760214 5.7379229,0.19202482 3.3506653,0.14424387 0.9711337,0.1994914 -0.09943925,0.4304091 -0.06553951,2.2105912 1.0199863,2.3880314 1.75612,2.3552952 2.7073271,2.3805603 3.0540962,3.1723124 5.4716304,7.6938429 7.967225,12.179254 10.41479,16.68689 8.0595582,20.645759 5.7110516,24.620033 3.3530558,28.570196 c -0.7315738,0.706633 -1.8765974,0.01336 -2.696512,0.48319 -0.86886207,0.53411 -0.47553979,2.148854 0.5963688,2.06337 1.9266363,-0.02391 3.8623117,0.04746 5.783426,-0.03502 1.510096,-0.286221 0.8744171,-2.20091 -0.6135543,-2.1887 z"
         id="path4331"
         inkscape:connector-curvature="0"
         sodipodi:nodetypes="ccccccccccccccccccccccccccccc" />
      <path
         style="fill:none;stroke:#1f1a17;stroke-width:0.35171944px;stroke-linecap:round;stroke-linejoin:round;stroke-miterlimit:4;stroke-dasharray:none;stroke-opacity:1"
         d="m 17.210813,26.395482 c 0.125342,-1.202881 1.666058,-1.216884 1.954338,-0.287436 0.274515,1.658455 -1.913008,1.36832 -1.954338,0.287431 z"
         id="path4335"
         inkscape:connector-curvature="0"
         sodipodi:nodetypes="cccc" />
      <path
         style="fill:none;stroke:#1f1a17;stroke-width:0.35171944px;stroke-linecap:round;stroke-linejoin:round;stroke-miterlimit:4;stroke-dasharray:none;stroke-opacity:1"
         d="M 6.6889321,6.4119887 C 5.7989411,6.7548427 5.1046913,5.2665419 5.8047989,4.7315368 7.2768763,3.9874628 7.9380149,5.8181506 6.6889321,6.4119887 Z"
         id="path4339"
         inkscape:connector-curvature="0"
         sodipodi:nodetypes="ccc" />
    </g>
  </g>
</svg>
