<?xml version="1.0" encoding="UTF-8" standalone="no"?>
<svg
   xmlns:dc="http://purl.org/dc/elements/1.1/"
   xmlns:cc="http://creativecommons.org/ns#"
   xmlns:rdf="http://www.w3.org/1999/02/22-rdf-syntax-ns#"
   xmlns:svg="http://www.w3.org/2000/svg"
   xmlns="http://www.w3.org/2000/svg"
   xmlns:sodipodi="http://sodipodi.sourceforge.net/DTD/sodipodi-0.dtd"
   xmlns:inkscape="http://www.inkscape.org/namespaces/inkscape"
   version="1.0"
   width="23.723598mm"
   height="31.318199mm"
   id="svg2"
   inkscape:version="0.91 r"
   viewBox="0 0 23.723598 31.318199"
   sodipodi:docname="ц.svg">
  <metadata
     id="metadata23">
    <rdf:RDF>
      <cc:Work
         rdf:about="">
        <dc:format>image/svg+xml</dc:format>
        <dc:type
           rdf:resource="http://purl.org/dc/dcmitype/StillImage" />
        <dc:title></dc:title>
      </cc:Work>
    </rdf:RDF>
  </metadata>
  <sodipodi:namedview
     pagecolor="#00450a"
     bordercolor="#666666"
     borderopacity="1"
     objecttolerance="10"
     gridtolerance="10"
     guidetolerance="10"
     inkscape:pageopacity="0"
     inkscape:pageshadow="2"
     inkscape:window-width="1920"
     inkscape:window-height="1058"
     id="namedview21"
     inkscape:document-units="mm"
     showgrid="false"
     inkscape:zoom="45.254834"
     inkscape:cx="8.490834"
     inkscape:cy="103.65585"
     inkscape:window-x="1280"
     inkscape:window-y="0"
     inkscape:window-maximized="1"
     inkscape:current-layer="g4429" />
  <defs
     id="defs4">
    <pattern
       id="WMFhbasepattern"
       patternUnits="userSpaceOnUse"
       width="6"
       height="6"
       x="0"
       y="0" />
    <pattern
       y="0"
       x="0"
       height="6"
       width="6"
       patternUnits="userSpaceOnUse"
       id="WMFhbasepattern-1" />
    <pattern
       y="0"
       x="0"
       height="6"
       width="6"
       patternUnits="userSpaceOnUse"
       id="WMFhbasepattern-0" />
    <pattern
       y="0"
       x="0"
       height="6"
       width="6"
       patternUnits="userSpaceOnUse"
       id="WMFhbasepattern-05" />
  </defs>
  <g
     id="g4259"
     transform="translate(-1.45981,0.28266241)">
    <g
       id="g4346"
       transform="translate(3.1079363,0.32846031)">
      <g
         id="g4429"
         transform="translate(-2.2151367,-1.1605189)">
        <path
           style="fill:none;stroke:#1f1a17;stroke-width:0.35199884px;stroke-linecap:round;stroke-linejoin:round;stroke-miterlimit:4;stroke-dasharray:none;stroke-opacity:1"
           d="m 20.271232,27.5036 c 0.0091,-7.98211 -0.01814,-15.965796 0.0136,-23.9469228 0.03483,-0.7133121 0.68917,-1.3119096 1.413834,-1.162759 1.105895,-0.1168197 1.210091,-1.9020858 0.14862,-2.1828551 -2.443318,-0.081123 -4.900466,-0.0140812 -7.348965,-0.0332225 -1.117699,0.0555549 -1.290092,1.8421788 -0.24638,2.1711296 0.492534,0.065417 1.11318,0.00794 1.378651,0.547166 0.460258,0.8406997 0.156346,1.8513924 0.24433,2.7657268 l 0,22.314657 -8.9740174,0 C 6.9100446,19.836108 6.8826346,11.694145 6.9145946,3.5547012 6.9506094,2.8417006 7.6042646,2.245 8.3284755,2.3939182 9.4338612,2.276156 9.5385052,0.49251414 8.4773064,0.21105509 6.0339924,0.12993191 3.6183626,0.21461294 1.1698681,0.19547149 0.05216259,0.25132467 -0.19479905,2.0563421 0.85549617,2.3541285 1.3482084,2.4194635 2.1535498,2.3570622 2.4193663,2.8961282 2.4184411,11.097255 2.5210261,20.401697 2.4913703,27.712692 c -0.037568,0.713281 -0.6896612,1.308263 -1.4138613,1.16285 -1.10676892,0.112231 -1.21002981,1.902777 -0.1486209,2.18073 8.3686701,0.05626 17.3488689,0.06473 24.9801939,0.01955 1.084175,-0.183272 1.108939,-1.958632 0.0371,-2.18471 -1.620756,-0.08001 -3.261215,0.05205 -4.877141,-0.06458 -0.53512,-0.186151 -0.800628,-0.789569 -0.797809,-1.322932 z"
           id="path4410"
           inkscape:connector-curvature="0"
           sodipodi:nodetypes="ccccccccccccccccccccccc" />
        <path
           style="fill:none;stroke:#1f1a17;stroke-width:0.35199884px;stroke-linecap:round;stroke-linejoin:round;stroke-miterlimit:4;stroke-dasharray:none;stroke-opacity:1"
           d="m 17.953905,26.479585 c -1.511306,0.167117 -0.987619,2.129293 0.127245,1.98872 1.291362,-0.313723 0.903474,-1.969191 -0.127245,-1.98872 z"
           id="path4414"
           inkscape:connector-curvature="0"
           sodipodi:nodetypes="ccc" />
        <path
           style="fill:none;stroke:#1f1a17;stroke-width:0.35199884px;stroke-linecap:round;stroke-linejoin:round;stroke-miterlimit:4;stroke-dasharray:none;stroke-opacity:1"
           d="M 4.1050272,7.1320778 C 6.2738711,7.1946453 5.0369122,5.0093419 3.929725,5.1821881 2.9799686,5.5756822 3.3302059,7.2353888 4.1050272,7.1320778 Z"
           id="path4422"
           inkscape:connector-curvature="0"
           sodipodi:nodetypes="ccc" />
      </g>
    </g>
  </g>
</svg>
