<?xml version="1.0" encoding="UTF-8" standalone="no"?>
<svg
   xmlns:dc="http://purl.org/dc/elements/1.1/"
   xmlns:cc="http://creativecommons.org/ns#"
   xmlns:rdf="http://www.w3.org/1999/02/22-rdf-syntax-ns#"
   xmlns:svg="http://www.w3.org/2000/svg"
   xmlns="http://www.w3.org/2000/svg"
   xmlns:sodipodi="http://sodipodi.sourceforge.net/DTD/sodipodi-0.dtd"
   xmlns:inkscape="http://www.inkscape.org/namespaces/inkscape"
   version="1.0"
   width="23.723598mm"
   height="31.318199mm"
   id="svg2"
   inkscape:version="0.91 r"
   viewBox="0 0 23.723598 31.318199"
   sodipodi:docname="ч.svg">
  <metadata
     id="metadata23">
    <rdf:RDF>
      <cc:Work
         rdf:about="">
        <dc:format>image/svg+xml</dc:format>
        <dc:type
           rdf:resource="http://purl.org/dc/dcmitype/StillImage" />
        <dc:title></dc:title>
      </cc:Work>
    </rdf:RDF>
  </metadata>
  <sodipodi:namedview
     pagecolor="#00450a"
     bordercolor="#666666"
     borderopacity="1"
     objecttolerance="10"
     gridtolerance="10"
     guidetolerance="10"
     inkscape:pageopacity="0"
     inkscape:pageshadow="2"
     inkscape:window-width="1920"
     inkscape:window-height="1058"
     id="namedview21"
     inkscape:document-units="mm"
     showgrid="false"
     inkscape:zoom="22.627417"
     inkscape:cx="96.863113"
     inkscape:cy="11.942318"
     inkscape:window-x="1280"
     inkscape:window-y="0"
     inkscape:window-maximized="1"
     inkscape:current-layer="g4584" />
  <defs
     id="defs4">
    <pattern
       id="WMFhbasepattern"
       patternUnits="userSpaceOnUse"
       width="6"
       height="6"
       x="0"
       y="0" />
    <pattern
       y="0"
       x="0"
       height="6"
       width="6"
       patternUnits="userSpaceOnUse"
       id="WMFhbasepattern-1" />
    <pattern
       y="0"
       x="0"
       height="6"
       width="6"
       patternUnits="userSpaceOnUse"
       id="WMFhbasepattern-0" />
    <pattern
       y="0"
       x="0"
       height="6"
       width="6"
       patternUnits="userSpaceOnUse"
       id="WMFhbasepattern-05" />
    <pattern
       y="0"
       x="0"
       height="6"
       width="6"
       patternUnits="userSpaceOnUse"
       id="WMFhbasepattern-4" />
    <pattern
       y="0"
       x="0"
       height="6"
       width="6"
       patternUnits="userSpaceOnUse"
       id="WMFhbasepattern-7" />
  </defs>
  <g
     id="g4259"
     transform="translate(-1.45981,0.28266241)">
    <g
       id="g4346"
       transform="translate(3.1079363,0.32846031)">
      <g
         id="g4429"
         transform="translate(-2.2151367,-1.1605189)">
        <g
           id="g4512"
           transform="translate(1.1874053,0.48085622)">
          <g
             id="g4584"
             transform="translate(-8.8613038,2.7002195)">
            <path
               style="fill:none;stroke:#000000;stroke-width:0.34998026px;stroke-linecap:round;stroke-linejoin:round;stroke-miterlimit:4;stroke-dasharray:none;stroke-opacity:1"
               d="m 21.511796,3.684016 c -0.01116,-0.7909705 0.718929,-1.466848 1.515046,-1.299121 1.104507,-0.079254 1.299387,-1.80888434 0.25648,-2.1524034 -2.890787,-0.0236969 -5.608705,-0.0510246 -8.21258,0 -1.041474,0.34396399 -0.849844,2.0723642 0.25648,2.1524034 0.911537,-0.1980229 1.65234,0.7007384 1.515026,1.5690125 -0.01447,7.9439875 0.02889,15.8912555 -0.0216,23.8332005 -0.194195,0.465953 -1.075328,0.06611 -1.532811,0.19894 l -7.9717826,0 C 7.330482,19.817865 7.2872174,11.646411 7.3376544,3.48027 7.4160914,2.7255633 8.1589569,2.2459041 8.8837788,2.375298 9.9806444,2.2444976 10.096682,0.5056343 9.03715,0.21571998 6.9974097,0.09646689 4.9319871,0.20025924 2.8825796,0.16538528 2.0445749,0.27888815 0.86853031,-0.18153501 0.3284057,0.69989128 -0.18111334,1.4905332 0.59460162,2.599865 1.5173799,2.3873015 c 0.9648101,0.033937 1.2535625,1.172253 1.129054,1.9625834 -0.014403,7.8120021 0.028796,15.6272661 -0.02158,23.4372311 -0.08075,0.753154 -0.8204741,1.23562 -1.5461461,1.10513 -1.09767131,0.131289 -1.21277292,1.865629 -0.1558151,2.16183 12.1893303,0.09322 25.5114273,0.07823 36.4052353,0.02653 1.085243,-0.18787 1.125308,-1.923835 0.05278,-2.16692 -0.596498,0.01378 -1.3078,-0.09818 -1.536721,-0.75025 -0.0838,-8.19853 -0.163302,-17.362487 -0.11514,-24.6831525 0.08047,-0.753438 0.821314,-1.2344478 1.546301,-1.104972 1.096836,-0.1296921 1.213914,-1.8672987 0.1558,-2.15959152 -2.073801,-0.1192079 -4.1727,-0.0154936 -6.255954,-0.0503347 -0.818607,0.0961551 -1.997858,-0.33175475 -2.479145,0.5824443 -0.477354,0.82383202 0.359835,1.86892492 1.272839,1.64187192 0.981869,0.096371 1.17784,1.2624855 1.06911,2.0591761 l 0,23.5371834 c -3.152024,-0.0032 -6.311966,0.0064 -9.459045,-0.0048 -0.157274,-1.69237 -0.02195,-3.414133 -0.06712,-5.117639 -2.5e-5,-6.393192 4.9e-5,-12.786461 -3.7e-5,-19.179606 z"
               id="path4573"
               inkscape:connector-curvature="0"
               sodipodi:nodetypes="ccccccccccccccccccccccccccccccccc" />
            <path
               style="fill:none;stroke:#000000;stroke-width:0.34998026px;stroke-linecap:round;stroke-linejoin:round;stroke-miterlimit:4;stroke-dasharray:none;stroke-opacity:1"
               d="m 33.645969,27.202271 c -1.136513,0.268228 -1.241502,-1.655525 -0.297857,-1.952772 1.482185,-0.352125 1.636832,1.668651 0.297857,1.952772 z"
               id="path4575"
               inkscape:connector-curvature="0"
               sodipodi:nodetypes="ccc" />
            <path
               style="fill:none;stroke:#000000;stroke-width:0.34998026px;stroke-linecap:round;stroke-linejoin:round;stroke-miterlimit:4;stroke-dasharray:none;stroke-opacity:1"
               d="M 3.9940839,5.5502425 C 3.5339907,4.5936121 4.5236026,3.7199443 5.3211688,4.1443017 6.7414749,5.1555495 4.9795764,6.7874237 3.9940839,5.5502425 Z"
               id="path4577"
               inkscape:connector-curvature="0"
               sodipodi:nodetypes="ccc" />
          </g>
        </g>
      </g>
    </g>
  </g>
</svg>
