<?xml version="1.0" encoding="UTF-8" standalone="no"?>
<svg
   xmlns:dc="http://purl.org/dc/elements/1.1/"
   xmlns:cc="http://creativecommons.org/ns#"
   xmlns:rdf="http://www.w3.org/1999/02/22-rdf-syntax-ns#"
   xmlns:svg="http://www.w3.org/2000/svg"
   xmlns="http://www.w3.org/2000/svg"
   xmlns:sodipodi="http://sodipodi.sourceforge.net/DTD/sodipodi-0.dtd"
   xmlns:inkscape="http://www.inkscape.org/namespaces/inkscape"
   version="1.0"
   width="23.723598mm"
   height="31.318199mm"
   id="svg2"
   inkscape:version="0.91 r"
   viewBox="0 0 23.723598 31.318199"
   sodipodi:docname="ъ.svg">
  <metadata
     id="metadata23">
    <rdf:RDF>
      <cc:Work
         rdf:about="">
        <dc:format>image/svg+xml</dc:format>
        <dc:type
           rdf:resource="http://purl.org/dc/dcmitype/StillImage" />
        <dc:title></dc:title>
      </cc:Work>
    </rdf:RDF>
  </metadata>
  <sodipodi:namedview
     pagecolor="#00450a"
     bordercolor="#666666"
     borderopacity="1"
     objecttolerance="10"
     gridtolerance="10"
     guidetolerance="10"
     inkscape:pageopacity="0"
     inkscape:pageshadow="2"
     inkscape:window-width="1920"
     inkscape:window-height="1058"
     id="namedview21"
     inkscape:document-units="mm"
     showgrid="false"
     inkscape:zoom="5.6568543"
     inkscape:cx="-1.2571221"
     inkscape:cy="67.591985"
     inkscape:window-x="1280"
     inkscape:window-y="0"
     inkscape:window-maximized="1"
     inkscape:current-layer="g4718" />
  <defs
     id="defs4">
    <pattern
       id="WMFhbasepattern"
       patternUnits="userSpaceOnUse"
       width="6"
       height="6"
       x="0"
       y="0" />
    <pattern
       y="0"
       x="0"
       height="6"
       width="6"
       patternUnits="userSpaceOnUse"
       id="WMFhbasepattern-1" />
    <pattern
       y="0"
       x="0"
       height="6"
       width="6"
       patternUnits="userSpaceOnUse"
       id="WMFhbasepattern-0" />
    <pattern
       y="0"
       x="0"
       height="6"
       width="6"
       patternUnits="userSpaceOnUse"
       id="WMFhbasepattern-05" />
    <pattern
       y="0"
       x="0"
       height="6"
       width="6"
       patternUnits="userSpaceOnUse"
       id="WMFhbasepattern-4" />
    <pattern
       y="0"
       x="0"
       height="6"
       width="6"
       patternUnits="userSpaceOnUse"
       id="WMFhbasepattern-7" />
    <pattern
       y="0"
       x="0"
       height="6"
       width="6"
       patternUnits="userSpaceOnUse"
       id="WMFhbasepattern-2" />
    <pattern
       y="0"
       x="0"
       height="6"
       width="6"
       patternUnits="userSpaceOnUse"
       id="WMFhbasepattern-22" />
  </defs>
  <g
     id="g4259"
     transform="translate(-1.45981,0.28266241)">
    <g
       id="g4346"
       transform="translate(3.1079363,0.32846031)">
      <g
         id="g4429"
         transform="translate(-2.2151367,-1.1605189)">
        <g
           id="g4512"
           transform="translate(1.1874053,0.48085622)">
          <g
             id="g4584"
             transform="translate(-8.8613038,2.7002195)">
            <g
               id="g4662"
               transform="translate(-7.4394741,1.8922921)">
              <g
                 id="g4718"
                 transform="translate(3.7959895,-1.8794551)">
                <path
                   style="fill:none;stroke:#1f1a17;stroke-width:0.35139948px;stroke-linecap:round;stroke-linejoin:round;stroke-miterlimit:4;stroke-dasharray:none;stroke-opacity:1"
                   d="m 11.598345,2.8568227 c -0.01442,8.2999033 0.02882,16.5998983 -0.02158,24.8997313 -0.157515,1.481721 -3.2442624,0.962863 -2.0488261,2.935171 1.2944621,0.807639 3.0691681,0.165051 4.5571361,0.373362 4.095387,-0.02248 8.196939,0.07763 12.288394,-0.07201 4.486075,-0.510198 8.213503,-4.748961 7.945972,-9.295919 -0.137086,-4.748218 -4.261198,-9.165741 -9.108455,-9.129416 -3.087534,-0.01352 -6.176043,3.6e-5 -9.264386,-0.006 0.06435,-3.1089501 -0.09727,-6.236718 0.114762,-9.333756 0.613152,-0.9949972 3.09985,-0.9162637 1.91561,-2.71652674 C 16.796476,-0.21549093 15.198107,0.36271259 13.850311,0.1774083 10.110249,0.17347483 6.3700048,0.15385268 2.63011,0.200133 1.6143213,1.3864762 1.360772,3.1226812 0.62316156,4.5202266 -0.53856297,5.7143767 0.87662102,7.7760439 2.1322107,6.2397771 2.8598068,4.3792547 4.5963,2.9161596 6.6456291,2.8438427 c 1.649301,0.020494 3.3018083,0.011121 4.9527159,0.01298 z"
                   id="path4699"
                   inkscape:connector-curvature="0" />
                <path
                   style="fill:none;stroke:#1f1a17;stroke-width:0.35139948px;stroke-linecap:round;stroke-linejoin:round;stroke-miterlimit:4;stroke-dasharray:none;stroke-opacity:1"
                   d="M 13.957505,6.1545383 C 12.932624,6.0888941 12.428174,4.725021 13.31013,4.3485625 15.238574,3.8149236 15.249929,6.059126 13.957505,6.1545383 Z"
                   id="path4703"
                   inkscape:connector-curvature="0"
                   sodipodi:nodetypes="ccc" />
                <path
                   style="fill:none;stroke:#1f1a17;stroke-width:0.35139948px;stroke-linecap:round;stroke-linejoin:round;stroke-miterlimit:4;stroke-dasharray:none;stroke-opacity:1"
                   d="m 15.972507,28.462676 c -7e-4,-4.462837 -0.0014,-8.925673 -0.0021,-13.38851 2.334682,0.0084 4.670001,-0.01688 7.004276,0.01293 2.398358,0.127754 4.543265,1.765288 5.577751,3.889869 0.938994,1.842096 1.003523,4.141781 0.0059,5.974426 -1.112154,2.146566 -3.486395,3.525116 -5.893686,3.510562 -2.230703,0.0018 -4.461497,3.11e-4 -6.692188,7.23e-4 z"
                   id="path4707"
                   inkscape:connector-curvature="0" />
                <path
                   style="fill:none;stroke:#1f1a17;stroke-width:0.35139948px;stroke-linecap:round;stroke-linejoin:round;stroke-miterlimit:4;stroke-dasharray:none;stroke-opacity:1"
                   d="m 30.580726,25.375854 c 1.674951,0.365116 1.356964,2.204263 -0.20981,1.930136 -0.918433,-0.517812 -0.70981,-1.806631 0.20981,-1.930136 z"
                   id="path4711"
                   inkscape:connector-curvature="0"
                   sodipodi:nodetypes="ccc" />
              </g>
            </g>
          </g>
        </g>
      </g>
    </g>
  </g>
</svg>
