<?xml version="1.0" encoding="UTF-8" standalone="no"?>
<svg
   xmlns:dc="http://purl.org/dc/elements/1.1/"
   xmlns:cc="http://creativecommons.org/ns#"
   xmlns:rdf="http://www.w3.org/1999/02/22-rdf-syntax-ns#"
   xmlns:svg="http://www.w3.org/2000/svg"
   xmlns="http://www.w3.org/2000/svg"
   xmlns:sodipodi="http://sodipodi.sourceforge.net/DTD/sodipodi-0.dtd"
   xmlns:inkscape="http://www.inkscape.org/namespaces/inkscape"
   version="1.0"
   width="23.723598mm"
   height="31.318199mm"
   id="svg2"
   inkscape:version="0.91 r"
   viewBox="0 0 23.723598 31.318199"
   sodipodi:docname="ь.svg">
  <metadata
     id="metadata23">
    <rdf:RDF>
      <cc:Work
         rdf:about="">
        <dc:format>image/svg+xml</dc:format>
        <dc:type
           rdf:resource="http://purl.org/dc/dcmitype/StillImage" />
        <dc:title></dc:title>
      </cc:Work>
    </rdf:RDF>
  </metadata>
  <sodipodi:namedview
     pagecolor="#00450a"
     bordercolor="#666666"
     borderopacity="1"
     objecttolerance="10"
     gridtolerance="10"
     guidetolerance="10"
     inkscape:pageopacity="0"
     inkscape:pageshadow="2"
     inkscape:window-width="1920"
     inkscape:window-height="1058"
     id="namedview21"
     inkscape:document-units="mm"
     showgrid="false"
     inkscape:zoom="5.6568543"
     inkscape:cx="64.244067"
     inkscape:cy="80.371688"
     inkscape:window-x="1280"
     inkscape:window-y="0"
     inkscape:window-maximized="1"
     inkscape:current-layer="g4958" />
  <defs
     id="defs4">
    <pattern
       id="WMFhbasepattern"
       patternUnits="userSpaceOnUse"
       width="6"
       height="6"
       x="0"
       y="0" />
    <pattern
       y="0"
       x="0"
       height="6"
       width="6"
       patternUnits="userSpaceOnUse"
       id="WMFhbasepattern-1" />
    <pattern
       y="0"
       x="0"
       height="6"
       width="6"
       patternUnits="userSpaceOnUse"
       id="WMFhbasepattern-0" />
    <pattern
       y="0"
       x="0"
       height="6"
       width="6"
       patternUnits="userSpaceOnUse"
       id="WMFhbasepattern-05" />
    <pattern
       y="0"
       x="0"
       height="6"
       width="6"
       patternUnits="userSpaceOnUse"
       id="WMFhbasepattern-4" />
    <pattern
       y="0"
       x="0"
       height="6"
       width="6"
       patternUnits="userSpaceOnUse"
       id="WMFhbasepattern-7" />
    <pattern
       y="0"
       x="0"
       height="6"
       width="6"
       patternUnits="userSpaceOnUse"
       id="WMFhbasepattern-2" />
    <pattern
       y="0"
       x="0"
       height="6"
       width="6"
       patternUnits="userSpaceOnUse"
       id="WMFhbasepattern-22" />
    <pattern
       y="0"
       x="0"
       height="6"
       width="6"
       patternUnits="userSpaceOnUse"
       id="WMFhbasepattern-5" />
    <pattern
       y="0"
       x="0"
       height="6"
       width="6"
       patternUnits="userSpaceOnUse"
       id="WMFhbasepattern-45" />
    <pattern
       y="0"
       x="0"
       height="6"
       width="6"
       patternUnits="userSpaceOnUse"
       id="WMFhbasepattern-49" />
  </defs>
  <g
     id="g4259"
     transform="translate(-1.45981,0.28266241)">
    <g
       id="g4346"
       transform="translate(3.1079363,0.32846031)">
      <g
         id="g4429"
         transform="translate(-2.2151367,-1.1605189)">
        <g
           id="g4512"
           transform="translate(1.1874053,0.48085622)">
          <g
             id="g4584"
             transform="translate(-8.8613038,2.7002195)">
            <g
               id="g4662"
               transform="translate(-7.4394741,1.8922921)">
              <g
                 id="g4718"
                 transform="translate(3.7959895,-1.8794551)">
                <g
                   id="g4958"
                   transform="translate(11.674954,-3.7997828)">
                  <path
                     style="fill:none;stroke:#1f1a17;stroke-width:0.35182774px;stroke-linecap:round;stroke-linejoin:round;stroke-miterlimit:4;stroke-dasharray:none;stroke-opacity:1"
                     d="m 2.4882038,3.8255504 c -0.00784,7.9696926 0.015664,15.9408646 -0.01173,23.9096336 -0.036963,0.710439 -0.681875,1.309192 -1.4053534,1.16377 -1.1011514,0.117305 -1.20139799,1.901702 -0.146595,2.18271 5.4346992,-0.0059 10.9378096,0.146522 15.9759746,-0.0068 3.812461,-0.300299 7.246454,-3.239293 8.06453,-6.985747 1.070637,-4.386466 -1.558824,-9.249194 -5.739298,-10.885866 -2.160983,-0.919593 -4.546037,-0.543506 -6.823909,-0.621523 l -5.5665982,0 C 6.8643001,9.549588 6.8068974,6.5119572 6.8899518,3.4832964 6.9798791,2.8215576 7.6035688,2.3240829 8.2718562,2.4525894 9.4436179,2.2934234 9.4097489,0.27682217 8.222996,0.1779778 5.8084545,0.18922599 3.3889217,0.14580847 0.9772986,0.199492 -0.13402827,0.4736426 -0.00368738,2.4241409 1.1727603,2.4584458 1.9698322,2.3192637 2.5166554,3.0997511 2.4882038,3.8255504 Z"
                     id="path4939"
                     inkscape:connector-curvature="0"
                     sodipodi:nodetypes="ccccccccccccccc" />
                  <path
                     style="fill:none;stroke:#1f1a17;stroke-width:0.35182774px;stroke-linecap:round;stroke-linejoin:round;stroke-miterlimit:4;stroke-dasharray:none;stroke-opacity:1"
                     d="m 6.8606529,28.507831 c -0.00131,-4.469036 -0.00261,-8.938072 -0.00392,-13.407108 2.3472264,0.0085 4.6952021,-0.01719 7.0419541,0.01315 2.425343,0.146041 4.575582,1.835414 5.587548,3.999167 0.911031,1.860107 0.930317,4.16419 -0.100191,5.981349 -1.131537,2.091691 -3.467108,3.425263 -5.836129,3.412544 -2.229718,0.0021 -4.4595624,3.43e-4 -6.6892621,8.98e-4 z"
                     id="path4943"
                     inkscape:connector-curvature="0" />
                  <path
                     style="fill:none;stroke:#1f1a17;stroke-width:0.35182774px;stroke-linecap:round;stroke-linejoin:round;stroke-miterlimit:4;stroke-dasharray:none;stroke-opacity:1"
                     d="m 21.333503,25.487435 c 1.672966,0.251428 1.498407,2.012596 0.0058,1.960431 -1.030845,-0.104435 -0.973355,-1.756114 -0.0058,-1.960431 z"
                     id="path4947"
                     inkscape:connector-curvature="0"
                     sodipodi:nodetypes="ccc" />
                  <path
                     style="fill:none;stroke:#1f1a17;stroke-width:0.35182774px;stroke-linecap:round;stroke-linejoin:round;stroke-miterlimit:4;stroke-dasharray:none;stroke-opacity:1"
                     d="M 5.7641067,5.2474142 C 5.6311152,6.4181347 3.948931,6.5255507 3.8214943,5.5731883 3.6634634,4.0291571 5.7591484,3.8588752 5.7641067,5.2474142 Z"
                     id="path4951"
                     inkscape:connector-curvature="0"
                     sodipodi:nodetypes="ccc" />
                </g>
              </g>
            </g>
          </g>
        </g>
      </g>
    </g>
  </g>
</svg>
