<?xml version="1.0" encoding="UTF-8" standalone="no"?>
<svg
   xmlns:dc="http://purl.org/dc/elements/1.1/"
   xmlns:cc="http://creativecommons.org/ns#"
   xmlns:rdf="http://www.w3.org/1999/02/22-rdf-syntax-ns#"
   xmlns:svg="http://www.w3.org/2000/svg"
   xmlns="http://www.w3.org/2000/svg"
   xmlns:sodipodi="http://sodipodi.sourceforge.net/DTD/sodipodi-0.dtd"
   xmlns:inkscape="http://www.inkscape.org/namespaces/inkscape"
   version="1.0"
   width="23.723598mm"
   height="31.318199mm"
   id="svg2"
   inkscape:version="0.91 r"
   viewBox="0 0 23.723598 31.318199"
   sodipodi:docname="Ñ.svg">
  <metadata
     id="metadata23">
    <rdf:RDF>
      <cc:Work
         rdf:about="">
        <dc:format>image/svg+xml</dc:format>
        <dc:type
           rdf:resource="http://purl.org/dc/dcmitype/StillImage" />
        <dc:title></dc:title>
      </cc:Work>
    </rdf:RDF>
  </metadata>
  <sodipodi:namedview
     pagecolor="#00450a"
     bordercolor="#666666"
     borderopacity="1"
     objecttolerance="10"
     gridtolerance="10"
     guidetolerance="10"
     inkscape:pageopacity="0"
     inkscape:pageshadow="2"
     inkscape:window-width="1920"
     inkscape:window-height="1058"
     id="namedview21"
     inkscape:document-units="mm"
     showgrid="false"
     inkscape:zoom="5.6568543"
     inkscape:cx="2.2123549"
     inkscape:cy="49.253728"
     inkscape:window-x="1280"
     inkscape:window-y="0"
     inkscape:window-maximized="1"
     inkscape:current-layer="g5039" />
  <defs
     id="defs4">
    <pattern
       id="WMFhbasepattern"
       patternUnits="userSpaceOnUse"
       width="6"
       height="6"
       x="0"
       y="0" />
    <pattern
       y="0"
       x="0"
       height="6"
       width="6"
       patternUnits="userSpaceOnUse"
       id="WMFhbasepattern-1" />
    <pattern
       y="0"
       x="0"
       height="6"
       width="6"
       patternUnits="userSpaceOnUse"
       id="WMFhbasepattern-0" />
    <pattern
       y="0"
       x="0"
       height="6"
       width="6"
       patternUnits="userSpaceOnUse"
       id="WMFhbasepattern-05" />
    <pattern
       y="0"
       x="0"
       height="6"
       width="6"
       patternUnits="userSpaceOnUse"
       id="WMFhbasepattern-4" />
    <pattern
       y="0"
       x="0"
       height="6"
       width="6"
       patternUnits="userSpaceOnUse"
       id="WMFhbasepattern-7" />
    <pattern
       y="0"
       x="0"
       height="6"
       width="6"
       patternUnits="userSpaceOnUse"
       id="WMFhbasepattern-2" />
    <pattern
       y="0"
       x="0"
       height="6"
       width="6"
       patternUnits="userSpaceOnUse"
       id="WMFhbasepattern-22" />
    <pattern
       y="0"
       x="0"
       height="6"
       width="6"
       patternUnits="userSpaceOnUse"
       id="WMFhbasepattern-5" />
    <pattern
       y="0"
       x="0"
       height="6"
       width="6"
       patternUnits="userSpaceOnUse"
       id="WMFhbasepattern-45" />
    <pattern
       y="0"
       x="0"
       height="6"
       width="6"
       patternUnits="userSpaceOnUse"
       id="WMFhbasepattern-49" />
    <pattern
       y="0"
       x="0"
       height="6"
       width="6"
       patternUnits="userSpaceOnUse"
       id="WMFhbasepattern-9" />
  </defs>
  <g
     id="g4259"
     transform="translate(-1.45981,0.28266241)">
    <g
       id="g4346"
       transform="translate(3.1079363,0.32846031)">
      <g
         id="g4429"
         transform="translate(-2.2151367,-1.1605189)">
        <g
           id="g4512"
           transform="translate(1.1874053,0.48085622)">
          <g
             id="g4584"
             transform="translate(-8.8613038,2.7002195)">
            <g
               id="g4662"
               transform="translate(-7.4394741,1.8922921)">
              <g
                 id="g4718"
                 transform="translate(3.7959895,-1.8794551)">
                <g
                   id="g4958"
                   transform="translate(11.674954,-3.7997828)">
                  <g
                     id="g5039"
                     transform="translate(-0.1703429,0.21827321)">
                    <path
                       style="fill:none;stroke:#1f1a17;stroke-width:0.35202789px;stroke-linecap:round;stroke-linejoin:round;stroke-miterlimit:4;stroke-dasharray:none;stroke-opacity:1"
                       d="M 24.671261,8.4170144 C 23.363801,5.88113 21.332745,3.7488251 18.892005,2.2772414 16.779317,1.0549695 14.388963,0.29442991 11.940048,0.21023643 10.431481,0.14706412 8.916126,0.34854281 7.4414662,0.67138409 6.1214355,1.0809984 4.8085047,1.5611656 3.6356713,2.3038449 3.4513074,1.5934471 2.4419759,1.319374 1.9094942,1.7787805 1.2833447,2.2818349 1.4220635,3.2091507 1.1959618,3.9179912 0.86856721,5.7228513 0.44015911,7.5179228 0.17601442,9.3289121 0.28688868,10.238759 1.5430218,10.667917 2.153237,9.9689638 2.3831781,8.9503806 2.5077499,7.8796368 2.8022813,6.8930277 4.6199331,4.6394779 7.364912,3.1326219 10.272877,2.982065 c 2.023055,-0.080598 4.081672,0.4276817 5.787689,1.5404337 1.25407,0.7813754 2.34711,1.8335326 3.229929,3.0148336 1.446771,2.0770941 2.349837,4.5355897 2.523504,7.0647887 -3.160121,-0.01042 -6.324212,0.0208 -9.481861,-0.01554 -0.715702,-0.09428 -1.306167,-0.729165 -1.182646,-1.476004 -0.289336,-0.61076 -1.099215,-0.385951 -1.6442168,-0.392564 -0.7335491,0.07223 -0.4978101,0.904077 -0.5285883,1.408738 l 0,4.133704 c 0.3053953,0.609712 1.1404661,0.384751 1.6928421,0.381335 0.51526,-0.04697 0.472862,-0.567433 0.530823,-0.941123 0.241944,-0.936308 1.358403,-0.979244 2.15413,-0.933676 l 8.459517,0 c -0.140384,1.688084 -0.538376,3.357541 -1.29408,4.878854 -0.858577,1.936372 -2.248553,3.636982 -3.979638,4.854283 -0.982257,0.721728 -2.1148,1.21459 -3.280117,1.554891 -1.663218,0.436867 -3.4496195,0.438042 -5.0977794,-0.06596 C 6.8736616,27.6724 5.674006,27.024861 4.6255443,26.22411 3.9345164,25.664232 3.2126301,25.07709 2.7321132,24.333775 L 2.153237,21.349236 C 1.6737095,20.9251 0.83908772,20.899293 0.45376402,21.443812 c -0.57090398,0.609854 -0.0480175,1.480926 0.004524,2.196288 0.37672947,1.826232 0.67225438,3.685967 1.09927858,5.491449 0.3326156,0.771407 1.502099,0.909791 1.9387052,0.170989 0.2310093,-0.501639 0.7583527,0.280611 1.1803796,0.313207 2.3862698,1.181416 5.1028449,1.67863 7.7534766,1.49044 2.027442,-0.159826 4.0103,-0.780209 5.82964,-1.681318 2.267963,-1.228138 4.224763,-3.014215 5.622935,-5.185579 0.918221,-1.337473 1.555505,-2.851312 2.011449,-4.399832 0.609319,-2.35948 0.788617,-4.858299 0.238709,-7.247229 -0.315056,-1.453286 -0.855697,-3.0015672 -1.4616,-4.1752126 z"
                       id="path5024"
                       inkscape:connector-curvature="0"
                       sodipodi:nodetypes="ccccccccccccccccccccccccccccccccccccccccc" />
                    <path
                       style="fill:none;stroke:#1f1a17;stroke-width:0.35202789px;stroke-linecap:round;stroke-linejoin:round;stroke-miterlimit:4;stroke-dasharray:none;stroke-opacity:1"
                       d="M 20.82831,4.9698204 C 20.692456,6.1312081 19.22573,6.2201736 18.889789,5.3070163 18.931963,3.7519824 20.83398,3.5541491 20.82831,4.9698204 Z"
                       id="path5028"
                       inkscape:connector-curvature="0"
                       sodipodi:nodetypes="ccc" />
                    <path
                       style="fill:none;stroke:#1f1a17;stroke-width:0.35202789px;stroke-linecap:round;stroke-linejoin:round;stroke-miterlimit:4;stroke-dasharray:none;stroke-opacity:1"
                       d="m 19.197664,25.525392 c 2.037813,0.06099 1.349876,2.160948 -0.207511,1.888739 -0.822488,-0.483175 -0.709611,-1.684282 0.207511,-1.888739 z"
                       id="path5032"
                       inkscape:connector-curvature="0"
                       sodipodi:nodetypes="ccc" />
                  </g>
                </g>
              </g>
            </g>
          </g>
        </g>
      </g>
    </g>
  </g>
</svg>
