<?xml version="1.0" encoding="UTF-8" standalone="no"?>
<svg
   xmlns:dc="http://purl.org/dc/elements/1.1/"
   xmlns:cc="http://creativecommons.org/ns#"
   xmlns:rdf="http://www.w3.org/1999/02/22-rdf-syntax-ns#"
   xmlns:svg="http://www.w3.org/2000/svg"
   xmlns="http://www.w3.org/2000/svg"
   xmlns:sodipodi="http://sodipodi.sourceforge.net/DTD/sodipodi-0.dtd"
   xmlns:inkscape="http://www.inkscape.org/namespaces/inkscape"
   version="1.0"
   width="23.723598mm"
   height="31.318199mm"
   id="svg2"
   inkscape:version="0.91 r"
   viewBox="0 0 23.723598 31.318199"
   sodipodi:docname="ю.svg">
  <metadata
     id="metadata23">
    <rdf:RDF>
      <cc:Work
         rdf:about="">
        <dc:format>image/svg+xml</dc:format>
        <dc:type
           rdf:resource="http://purl.org/dc/dcmitype/StillImage" />
        <dc:title></dc:title>
      </cc:Work>
    </rdf:RDF>
  </metadata>
  <sodipodi:namedview
     pagecolor="#00450a"
     bordercolor="#666666"
     borderopacity="1"
     objecttolerance="10"
     gridtolerance="10"
     guidetolerance="10"
     inkscape:pageopacity="0"
     inkscape:pageshadow="2"
     inkscape:window-width="1920"
     inkscape:window-height="1058"
     id="namedview21"
     inkscape:document-units="mm"
     showgrid="false"
     inkscape:zoom="5.6568543"
     inkscape:cx="12.281857"
     inkscape:cy="62.817152"
     inkscape:window-x="1280"
     inkscape:window-y="0"
     inkscape:window-maximized="1"
     inkscape:current-layer="g5126" />
  <defs
     id="defs4">
    <pattern
       id="WMFhbasepattern"
       patternUnits="userSpaceOnUse"
       width="6"
       height="6"
       x="0"
       y="0" />
    <pattern
       y="0"
       x="0"
       height="6"
       width="6"
       patternUnits="userSpaceOnUse"
       id="WMFhbasepattern-1" />
    <pattern
       y="0"
       x="0"
       height="6"
       width="6"
       patternUnits="userSpaceOnUse"
       id="WMFhbasepattern-0" />
    <pattern
       y="0"
       x="0"
       height="6"
       width="6"
       patternUnits="userSpaceOnUse"
       id="WMFhbasepattern-05" />
    <pattern
       y="0"
       x="0"
       height="6"
       width="6"
       patternUnits="userSpaceOnUse"
       id="WMFhbasepattern-4" />
    <pattern
       y="0"
       x="0"
       height="6"
       width="6"
       patternUnits="userSpaceOnUse"
       id="WMFhbasepattern-7" />
    <pattern
       y="0"
       x="0"
       height="6"
       width="6"
       patternUnits="userSpaceOnUse"
       id="WMFhbasepattern-2" />
    <pattern
       y="0"
       x="0"
       height="6"
       width="6"
       patternUnits="userSpaceOnUse"
       id="WMFhbasepattern-22" />
    <pattern
       y="0"
       x="0"
       height="6"
       width="6"
       patternUnits="userSpaceOnUse"
       id="WMFhbasepattern-5" />
    <pattern
       y="0"
       x="0"
       height="6"
       width="6"
       patternUnits="userSpaceOnUse"
       id="WMFhbasepattern-45" />
    <pattern
       y="0"
       x="0"
       height="6"
       width="6"
       patternUnits="userSpaceOnUse"
       id="WMFhbasepattern-49" />
    <pattern
       y="0"
       x="0"
       height="6"
       width="6"
       patternUnits="userSpaceOnUse"
       id="WMFhbasepattern-9" />
    <pattern
       y="0"
       x="0"
       height="6"
       width="6"
       patternUnits="userSpaceOnUse"
       id="WMFhbasepattern-46" />
  </defs>
  <g
     id="g4259"
     transform="translate(-1.45981,0.28266241)">
    <g
       id="g4346"
       transform="translate(3.1079363,0.32846031)">
      <g
         id="g4429"
         transform="translate(-2.2151367,-1.1605189)">
        <g
           id="g4512"
           transform="translate(1.1874053,0.48085622)">
          <g
             id="g4584"
             transform="translate(-8.8613038,2.7002195)">
            <g
               id="g4662"
               transform="translate(-7.4394741,1.8922921)">
              <g
                 id="g4718"
                 transform="translate(3.7959895,-1.8794551)">
                <g
                   id="g4958"
                   transform="translate(11.674954,-3.7997828)">
                  <g
                     id="g5039"
                     transform="translate(-0.1703429,0.21827321)">
                    <g
                       id="g5126"
                       transform="translate(-4.4919348,1.0873037)">
                      <path
                         style="fill:none;stroke:#1f1a17;stroke-width:0.35208687px;stroke-linecap:round;stroke-linejoin:round;stroke-miterlimit:4;stroke-dasharray:none;stroke-opacity:1"
                         d="M 6.9326196,14.050772 C 6.9547431,10.52718 6.8884797,6.9976501 6.9655506,3.4777388 7.0527326,2.7870483 7.7142034,2.3214251 8.3924377,2.4411928 9.5495857,2.2291645 9.4487511,0.20841075 8.2483108,0.1768683 5.8014662,0.20112772 3.3447607,0.12895893 0.9038956,0.2118312 -0.20763491,0.54291544 0.02370122,2.53067 1.2355966,2.4556044 2.1972615,2.3502257 2.5931665,3.4911135 2.4605044,4.2731238 c -0.013745,7.8080742 0.027482,15.6191322 -0.0206,23.4253422 -0.06296,0.715702 -0.7345976,1.232443 -1.441295,1.10232 -1.15464786,0.215743 -1.05309643,2.232989 0.1461879,2.26437 2.446826,-0.02433 4.9036605,0.04805 7.3444185,-0.03506 1.112455,-0.329944 0.8802485,-2.319066 -0.3317043,-2.24371 -0.9618741,0.1057 -1.3571734,-1.035606 -1.2248878,-1.817486 0,-3.277047 0,-6.554094 0,-9.831141 0.7583875,-0.0027 1.5167751,-0.0055 2.2751626,-0.0082 0.3485485,4.722062 2.4241797,9.587116 6.4528697,12.296366 2.812758,1.933438 6.6782,2.189925 9.680494,0.536344 4.003283,-2.136438 6.354347,-6.488438 7.117837,-10.839713 C 33.403639,13.725847 32.185841,7.7383636 28.406364,3.6389374 26.109386,1.1001675 22.517913,-0.38904417 19.106923,0.36926042 15.112298,1.198399 12.110924,4.5384887 10.608335,8.192104 c -0.784776,1.858822 -1.2376565,3.849327 -1.3964322,5.858668 -0.7597611,0 -1.5195221,0 -2.2792832,0 z"
                         id="path5107"
                         inkscape:connector-curvature="0" />
                      <path
                         style="fill:none;stroke:#1f1a17;stroke-width:0.35208687px;stroke-linecap:round;stroke-linejoin:round;stroke-miterlimit:4;stroke-dasharray:none;stroke-opacity:1"
                         d="m 4.7212673,14.581378 c 1.3277543,0.0906 1.1381949,2.123889 -0.1206584,1.98639 -1.2793046,-0.226095 -0.7196367,-1.9349 0.1089627,-1.985913 l 0.00663,-2.7e-4 0.00507,-2.07e-4 z"
                         id="path5111"
                         inkscape:connector-curvature="0"
                         sodipodi:nodetypes="cccccc" />
                      <path
                         style="fill:none;stroke:#1f1a17;stroke-width:0.35208687px;stroke-linecap:round;stroke-linejoin:round;stroke-miterlimit:4;stroke-dasharray:none;stroke-opacity:1"
                         d="m 20.92754,28.630033 c -2.016096,-0.0018 -3.675086,-1.467986 -4.719949,-3.073122 -1.90696,-2.946835 -2.581716,-6.529515 -2.596736,-9.995547 0.03239,-3.466174 0.726682,-7.0481776 2.663377,-9.9776518 1.053372,-1.5753421 2.71905,-3.0032156 4.713911,-2.9691508 2.034785,0.032804 3.686279,1.5415468 4.722749,3.1726826 1.877075,2.9653496 2.534695,6.549596 2.529449,10.016737 -0.04882,3.44443 -0.754204,7.003636 -2.696789,9.90369 -1.046727,1.538161 -2.659555,2.922603 -4.616012,2.922362 z"
                         id="path5115"
                         inkscape:connector-curvature="0" />
                      <path
                         style="fill:none;stroke:#1f1a17;stroke-width:0.35208687px;stroke-linecap:round;stroke-linejoin:round;stroke-miterlimit:4;stroke-dasharray:none;stroke-opacity:1"
                         d="m 30.571722,16.714103 c -1.194429,-0.07526 -0.991091,-1.717019 -0.266576,-1.957329 1.483025,-0.252937 1.304438,1.728563 0.266576,1.957329 z"
                         id="path5119"
                         inkscape:connector-curvature="0"
                         sodipodi:nodetypes="ccc" />
                    </g>
                  </g>
                </g>
              </g>
            </g>
          </g>
        </g>
      </g>
    </g>
  </g>
</svg>
