<?xml version="1.0" encoding="UTF-8" standalone="no"?>
<svg
   xmlns:dc="http://purl.org/dc/elements/1.1/"
   xmlns:cc="http://creativecommons.org/ns#"
   xmlns:rdf="http://www.w3.org/1999/02/22-rdf-syntax-ns#"
   xmlns:svg="http://www.w3.org/2000/svg"
   xmlns="http://www.w3.org/2000/svg"
   xmlns:sodipodi="http://sodipodi.sourceforge.net/DTD/sodipodi-0.dtd"
   xmlns:inkscape="http://www.inkscape.org/namespaces/inkscape"
   version="1.0"
   width="23.723598mm"
   height="31.318199mm"
   id="svg2"
   inkscape:version="0.91 r"
   viewBox="0 0 23.723598 31.318199"
   sodipodi:docname="Ñ.svg">
  <metadata
     id="metadata23">
    <rdf:RDF>
      <cc:Work
         rdf:about="">
        <dc:format>image/svg+xml</dc:format>
        <dc:type
           rdf:resource="http://purl.org/dc/dcmitype/StillImage" />
        <dc:title></dc:title>
      </cc:Work>
    </rdf:RDF>
  </metadata>
  <sodipodi:namedview
     pagecolor="#00450a"
     bordercolor="#666666"
     borderopacity="1"
     objecttolerance="10"
     gridtolerance="10"
     guidetolerance="10"
     inkscape:pageopacity="0"
     inkscape:pageshadow="2"
     inkscape:window-width="1920"
     inkscape:window-height="1058"
     id="namedview21"
     inkscape:document-units="mm"
     showgrid="false"
     inkscape:zoom="8"
     inkscape:cx="32.134072"
     inkscape:cy="74.095506"
     inkscape:window-x="1280"
     inkscape:window-y="0"
     inkscape:window-maximized="1"
     inkscape:current-layer="g5207" />
  <defs
     id="defs4">
    <pattern
       id="WMFhbasepattern"
       patternUnits="userSpaceOnUse"
       width="6"
       height="6"
       x="0"
       y="0" />
    <pattern
       y="0"
       x="0"
       height="6"
       width="6"
       patternUnits="userSpaceOnUse"
       id="WMFhbasepattern-1" />
    <pattern
       y="0"
       x="0"
       height="6"
       width="6"
       patternUnits="userSpaceOnUse"
       id="WMFhbasepattern-0" />
    <pattern
       y="0"
       x="0"
       height="6"
       width="6"
       patternUnits="userSpaceOnUse"
       id="WMFhbasepattern-05" />
    <pattern
       y="0"
       x="0"
       height="6"
       width="6"
       patternUnits="userSpaceOnUse"
       id="WMFhbasepattern-4" />
    <pattern
       y="0"
       x="0"
       height="6"
       width="6"
       patternUnits="userSpaceOnUse"
       id="WMFhbasepattern-7" />
    <pattern
       y="0"
       x="0"
       height="6"
       width="6"
       patternUnits="userSpaceOnUse"
       id="WMFhbasepattern-2" />
    <pattern
       y="0"
       x="0"
       height="6"
       width="6"
       patternUnits="userSpaceOnUse"
       id="WMFhbasepattern-22" />
    <pattern
       y="0"
       x="0"
       height="6"
       width="6"
       patternUnits="userSpaceOnUse"
       id="WMFhbasepattern-5" />
    <pattern
       y="0"
       x="0"
       height="6"
       width="6"
       patternUnits="userSpaceOnUse"
       id="WMFhbasepattern-45" />
    <pattern
       y="0"
       x="0"
       height="6"
       width="6"
       patternUnits="userSpaceOnUse"
       id="WMFhbasepattern-49" />
    <pattern
       y="0"
       x="0"
       height="6"
       width="6"
       patternUnits="userSpaceOnUse"
       id="WMFhbasepattern-9" />
    <pattern
       y="0"
       x="0"
       height="6"
       width="6"
       patternUnits="userSpaceOnUse"
       id="WMFhbasepattern-46" />
    <pattern
       y="0"
       x="0"
       height="6"
       width="6"
       patternUnits="userSpaceOnUse"
       id="WMFhbasepattern-70" />
  </defs>
  <g
     id="g4259"
     transform="translate(-1.45981,0.28266241)">
    <g
       id="g4346"
       transform="translate(3.1079363,0.32846031)">
      <g
         id="g4429"
         transform="translate(-2.2151367,-1.1605189)">
        <g
           id="g4512"
           transform="translate(1.1874053,0.48085622)">
          <g
             id="g4584"
             transform="translate(-8.8613038,2.7002195)">
            <g
               id="g4662"
               transform="translate(-7.4394741,1.8922921)">
              <g
                 id="g4718"
                 transform="translate(3.7959895,-1.8794551)">
                <g
                   id="g4958"
                   transform="translate(11.674954,-3.7997828)">
                  <g
                     id="g5039"
                     transform="translate(-0.1703429,0.21827321)">
                    <g
                       id="g5126"
                       transform="translate(-4.4919348,1.0873037)">
                      <g
                         id="g5207"
                         transform="translate(4.7904264,0.13799912)">
                        <path
                           style="fill:none;stroke:#1f1a17;stroke-width:0.35177732px;stroke-linecap:round;stroke-linejoin:round;stroke-miterlimit:4;stroke-dasharray:none;stroke-opacity:1"
                           d="m 17.389517,15.613154 c -0.01494,4.062492 0.02725,8.12775 -0.0233,12.18852 -0.06528,0.688481 -0.702417,1.234463 -1.399304,1.09728 -1.102455,0.117386 -1.203192,1.902067 -0.14656,2.18269 2.26691,0.08207 4.54826,0.01141 6.820682,0.03502 0.663952,0.145838 1.409012,-0.278545 1.434449,-0.99939 0.105873,-0.726545 -0.585027,-1.382269 -1.307547,-1.22622 -0.896892,-0.105532 -1.092045,-1.178445 -1.00265,-1.919437 0.0079,-7.784943 -0.01575,-15.571224 0.0118,-23.3553336 0.0369,-0.7103125 0.681991,-1.3088499 1.405177,-1.163718 1.17247,-0.1603782 1.137189,-2.17741143 -0.05083,-2.2745968 C 18.362962,0.19030289 13.592631,0.14340631 8.8251508,0.20161486 5.4103579,0.38982506 2.0157361,2.6543174 1.088058,6.041799 c -0.82462526,2.7953985 0.3923673,5.923705 2.6922384,7.645597 1.3530724,1.064121 3.0225379,1.699833 4.730764,1.874902 -0.4552973,4.196101 -2.0720017,8.40397 -5.2056153,11.32887 -0.8529241,0.863936 -1.8836405,1.521021 -2.83836119,2.252214 -0.68937695,0.708557 -0.07158,2.157258 0.96543059,1.93828 0.963155,-0.411329 1.7984476,-1.095948 2.6605695,-1.68739 3.9752802,-2.884865 7.033371,-7.064695 8.339663,-11.8196 0.186657,-0.646375 0.335959,-1.302816 0.471607,-1.961605 1.495026,5.8e-5 2.990277,-1.16e-4 4.485163,8.7e-5 z"
                           id="path5188"
                           inkscape:connector-curvature="0" />
                        <path
                           style="fill:none;stroke:#1f1a17;stroke-width:0.35177732px;stroke-linecap:round;stroke-linejoin:round;stroke-miterlimit:4;stroke-dasharray:none;stroke-opacity:1"
                           d="m 17.389517,12.990435 c -2.287806,4.99e-4 -4.575992,0.0232 -6.863559,0.0098 C 9.1589103,12.919895 8.0017572,11.940568 7.3794617,10.767587 6.3440756,8.8277236 6.4193332,6.3119352 7.642883,4.4730474 8.331972,3.4248426 9.5123265,2.6333682 10.798625,2.6677082 c 2.196964,0 4.393928,0 6.590892,0 0,3.4409089 0,6.8818179 0,10.3227268 z"
                           id="path5192"
                           inkscape:connector-curvature="0" />
                        <path
                           style="fill:none;stroke:#1f1a17;stroke-width:0.35177732px;stroke-linecap:round;stroke-linejoin:round;stroke-miterlimit:4;stroke-dasharray:none;stroke-opacity:1"
                           d="M 4.236974,6.1353418 C 3.2032711,6.0071028 2.9488697,4.7583288 3.7238556,4.2798595 5.4911173,4.0049518 5.682921,6.1283694 4.236974,6.1353418 Z"
                           id="path5196"
                           inkscape:connector-curvature="0"
                           sodipodi:nodetypes="ccc" />
                        <path
                           style="fill:none;stroke:#1f1a17;stroke-width:0.35177732px;stroke-linecap:round;stroke-linejoin:round;stroke-miterlimit:4;stroke-dasharray:none;stroke-opacity:1"
                           d="m 19.515836,27.158244 c -1.578835,-0.185821 -0.916238,-2.219938 0.213531,-1.978597 1.231939,0.282338 0.803598,2.132244 -0.213531,1.978597 z"
                           id="path5200"
                           inkscape:connector-curvature="0"
                           sodipodi:nodetypes="ccc" />
                      </g>
                    </g>
                  </g>
                </g>
              </g>
            </g>
          </g>
        </g>
      </g>
    </g>
  </g>
</svg>
